<svg width="788" height="90" viewBox="0 0 788 90" fill="none" xmlns="http://www.w3.org/2000/svg">
<g style="mix-blend-mode:multiply">
<path d="M52.931 48.1216L55.2195 43.9334L47.7059 30.1663L15.4553 89.3833H20.0323L47.7059 38.5296L52.931 48.1216Z" fill="#E9E9E9"/>
<path d="M60.6036 34.0373L62.8921 29.8359L47.7325 1.9978L0.163574 89.3832H4.74056L47.7325 10.3875L60.6036 34.0373Z" fill="#E9E9E9"/>
<path d="M50.3516 89.3833H54.9153L65.154 70.5823L75.4059 89.3833H79.9697L65.1408 62.2058L50.3516 89.3833Z" fill="#E9E9E9"/>
<path d="M65.1806 34.0506V34.0638L65.1674 34.0374L62.8921 38.2256L62.9054 38.2388L35.0598 89.3832H39.6236L65.1806 42.4403L90.7244 89.3832H95.2882H95.3014L65.1806 34.0506Z" fill="#E9E9E9"/>
<path d="M165.513 48.1216L167.801 43.9334L160.287 30.1663L128.037 89.3833H132.614L160.287 38.5296L165.513 48.1216Z" fill="#E9E9E9"/>
<path d="M173.185 34.0373L175.474 29.8359L160.314 1.9978L112.745 89.3832H117.322L160.314 10.3875L173.185 34.0373Z" fill="#E9E9E9"/>
<path d="M162.933 89.3833H167.497L177.736 70.5823L187.987 89.3833H192.551L177.722 62.2058L162.933 89.3833Z" fill="#E9E9E9"/>
<path d="M177.762 34.0506V34.0638L177.749 34.0374L175.474 38.2256L175.487 38.2388L147.641 89.3832H152.205L177.762 42.4403L203.306 89.3832H207.87H207.883L177.762 34.0506Z" fill="#E9E9E9"/>
<path d="M98.6507 43.2595L96.3622 47.4477L103.876 61.2148L136.126 1.99785L131.549 1.99785L103.876 52.8515L98.6507 43.2595Z" fill="#E9E9E9"/>
<path d="M90.9782 57.3437L88.6897 61.5452L103.849 89.3833L151.418 1.99792L146.841 1.99792L103.849 80.9936L90.9782 57.3437Z" fill="#E9E9E9"/>
<path d="M101.23 1.99808L96.6665 1.99808L86.4278 20.799L76.1759 1.99808L71.6121 1.99808L86.441 29.1755L101.23 1.99808Z" fill="#E9E9E9"/>
<path d="M86.4012 57.3305L86.4012 57.3173L86.4144 57.3437L88.6897 53.1555L88.6764 53.1423L116.522 1.99792L111.958 1.99792L86.4012 48.9408L60.8574 1.99791L56.2936 1.99791L56.2804 1.99791L86.4012 57.3305Z" fill="#E9E9E9"/>
<path d="M-13.931 43.2595L-16.2195 47.4477L-8.70588 61.2148L23.5447 1.99785L18.9677 1.99785L-8.70588 52.8515L-13.931 43.2595Z" fill="#E9E9E9"/>
<path d="M-21.6036 57.3437L-23.8921 61.5452L-8.73249 89.3833L38.8364 1.99792L34.2594 1.99792L-8.73249 80.9936L-21.6036 57.3437Z" fill="#E9E9E9"/>
<path d="M-26.1806 57.3305L-26.1806 57.3173L-26.1674 57.3437L-23.8921 53.1555L-23.9054 53.1423L3.94019 1.99792L-0.623569 1.99792L-26.1806 48.9408L-51.7244 1.99791L-56.2882 1.99791L-56.3014 1.99791L-26.1806 57.3305Z" fill="#E9E9E9"/>
<path d="M211.233 43.2595L208.944 47.4477L216.458 61.2148L248.708 1.99785L244.131 1.99785L216.458 52.8515L211.233 43.2595Z" fill="#E9E9E9"/>
<path d="M203.56 57.3437L201.271 61.5452L216.431 89.3833L264 1.99792L259.423 1.99792L216.431 80.9936L203.56 57.3437Z" fill="#E9E9E9"/>
<path d="M213.812 1.99808L209.248 1.99808L199.01 20.799L188.758 1.99808L184.194 1.99808L199.023 29.1755L213.812 1.99808Z" fill="#E9E9E9"/>
<path d="M198.983 57.3305L198.983 57.3173L198.996 57.3437L201.271 53.1555L201.258 53.1423L229.104 1.99792L224.54 1.99792L198.983 48.9408L173.439 1.99791L168.875 1.99791L168.862 1.99791L198.983 57.3305Z" fill="#E9E9E9"/>
</g>
<g style="mix-blend-mode:multiply">
<path d="M576.814 47.1216L579.103 42.9334L571.589 29.1663L539.338 88.3833H543.915L571.589 37.5296L576.814 47.1216Z" fill="#E9E9E9"/>
<path d="M584.486 33.0373L586.775 28.8359L571.615 0.997803L524.046 88.3832H528.623L571.615 9.38754L584.486 33.0373Z" fill="#E9E9E9"/>
<path d="M574.234 88.3833H578.798L589.037 69.5823L599.289 88.3833H603.852L589.024 61.2058L574.234 88.3833Z" fill="#E9E9E9"/>
<path d="M589.063 33.0506V33.0638L589.05 33.0374L586.775 37.2256L586.788 37.2388L558.942 88.3832H563.506L589.063 41.4403L614.607 88.3832H619.171H619.184L589.063 33.0506Z" fill="#E9E9E9"/>
<path d="M464.233 47.1216L466.521 42.9334L459.007 29.1663L426.757 88.3833H431.334L459.007 37.5296L464.233 47.1216Z" fill="#E9E9E9"/>
<path d="M471.905 33.0373L474.193 28.8359L459.034 0.997803L411.465 88.3832H416.042L459.034 9.38754L471.905 33.0373Z" fill="#E9E9E9"/>
<path d="M461.653 88.3833H466.217L476.455 69.5823L486.707 88.3833H491.271L476.442 61.2058L461.653 88.3833Z" fill="#E9E9E9"/>
<path d="M476.482 33.0506V33.0638L476.468 33.0374L474.193 37.2256L474.206 37.2388L446.361 88.3832H450.925L476.482 41.4403L502.025 88.3832H506.589H506.602L476.482 33.0506Z" fill="#E9E9E9"/>
<path d="M689.396 47.1216L691.684 42.9334L684.17 29.1663L651.92 88.3833H656.497L684.17 37.5296L689.396 47.1216Z" fill="#E9E9E9"/>
<path d="M697.068 33.0373L699.356 28.8359L684.197 0.997803L636.628 88.3832H641.205L684.197 9.38754L697.068 33.0373Z" fill="#E9E9E9"/>
<path d="M686.816 88.3833H691.38L701.618 69.5823L711.87 88.3833H716.434L701.605 61.2058L686.816 88.3833Z" fill="#E9E9E9"/>
<path d="M701.645 33.0506V33.0638L701.631 33.0374L699.356 37.2256L699.369 37.2388L671.524 88.3832H676.088L701.645 41.4403L727.189 88.3832H731.752H731.766L701.645 33.0506Z" fill="#E9E9E9"/>
<path d="M397.37 42.2595L395.081 46.4477L402.595 60.2148L434.846 0.997847L430.269 0.997847L402.595 51.8515L397.37 42.2595Z" fill="#E9E9E9"/>
<path d="M389.698 56.3437L387.409 60.5452L402.569 88.3833L450.138 0.997919L445.561 0.997918L402.569 79.9936L389.698 56.3437Z" fill="#E9E9E9"/>
<path d="M399.95 0.998081L395.386 0.99808L385.147 19.799L374.895 0.998078L370.332 0.998078L385.16 28.1755L399.95 0.998081Z" fill="#E9E9E9"/>
<path d="M385.121 56.3305L385.121 56.3173L385.134 56.3437L387.409 52.1555L387.396 52.1423L415.242 0.997918L410.678 0.997918L385.121 47.9408L359.577 0.997913L355.013 0.997913L355 0.997913L385.121 56.3305Z" fill="#E9E9E9"/>
<path d="M622.534 42.2595L620.245 46.4477L627.759 60.2148L660.009 0.997847L655.432 0.997847L627.759 51.8515L622.534 42.2595Z" fill="#E9E9E9"/>
<path d="M614.861 56.3437L612.573 60.5452L627.732 88.3833L675.301 0.997919L670.724 0.997918L627.732 79.9936L614.861 56.3437Z" fill="#E9E9E9"/>
<path d="M625.113 0.998081L620.55 0.99808L610.311 19.799L600.059 0.998078L595.495 0.998078L610.324 28.1755L625.113 0.998081Z" fill="#E9E9E9"/>
<path d="M610.284 56.3305L610.284 56.3173L610.298 56.3437L612.573 52.1555L612.56 52.1423L640.405 0.997918L635.842 0.997918L610.284 47.9408L584.741 0.997913L580.177 0.997913L580.164 0.997913L610.284 56.3305Z" fill="#E9E9E9"/>
<path d="M509.952 42.2595L507.664 46.4477L515.177 60.2148L547.428 0.997847L542.851 0.997847L515.177 51.8515L509.952 42.2595Z" fill="#E9E9E9"/>
<path d="M502.28 56.3437L499.991 60.5452L515.151 88.3833L562.72 0.997919L558.143 0.997918L515.151 79.9936L502.28 56.3437Z" fill="#E9E9E9"/>
<path d="M512.532 0.998081L507.968 0.99808L497.729 19.799L487.477 0.998078L482.914 0.998078L497.743 28.1755L512.532 0.998081Z" fill="#E9E9E9"/>
<path d="M497.703 56.3305L497.703 56.3173L497.716 56.3437L499.991 52.1555L499.978 52.1423L527.824 0.997918L523.26 0.997918L497.703 47.9408L472.159 0.997913L467.595 0.997913L467.582 0.997913L497.703 56.3305Z" fill="#E9E9E9"/>
<path d="M735.115 42.2595L732.827 46.4477L740.34 60.2148L772.591 0.997847L768.014 0.997847L740.34 51.8515L735.115 42.2595Z" fill="#E9E9E9"/>
<path d="M727.443 56.3437L725.154 60.5452L740.314 88.3833L787.883 0.997919L783.306 0.997918L740.314 79.9936L727.443 56.3437Z" fill="#E9E9E9"/>
<path d="M737.695 0.998081L733.131 0.99808L722.892 19.799L712.64 0.998078L708.077 0.998078L722.906 28.1755L737.695 0.998081Z" fill="#E9E9E9"/>
<path d="M722.866 56.3305L722.866 56.3173L722.879 56.3437L725.155 52.1555L725.141 52.1423L752.987 0.997918L748.423 0.997918L722.866 47.9408L697.322 0.997913L692.758 0.997913L692.745 0.997913L722.866 56.3305Z" fill="#E9E9E9"/>
</g>
<g clip-path="url(#clip0_654_3)">
<path d="M341.913 79.4651H270.167V79.7111H341.913V79.4651Z" fill="#373737"/>
<path d="M254 67.86V67.7195H259.717V69.3799H259.594C259.516 69.1596 259.415 68.9477 259.295 68.7473C259.196 68.5716 259.072 68.4117 258.926 68.2729C258.781 68.1373 258.611 68.0327 258.424 67.9655C258.21 67.8907 257.983 67.8549 257.756 67.86H256.296V70.9699H256.85C257.057 70.977 257.264 70.9411 257.457 70.8645C257.615 70.8055 257.757 70.7091 257.87 70.5834C257.984 70.4458 258.076 70.2918 258.143 70.1266C258.215 69.9318 258.274 69.7322 258.319 69.5292H258.442V72.4985H258.319C258.266 72.314 258.213 72.1295 258.152 71.9626C258.096 71.7946 258.013 71.6372 257.905 71.497C257.807 71.3647 257.677 71.2591 257.527 71.1896C257.352 71.104 257.159 71.0618 256.964 71.0665H256.313V74.4312H257.193V74.5717H254V74.4312H254.88V67.8249L254 67.86Z" fill="#373737"/>
<path d="M260.605 67.86V67.7195H262.875H263.675C263.944 67.721 264.212 67.7475 264.476 67.7986C264.743 67.8466 265.001 67.9355 265.241 68.0621C265.47 68.1869 265.668 68.3609 265.821 68.5717C265.979 68.8078 266.059 69.0873 266.05 69.3711C266.056 69.6058 265.995 69.8373 265.874 70.0387C265.762 70.2212 265.608 70.3747 265.426 70.4868C265.234 70.6043 265.027 70.6931 264.81 70.7503C264.591 70.8117 264.367 70.8529 264.141 70.8733V70.8733C264.458 70.9348 264.739 70.9875 265.021 71.049C265.248 71.1013 265.465 71.1903 265.663 71.3126C265.85 71.4291 266 71.5968 266.094 71.7957C266.215 72.0551 266.284 72.3357 266.296 72.6215C266.296 73.0256 266.349 73.3594 266.375 73.5966C266.385 73.7889 266.412 73.98 266.455 74.1677C266.473 74.2705 266.522 74.3655 266.595 74.44C266.678 74.489 266.772 74.5133 266.868 74.5102C266.926 74.5129 266.983 74.5042 267.038 74.4846C267.092 74.465 267.142 74.4349 267.185 74.396C267.26 74.3528 267.334 74.3059 267.405 74.2555L267.501 74.3346C267.444 74.4004 267.382 74.462 267.317 74.519C267.251 74.5729 267.18 74.62 267.105 74.6596C267.01 74.7017 266.91 74.7312 266.806 74.7474C266.663 74.7627 266.519 74.7627 266.375 74.7474C266.073 74.7714 265.769 74.7138 265.496 74.5805C265.311 74.4829 265.156 74.3372 265.047 74.1589C264.953 73.9906 264.894 73.8055 264.871 73.6142C264.871 73.4121 264.871 73.2277 264.827 73.052C264.783 72.8763 264.827 72.5336 264.775 72.2877C264.757 72.061 264.704 71.8386 264.616 71.6288C264.536 71.4416 264.405 71.2803 264.238 71.1632C264.026 71.0359 263.781 70.9747 263.534 70.9875H262.892V74.5015H263.772V74.642H260.588V74.5015H261.467V67.8952L260.605 67.86ZM263.297 70.8469C263.531 70.8548 263.764 70.816 263.983 70.7327C264.137 70.6655 264.268 70.5558 264.361 70.4165C264.45 70.2824 264.505 70.1285 264.52 69.9684C264.533 69.7959 264.533 69.6227 264.52 69.4501C264.522 69.2061 264.505 68.9621 264.467 68.721C264.434 68.5435 264.368 68.3737 264.273 68.2202C264.178 68.0886 264.047 67.9878 263.895 67.9303C263.704 67.8577 263.501 67.8248 263.297 67.8337H263.077H262.866V70.8206L263.297 70.8469Z" fill="#373737"/>
<path d="M270.756 67.7197V67.8602H269.876V72.2C269.876 72.4987 269.876 72.7974 269.92 73.0785C269.942 73.3459 270.011 73.6075 270.122 73.8516C270.228 74.073 270.392 74.2614 270.597 74.3962C270.862 74.555 271.169 74.6286 271.477 74.6071C271.775 74.6133 272.072 74.5718 272.357 74.4841C272.569 74.4186 272.767 74.3111 272.937 74.1679C273.088 74.0464 273.211 73.8936 273.298 73.7198C273.382 73.5653 273.444 73.3997 273.482 73.2279C273.517 73.0746 273.541 72.919 273.553 72.7622C273.553 72.6217 273.553 72.4987 273.553 72.4021V67.8602H272.673V67.7197H274.608V67.8602H273.729V72.3933C273.729 72.4987 273.729 72.6217 273.729 72.7798C273.726 72.949 273.702 73.1171 273.658 73.2806C273.609 73.461 273.538 73.635 273.447 73.7989C273.351 73.9839 273.216 74.1458 273.051 74.2733C272.853 74.4226 272.63 74.5357 272.392 74.6071C272.075 74.7024 271.746 74.7468 271.415 74.7389C270.906 74.7562 270.397 74.6849 269.911 74.528C269.578 74.4257 269.275 74.2415 269.032 73.9922C268.832 73.7783 268.696 73.514 268.636 73.2279C268.567 72.9403 268.534 72.6451 268.539 72.3494V67.8339H267.66V67.6934L270.756 67.7197Z" fill="#373737"/>
<path d="M275.541 72.4986C275.541 72.5777 275.541 72.6831 275.602 72.8061C275.64 72.9438 275.687 73.0788 275.743 73.2102C275.808 73.3665 275.888 73.5165 275.98 73.6582C276.074 73.8145 276.19 73.9565 276.324 74.0799C276.451 74.2105 276.596 74.3228 276.754 74.4137C276.879 74.4872 277.012 74.5462 277.15 74.5894C277.267 74.6235 277.389 74.6412 277.511 74.6421H277.819C278.121 74.6601 278.424 74.6028 278.698 74.4752C278.899 74.3884 279.077 74.2561 279.217 74.0887C279.335 73.9427 279.425 73.7758 279.481 73.5967C279.53 73.4522 279.557 73.3012 279.56 73.1487C279.569 72.9397 279.511 72.7333 279.393 72.5601C279.271 72.4025 279.119 72.271 278.945 72.1736C278.739 72.0669 278.524 71.9787 278.303 71.91L277.564 71.6992C277.317 71.6201 277.071 71.5322 276.834 71.4356C276.6 71.3418 276.384 71.2113 276.192 71.0491C276.002 70.8869 275.849 70.6863 275.743 70.4605C275.62 70.1846 275.562 69.8838 275.576 69.582C275.573 69.3254 275.634 69.072 275.752 68.8441C275.868 68.6024 276.033 68.3871 276.236 68.2115C276.452 68.0183 276.703 67.8664 276.974 67.7635C277.271 67.6484 277.588 67.5917 277.907 67.5966C278.096 67.5946 278.284 67.6123 278.47 67.6493L278.892 67.7723L279.217 67.8953C279.298 67.9303 279.384 67.9511 279.472 67.9568C279.529 67.9769 279.591 67.9769 279.648 67.9568C279.69 67.9072 279.723 67.8507 279.745 67.7899H279.903V69.6259H279.719C279.639 69.4063 279.56 69.1779 279.472 68.967C279.391 68.7526 279.278 68.5513 279.138 68.3697C279.002 68.1902 278.828 68.0432 278.628 67.9392C278.385 67.8186 278.116 67.7612 277.845 67.7723C277.612 67.768 277.38 67.8037 277.159 67.8777C276.979 67.9409 276.812 68.0361 276.667 68.1588C276.535 68.2636 276.427 68.3954 276.35 68.5454C276.281 68.6815 276.245 68.832 276.244 68.9846C276.239 69.1877 276.304 69.3864 276.429 69.5469C276.559 69.7016 276.717 69.8299 276.895 69.9246C277.104 70.0395 277.326 70.1308 277.555 70.197L278.32 70.4429C278.584 70.522 278.839 70.6186 279.085 70.7152C279.322 70.8123 279.545 70.9424 279.745 71.1018C279.939 71.2522 280.101 71.4405 280.22 71.6552C280.344 71.9095 280.404 72.1897 280.396 72.4722C280.396 72.7756 280.33 73.0755 280.202 73.3507C280.074 73.6343 279.888 73.8885 279.657 74.0975C279.396 74.318 279.099 74.4905 278.777 74.607C278.431 74.7337 278.064 74.7962 277.696 74.7915C277.495 74.7932 277.294 74.7726 277.098 74.73L276.543 74.6158L276.095 74.4928C275.998 74.4621 275.897 74.4415 275.796 74.4313C275.728 74.4271 275.661 74.4423 275.602 74.4752C275.551 74.5257 275.514 74.5896 275.497 74.6597H275.338V72.4986H275.541ZM277.564 67.2803L276.517 65.3828H276.631L277.916 66.6039L279.208 65.3828H279.323L278.267 67.2803H277.564Z" fill="#373737"/>
<path d="M284.644 67.7195V67.86H283.765V70.9523H283.835L286.799 67.86H285.823V67.7195H287.758V67.86H286.984L284.829 70.1178L288.171 74.5102H288.769V74.6508H285.541V74.5102H286.421L283.844 71.128H283.773V74.5102H284.653V74.6508H281.478V74.5102H282.357V67.904H281.478V67.7634L284.644 67.7195Z" fill="#373737"/>
<path d="M294.724 67.7195V69.3799H294.601C294.555 69.2355 294.5 69.0945 294.434 68.9581C294.352 68.7755 294.242 68.6067 294.108 68.4574C293.954 68.2878 293.773 68.1452 293.572 68.0357C293.323 67.9131 293.049 67.8528 292.771 67.86H291.232V70.8469H291.777C291.982 70.8533 292.186 70.8174 292.376 70.7415C292.536 70.6813 292.678 70.5816 292.789 70.4516C292.904 70.3182 292.996 70.1668 293.062 70.0035C293.133 69.8084 293.192 69.6089 293.238 69.4062H293.361V72.4107H293.238C293.185 72.2262 293.132 72.0417 293.07 71.866C293.017 71.7 292.933 71.5452 292.824 71.4092C292.723 71.2767 292.594 71.1686 292.446 71.0929C292.269 71.0146 292.077 70.9756 291.883 70.9787H291.232V74.4927H292.815C293.093 74.5001 293.368 74.4492 293.625 74.3433C293.862 74.2469 294.077 74.1034 294.258 73.9217C294.446 73.739 294.601 73.525 294.715 73.2892C294.838 73.0428 294.932 72.7835 294.997 72.5161H295.12V74.6332H288.963V74.4927H289.842V67.8864H288.963V67.7459L294.724 67.7195Z" fill="#373737"/>
<path d="M298.594 67.86V67.7195H300.828H301.637C301.903 67.7209 302.168 67.7474 302.429 67.7986C302.699 67.8477 302.959 67.9365 303.203 68.0621C303.429 68.1879 303.624 68.3619 303.775 68.5716C303.936 68.8059 304.017 69.0868 304.003 69.3711C304.013 69.6062 303.952 69.8389 303.827 70.0387C303.715 70.2212 303.562 70.3747 303.379 70.4868C303.188 70.6043 302.98 70.6931 302.763 70.7503C302.548 70.8116 302.327 70.8528 302.103 70.8733C302.411 70.9348 302.702 70.9875 302.983 71.049C303.21 71.1029 303.426 71.1918 303.625 71.3125C303.81 71.4316 303.959 71.5986 304.056 71.7957C304.174 72.0558 304.239 72.3363 304.25 72.6215C304.25 73.0256 304.311 73.3594 304.329 73.5966C304.341 73.7892 304.37 73.9804 304.417 74.1676C304.431 74.2719 304.481 74.3681 304.557 74.44C304.636 74.4902 304.728 74.5148 304.821 74.5102C304.941 74.516 305.057 74.475 305.147 74.396L305.367 74.194L305.463 74.2731C305.403 74.3391 305.339 74.4007 305.27 74.4575C305.204 74.5113 305.134 74.5585 305.059 74.5981C304.966 74.6402 304.869 74.6697 304.769 74.6859C304.622 74.7012 304.475 74.7012 304.329 74.6859C304.043 74.7022 303.759 74.6447 303.502 74.519C303.317 74.4214 303.162 74.2757 303.053 74.0974C302.956 73.9307 302.896 73.7449 302.877 73.5527C302.851 73.3664 302.836 73.1786 302.834 72.9904C302.834 72.7357 302.834 72.4721 302.781 72.2262C302.743 72.0165 302.678 71.8126 302.587 71.62C302.507 71.4328 302.376 71.2715 302.209 71.1544C301.995 71.0259 301.746 70.9647 301.497 70.9787H300.863V74.4927H301.743V74.6332H298.559V74.4927H299.438V67.8864L298.594 67.86ZM301.285 70.8469C301.519 70.8548 301.753 70.816 301.972 70.7327C302.125 70.6655 302.256 70.5558 302.35 70.4165C302.431 70.2787 302.485 70.1266 302.508 69.9684C302.521 69.7959 302.521 69.6227 302.508 69.4501C302.513 69.2056 302.492 68.9612 302.447 68.721C302.418 68.5424 302.352 68.3719 302.253 68.2202C302.163 68.0873 302.034 67.9859 301.884 67.9303C301.69 67.857 301.483 67.8241 301.277 67.8337H301.066H300.854V70.8206L301.285 70.8469Z" fill="#373737"/>
<path d="M311.383 67.7195V69.3799H311.26C311.214 69.2355 311.158 69.0945 311.093 68.9581C311.011 68.7755 310.901 68.6067 310.767 68.4574C310.615 68.2857 310.434 68.1428 310.231 68.0357C309.982 67.9131 309.707 67.8528 309.43 67.86H307.865V70.8469H308.41C308.615 70.8533 308.818 70.8174 309.008 70.7415C309.168 70.6813 309.311 70.5816 309.422 70.4516C309.539 70.3204 309.632 70.1685 309.694 70.0035C309.77 69.8098 309.829 69.6099 309.87 69.4062H309.993V72.4107H309.87C309.827 72.2265 309.774 72.0447 309.712 71.866C309.651 71.7032 309.568 71.5495 309.466 71.4092C309.36 71.2782 309.228 71.1706 309.079 71.0929C308.901 71.0146 308.709 70.9756 308.516 70.9787H307.865V74.4927H309.448C309.725 74.5001 310.001 74.4492 310.257 74.3433C310.495 74.2469 310.71 74.1034 310.89 73.9217C311.079 73.739 311.233 73.525 311.348 73.2892C311.474 73.0445 311.569 72.7847 311.629 72.5161H311.752V74.6332H305.595V74.4927H306.475V67.8864H305.595V67.7459L311.383 67.7195Z" fill="#373737"/>
<path d="M312.984 72.4987C312.984 72.5778 312.984 72.6832 313.045 72.8062C313.083 72.9439 313.13 73.0789 313.186 73.2103C313.251 73.3666 313.331 73.5166 313.424 73.6584C313.517 73.8146 313.633 73.9566 313.767 74.08C313.894 74.2106 314.039 74.323 314.198 74.4139C314.322 74.4874 314.455 74.5463 314.593 74.5896C314.711 74.6236 314.832 74.6413 314.954 74.6423H315.262C315.564 74.6603 315.867 74.6029 316.141 74.4754C316.342 74.3885 316.52 74.2562 316.66 74.0888C316.778 73.9429 316.868 73.776 316.924 73.5969C316.973 73.4524 317 73.3013 317.003 73.1488C317.012 72.9398 316.954 72.7335 316.836 72.5603C316.713 72.4005 316.557 72.2687 316.379 72.1737C316.177 72.0655 315.965 71.9772 315.746 71.9102L315.007 71.6993C314.76 71.6203 314.514 71.5324 314.277 71.4358C314.043 71.3419 313.827 71.2114 313.635 71.0492C313.445 70.887 313.292 70.6864 313.186 70.4606C313.063 70.1848 313.005 69.884 313.019 69.5821C313.018 69.3267 313.075 69.0743 313.186 68.8442C313.309 68.6041 313.476 68.3894 313.679 68.2117C313.895 68.0185 314.146 67.8666 314.417 67.7636C314.715 67.6485 315.031 67.5918 315.35 67.5967C315.539 67.5948 315.727 67.6124 315.913 67.6494L316.335 67.7724L316.66 67.8954C316.741 67.9313 316.827 67.9522 316.915 67.9569C316.972 67.977 317.034 67.977 317.091 67.9569C317.133 67.9074 317.166 67.8509 317.188 67.79H317.338V69.6261H317.214C317.135 69.4064 317.056 69.178 316.968 68.9672C316.883 68.7544 316.771 68.5536 316.634 68.3698C316.498 68.1904 316.324 68.0433 316.124 67.9394C315.881 67.8188 315.612 67.7614 315.341 67.7724C315.108 67.7682 314.876 67.8038 314.655 67.8779C314.475 67.941 314.308 68.0363 314.162 68.159C314.03 68.2637 313.922 68.3955 313.846 68.5455C313.777 68.6817 313.74 68.8321 313.74 68.9848C313.735 69.1879 313.8 69.3866 313.925 69.547C314.054 69.7018 314.213 69.8301 314.391 69.9248C314.6 70.0396 314.821 70.131 315.051 70.1971L315.816 70.443C316.08 70.5221 316.335 70.6187 316.581 70.7154C316.818 70.8124 317.04 70.9426 317.241 71.1019C317.435 71.2523 317.597 71.4406 317.716 71.6554C317.839 71.9096 317.9 72.1899 317.892 72.4724C317.892 72.7758 317.826 73.0756 317.698 73.3509C317.57 73.6344 317.384 73.8886 317.153 74.0976C316.892 74.3181 316.594 74.4907 316.273 74.6072C315.927 74.7338 315.56 74.7963 315.191 74.7916C314.99 74.7933 314.79 74.7727 314.593 74.7301L314.039 74.6159L313.582 74.493C313.488 74.4625 313.39 74.4419 313.292 74.4314C313.224 74.4272 313.157 74.4425 313.098 74.4754C313.046 74.5258 313.01 74.5897 312.993 74.6599H312.834V72.4987H312.984Z" fill="#373737"/>
<path d="M322.052 67.7195V67.86H321.173V74.4663H322.052V74.6069H318.877V74.4663H319.757V67.86H318.877V67.7195H322.052Z" fill="#373737"/>
<path d="M322.747 67.86V67.7195H324.62H325.605C325.914 67.7192 326.223 67.7398 326.529 67.781C326.854 67.8187 327.175 67.8864 327.488 67.983C327.794 68.0863 328.089 68.2218 328.367 68.3872C328.654 68.5561 328.91 68.773 329.124 69.0284C329.346 69.2894 329.521 69.5865 329.643 69.9069C329.781 70.308 329.846 70.7304 329.836 71.1544C329.847 71.5755 329.781 71.9951 329.643 72.3931C329.521 72.7135 329.346 73.0106 329.124 73.2716C328.919 73.5285 328.668 73.7459 328.385 73.9129C328.107 74.0786 327.812 74.2141 327.505 74.317C327.219 74.4123 326.925 74.48 326.626 74.519C326.355 74.5601 326.082 74.5806 325.808 74.5805H322.729V74.44H323.609V67.8337L322.747 67.86ZM325.553 74.5015C325.916 74.5074 326.278 74.4569 326.626 74.3521C326.898 74.2613 327.152 74.1214 327.373 73.9393C327.57 73.7779 327.734 73.5812 327.857 73.3594C327.975 73.1396 328.067 72.9067 328.13 72.6654C328.189 72.4292 328.228 72.1881 328.244 71.9451C328.256 71.7168 328.256 71.4881 328.244 71.2599C328.246 70.7867 328.214 70.314 328.147 69.8454C328.094 69.4625 327.962 69.0947 327.76 68.7649C327.568 68.4594 327.29 68.2178 326.96 68.0709C326.527 67.8964 326.063 67.8156 325.597 67.8337H325.254C325.169 67.8231 325.083 67.8231 324.999 67.8337V74.44C325.227 74.4839 325.394 74.5015 325.553 74.5015Z" fill="#373737"/>
<path d="M336.459 67.7195V69.3799H336.336C336.291 69.2355 336.235 69.0945 336.169 68.9581C336.09 68.7739 335.98 68.6046 335.844 68.4574C335.692 68.2857 335.51 68.1428 335.307 68.0357C335.059 67.9121 334.784 67.8517 334.507 67.86H332.968V70.8469H333.513C333.72 70.8523 333.926 70.8164 334.12 70.7415C334.276 70.6791 334.415 70.5796 334.524 70.4516C334.642 70.3204 334.735 70.1685 334.797 70.0035C334.872 69.8098 334.931 69.6099 334.973 69.4062H335.131V72.4107H335.008C334.965 72.2265 334.912 72.0447 334.85 71.866C334.789 71.7032 334.706 71.5495 334.603 71.4092C334.498 71.2782 334.366 71.1706 334.216 71.0929C334.04 71.0135 333.847 70.9744 333.654 70.9787H333.003V74.4927H334.595C334.869 74.4991 335.142 74.4482 335.395 74.3433C335.632 74.2469 335.848 74.1034 336.028 73.9217C336.217 73.739 336.371 73.525 336.486 73.2892C336.612 73.0445 336.707 72.7847 336.767 72.5161H336.89V74.6332H330.733V74.4927H331.613V67.8864H330.733V67.7459L336.459 67.7195Z" fill="#373737"/>
<path d="M339.916 67.7195L343.135 72.3228V67.86H342.256V67.7195H344.191V67.86H343.311V74.6069H343.047L338.693 68.4574V74.5102H339.573V74.6508H337.638V74.5102H338.518V67.904H337.638V67.7634L339.916 67.7195Z" fill="#373737"/>
<path d="M350.708 69.6961C350.629 69.4853 350.55 69.2568 350.445 69.0196C350.347 68.7886 350.216 68.5726 350.058 68.3784C349.886 68.1577 349.663 67.9812 349.409 67.8636C349.156 67.7459 348.877 67.6905 348.597 67.7019C348.208 67.6812 347.82 67.7727 347.48 67.9655C347.209 68.14 346.995 68.3905 346.865 68.6858C346.719 69.0388 346.63 69.4123 346.601 69.7927C346.601 70.2232 346.539 70.6712 346.539 71.1983C346.532 71.7572 346.573 72.3157 346.662 72.8675C346.713 73.2334 346.835 73.5857 347.023 73.9041C347.172 74.1504 347.398 74.3416 347.665 74.4487C347.963 74.5611 348.279 74.6149 348.597 74.6069C348.868 74.6094 349.136 74.5492 349.38 74.4312C349.614 74.3177 349.826 74.1629 350.005 73.9744C350.19 73.7793 350.344 73.5571 350.462 73.3155C350.585 73.0735 350.677 72.8166 350.735 72.5512H350.884V74.6069H350.735C350.711 74.5428 350.672 74.4855 350.62 74.44C350.554 74.4243 350.485 74.4243 350.418 74.44C350.314 74.4438 350.21 74.4616 350.11 74.4927L349.697 74.6069C349.539 74.6069 349.363 74.686 349.178 74.7211C348.984 74.7565 348.786 74.7741 348.589 74.7738C348.12 74.7769 347.656 74.6843 347.225 74.5015C346.796 74.3222 346.402 74.0661 346.064 73.7459C345.729 73.4247 345.458 73.0433 345.264 72.6215C345.066 72.1794 344.964 71.7003 344.965 71.2159C344.959 70.7017 345.073 70.1933 345.299 69.7312C345.515 69.297 345.814 68.9091 346.179 68.5892C346.516 68.275 346.91 68.0276 347.34 67.86C347.742 67.6977 348.172 67.6114 348.606 67.6053C348.798 67.6042 348.99 67.6218 349.178 67.658L349.671 67.781L350.084 67.904C350.184 67.9372 350.287 67.9579 350.392 67.9655C350.459 67.9779 350.527 67.9779 350.594 67.9655C350.622 67.945 350.645 67.9187 350.662 67.8883C350.679 67.858 350.689 67.8243 350.691 67.7898H350.849V69.7664L350.708 69.6961Z" fill="#373737"/>
<path d="M357.604 67.7195V69.3799H357.481C357.435 69.2355 357.38 69.0945 357.314 68.9581C357.232 68.7755 357.122 68.6067 356.988 68.4574C356.835 68.2878 356.653 68.1452 356.452 68.0357C356.203 67.9131 355.929 67.8528 355.652 67.86H354.112V70.8469H354.649C354.856 70.8523 355.062 70.8164 355.256 70.7415C355.415 70.6791 355.556 70.5797 355.669 70.4516C355.784 70.3182 355.876 70.1668 355.942 70.0035C356.014 69.8095 356.07 69.6096 356.109 69.4062H356.241V72.4107H356.109C356.065 72.2265 356.013 72.0447 355.951 71.866C355.893 71.7016 355.81 71.5474 355.704 71.4092C355.604 71.2767 355.474 71.1686 355.326 71.0929C355.146 71.0136 354.951 70.9746 354.754 70.9787H354.112V74.4927H355.696C355.97 74.4999 356.243 74.449 356.496 74.3433C356.735 74.2506 356.951 74.1067 357.129 73.9217C357.32 73.7394 357.478 73.5254 357.595 73.2892C357.718 73.0428 357.812 72.7835 357.877 72.5161H358V74.6332H351.843V74.4927H352.723V67.8864H351.843V67.7459L357.604 67.7195Z" fill="#373737"/>
<path d="M271.336 84.4551L269.735 88.136H268.856L267.264 84.4551H268.187L269.313 87.0906L270.448 84.4551H271.336Z" fill="#373737"/>
<path d="M274.52 88.136L273.808 87.1082H273.025V88.136H272.146V84.4551H273.738C274.731 84.4551 275.347 84.9646 275.347 85.7904C275.358 86.0395 275.29 86.2856 275.152 86.4938C275.015 86.702 274.815 86.8616 274.582 86.95L275.409 88.136H274.52ZM273.72 85.1491H273.025V86.4317H273.72C274.239 86.4317 274.503 86.1857 274.503 85.7904C274.503 85.3951 274.239 85.1491 273.72 85.1491V85.1491Z" fill="#373737"/>
<path d="M276.578 84.4548H278.25C278.51 84.4236 278.774 84.448 279.025 84.5262C279.275 84.6045 279.506 84.7348 279.702 84.9088C279.898 85.0827 280.056 85.2962 280.163 85.5352C280.271 85.7742 280.326 86.0333 280.326 86.2953C280.326 86.5574 280.271 86.8164 280.163 87.0554C280.056 87.2944 279.898 87.5079 279.702 87.6818C279.506 87.8557 279.275 87.9861 279.025 88.0644C278.774 88.1426 278.51 88.1669 278.25 88.1357H276.578V84.4548ZM278.214 87.433C278.518 87.433 278.808 87.3127 279.023 87.0985C279.237 86.8843 279.358 86.5938 279.358 86.2909C279.358 85.988 279.237 85.6975 279.023 85.4833C278.808 85.2692 278.518 85.1489 278.214 85.1489H277.432V87.433H278.214Z" fill="#373737"/>
<path d="M284.846 84.4551V88.136H284.116L282.278 85.8958V88.136H281.398V84.4551H282.111L283.94 86.6865V84.4551H284.846Z" fill="#373737"/>
<path d="M286.254 84.4551H287.133V88.136H286.254V84.4551Z" fill="#373737"/>
<path d="M289.86 86.6865L289.359 87.2048V88.136H288.479V84.4551H289.359V86.2121L290.995 84.4551H291.945L290.414 86.0979L292.032 88.136H291.039L289.86 86.6865Z" fill="#373737"/>
<path d="M294.812 86.6601C294.814 86.5302 294.854 86.4036 294.927 86.2965C295.001 86.1893 295.105 86.1062 295.225 86.0577C295.346 86.0092 295.478 85.9973 295.606 86.0238C295.733 86.0502 295.85 86.1136 295.941 86.2061C296.033 86.2986 296.094 86.416 296.119 86.5435C296.144 86.6711 296.13 86.8031 296.08 86.923C296.03 87.0429 295.946 87.1453 295.837 87.2173C295.729 87.2893 295.602 87.3278 295.472 87.3278C295.384 87.329 295.297 87.3125 295.216 87.2792C295.135 87.246 295.061 87.1967 294.999 87.1344C294.938 87.072 294.889 86.9978 294.857 86.9163C294.825 86.8348 294.81 86.7477 294.812 86.6601V86.6601Z" fill="#373737"/>
<path d="M300.257 85.1315V86.1067H301.972V86.7919H300.257V88.136H299.377V84.4551H302.165V85.1315H300.257Z" fill="#373737"/>
<path d="M305.657 88.136L304.945 87.1082H304.162V88.136H303.282V84.4551H304.874C305.859 84.4551 306.484 84.9646 306.484 85.7904C306.495 86.0395 306.426 86.2856 306.289 86.4938C306.152 86.702 305.952 86.8616 305.719 86.95L306.545 88.136H305.657ZM304.857 85.1491H304.162V86.4317H304.857C305.376 86.4317 305.639 86.1857 305.639 85.7904C305.639 85.3951 305.376 85.1491 304.857 85.1491Z" fill="#373737"/>
<path d="M307.68 86.5547V84.4902H308.56V86.5196C308.56 87.2224 308.867 87.5123 309.386 87.5123C309.905 87.5123 310.204 87.2224 310.204 86.5196V84.4902H311.084V86.5547C311.084 86.9974 310.908 87.4219 310.594 87.7349C310.281 88.048 309.856 88.2238 309.413 88.2238C308.969 88.2238 308.544 88.048 308.231 87.7349C307.918 87.4219 307.741 86.9974 307.741 86.5547H307.68Z" fill="#373737"/>
<path d="M315.174 87.0554C315.174 87.6791 314.664 88.2062 313.608 88.2062C313.075 88.2179 312.551 88.0678 312.104 87.7758L312.394 87.1344C312.755 87.3791 313.181 87.5107 313.617 87.5122C314.127 87.5122 314.33 87.3453 314.33 87.1257C314.33 86.4317 312.183 86.9061 312.183 85.5356C312.183 84.9119 312.685 84.3848 313.74 84.3848C314.188 84.376 314.63 84.4915 315.016 84.7186L314.752 85.3599C314.442 85.1778 314.091 85.0779 313.731 85.07C313.23 85.07 313.028 85.2632 313.028 85.4917C313.028 86.1769 315.174 85.6762 315.174 87.0554ZM313.309 84.1476L312.614 83.3921H313.212L313.679 83.7874L314.136 83.3921H314.734L314.039 84.1476H313.309Z" fill="#373737"/>
<path d="M317.637 86.6865L317.144 87.2048V88.136H316.264V84.4551H317.144V86.2121L318.78 84.4551H319.73L318.199 86.0979L319.818 88.136H318.815L317.637 86.6865Z" fill="#373737"/>
<path d="M322.993 87.3454H321.278L320.953 88.136H320.073L321.718 84.4551H322.597L324.251 88.136H323.371L322.993 87.3454ZM322.721 86.704L322.14 85.2897L321.551 86.704H322.721Z" fill="#373737"/>
<path d="M329.652 86.2381H330.426V87.7316C329.993 88.0431 329.472 88.2092 328.939 88.2059C328.677 88.2237 328.414 88.1875 328.166 88.0995C327.919 88.0115 327.692 87.8736 327.5 87.6945C327.308 87.5153 327.155 87.2987 327.05 87.058C326.946 86.8173 326.892 86.5577 326.892 86.2952C326.892 86.0328 326.946 85.7732 327.05 85.5325C327.155 85.2918 327.308 85.0751 327.5 84.8959C327.692 84.7168 327.919 84.5789 328.166 84.491C328.414 84.403 328.677 84.3668 328.939 84.3845C329.228 84.3724 329.517 84.4235 329.784 84.5342C330.051 84.645 330.291 84.8128 330.487 85.0258L329.942 85.5266C329.821 85.3936 329.672 85.288 329.507 85.2168C329.342 85.1457 329.163 85.1104 328.983 85.1136C328.819 85.0995 328.654 85.1195 328.498 85.1725C328.343 85.2255 328.199 85.3102 328.078 85.4213C327.957 85.5324 327.86 85.6675 327.794 85.8179C327.728 85.9684 327.694 86.1309 327.694 86.2952C327.694 86.4596 327.728 86.6221 327.794 86.7726C327.86 86.923 327.957 87.058 328.078 87.1691C328.199 87.2802 328.343 87.3649 328.498 87.4179C328.654 87.4709 328.819 87.4909 328.983 87.4768C329.216 87.48 329.445 87.4257 329.652 87.3187V86.2381Z" fill="#373737"/>
<path d="M331.516 86.291C331.495 85.8876 331.596 85.4871 331.805 85.1412C332.014 84.7954 332.322 84.52 332.689 84.3508C333.056 84.1816 333.466 84.1262 333.865 84.1919C334.264 84.2575 334.634 84.4412 334.928 84.7191C335.222 84.9971 335.425 85.3565 335.512 85.751C335.599 86.1456 335.566 86.5571 335.416 86.9325C335.267 87.3079 335.008 87.6299 334.673 87.8569C334.339 88.084 333.944 88.2056 333.539 88.2061C333.279 88.2205 333.018 88.1816 332.773 88.0918C332.528 88.002 332.304 87.8632 332.115 87.6839C331.925 87.5046 331.774 87.2886 331.672 87.0491C331.569 86.8096 331.516 86.5517 331.516 86.291V86.291ZM334.691 86.291C334.684 86.065 334.611 85.8461 334.48 85.6615C334.35 85.4769 334.167 85.3349 333.956 85.2532C333.745 85.1714 333.515 85.1536 333.294 85.2019C333.072 85.2502 332.87 85.3624 332.713 85.5247C332.555 85.687 332.449 85.892 332.407 86.1142C332.366 86.3365 332.39 86.5661 332.478 86.7743C332.567 86.9825 332.714 87.1603 332.903 87.2852C333.091 87.4102 333.313 87.4769 333.539 87.477C333.695 87.4809 333.849 87.4526 333.993 87.3939C334.137 87.3352 334.267 87.2474 334.375 87.136C334.483 87.0246 334.567 86.8919 334.622 86.7465C334.676 86.6011 334.7 86.446 334.691 86.291V86.291Z" fill="#373737"/>
<path d="M339.08 88.136L338.368 87.1082H337.585V88.136H336.706V84.4551H338.306C339.291 84.4551 339.907 84.9646 339.907 85.7904C339.917 86.0382 339.85 86.2829 339.714 86.4907C339.579 86.6985 339.382 86.8591 339.151 86.95L339.978 88.136H339.08ZM338.28 85.1491H337.585V86.4317H338.28C338.808 86.4317 339.072 86.1857 339.072 85.7904C339.072 85.3951 338.808 85.1491 338.28 85.1491Z" fill="#373737"/>
<path d="M343.566 87.3454H341.851L341.526 88.136H340.646L342.291 84.4551H343.17L344.806 88.136H343.927L343.566 87.3454ZM343.302 86.704L342.713 85.2897L342.132 86.704H343.302Z" fill="#373737"/>
<path d="M309.501 31.6661L311.022 28.8812L306.026 19.7273L284.583 59.1015H287.626L306.026 25.2882L309.501 31.6661Z" fill="#373737"/>
<path d="M314.602 22.3013L316.124 19.5077L306.044 0.997803L274.415 59.1016H277.458L306.044 6.57625L314.602 22.3013Z" fill="#373737"/>
<path d="M307.785 59.1017H310.82L317.628 46.6007L324.444 59.1017H327.479L317.619 41.031L307.785 59.1017Z" fill="#373737"/>
<path d="M317.645 22.3101V22.3188L317.637 22.3013L316.124 25.0861L316.133 25.0949L297.618 59.1015H300.652L317.645 27.8885L334.63 59.1015H337.664H337.673L317.645 22.3101Z" fill="#373737"/>
</g>
<defs>
<clipPath id="clip0_654_3">
<rect width="104" height="87.2083" fill="white" transform="translate(254 0.997803)"/>
</clipPath>
</defs>
</svg>
