<svg width="649" height="125" viewBox="0 0 649 125" fill="none" xmlns="http://www.w3.org/2000/svg">
<g style="mix-blend-mode:multiply">
<path d="M-9.05029 83.1374H-5.8722L1.25778 70.0449L8.39698 83.1374H11.5751L1.24858 64.2117L-9.05029 83.1374Z" fill="#E1E1E1"/>
<path d="M1.27621 44.6049V44.6141L1.26699 44.5957L-0.31745 47.5123L-0.308235 47.5215L-19.6992 83.1373H-16.5211L1.27621 50.4473L19.0643 83.1373H22.2424H22.2516L1.27621 44.6049Z" fill="#E1E1E1"/>
<path d="M149.545 54.4036L151.138 51.487L145.906 41.8999L123.448 83.1372H126.635L145.906 47.7239L149.545 54.4036Z" fill="#E1E1E1"/>
<path d="M154.888 44.5958L156.481 41.67L145.924 22.2842L112.799 83.1373H115.986L145.924 28.1266L154.888 44.5958Z" fill="#E1E1E1"/>
<path d="M147.748 83.1374H150.926L158.056 70.0449L165.196 83.1374H168.374L158.047 64.2117L147.748 83.1374Z" fill="#E1E1E1"/>
<path d="M158.075 44.6049V44.6141L158.066 44.5957L156.481 47.5123L156.491 47.5215L137.1 83.1373H140.278L158.075 50.4473L175.863 83.1373H179.041H179.05L158.075 44.6049Z" fill="#E1E1E1"/>
<path d="M71.1456 54.4036L72.7392 51.487L67.5069 41.8999L45.0483 83.1372H48.2356L67.5069 47.7239L71.1456 54.4036Z" fill="#E1E1E1"/>
<path d="M76.4885 44.5958L78.0821 41.67L67.5253 22.2842L34.3994 83.1373H37.5867L67.5253 28.1266L76.4885 44.5958Z" fill="#E1E1E1"/>
<path d="M69.3491 83.1374H72.5272L79.6572 70.0449L86.7964 83.1374H89.9745L79.648 64.2117L69.3491 83.1374Z" fill="#E1E1E1"/>
<path d="M79.6759 44.6049V44.6141L79.6667 44.5957L78.0822 47.5123L78.0914 47.5215L58.7004 83.1373H61.8785L79.6759 50.4473L97.464 83.1373H100.642H100.651L79.6759 44.6049Z" fill="#E1E1E1"/>
<path d="M227.944 54.4036L229.538 51.487L224.305 41.8999L201.847 83.1372H205.034L224.305 47.7239L227.944 54.4036Z" fill="#E1E1E1"/>
<path d="M233.287 44.5958L234.881 41.67L224.324 22.2842L191.198 83.1373H194.385L224.324 28.1266L233.287 44.5958Z" fill="#E1E1E1"/>
<path d="M226.148 83.1374H229.326L236.456 70.0449L243.595 83.1374H246.773L236.447 64.2117L226.148 83.1374Z" fill="#E1E1E1"/>
<path d="M236.474 44.6049V44.6141L236.465 44.5957L234.881 47.5123L234.89 47.5215L215.499 83.1373H218.677L236.474 50.4473L254.263 83.1373H257.441H257.45L236.474 44.6049Z" fill="#E1E1E1"/>
<path d="M24.5842 51.0175L22.9905 53.9342L28.2229 63.5212L50.6814 22.2839L47.4941 22.2839L28.2229 57.6972L24.5842 51.0175Z" fill="#E1E1E1"/>
<path d="M19.2413 60.8256L17.6476 63.7514L28.2044 83.1372L61.3303 22.2841L58.143 22.2841L28.2044 77.2948L19.2413 60.8256Z" fill="#E1E1E1"/>
<path d="M26.3804 22.284L23.2023 22.284L16.0723 35.3765L8.9331 22.284L5.755 22.284L16.0815 41.2097L26.3804 22.284Z" fill="#E1E1E1"/>
<path d="M16.0539 60.8165L16.0539 60.8073L16.0631 60.8257L17.6475 57.9091L17.6383 57.8999L37.0293 22.2841L33.8512 22.2841L16.0539 54.9741L-1.73424 22.2841L-4.91234 22.2841L-4.92155 22.2841L16.0539 60.8165Z" fill="#E1E1E1"/>
<path d="M181.383 51.0175L179.789 53.9342L185.021 63.5212L207.48 22.2839L204.293 22.2839L185.021 57.6972L181.383 51.0175Z" fill="#E1E1E1"/>
<path d="M176.04 60.8256L174.446 63.7514L185.003 83.1372L218.129 22.2841L214.942 22.2841L185.003 77.2948L176.04 60.8256Z" fill="#E1E1E1"/>
<path d="M183.179 22.284L180.001 22.284L172.871 35.3765L165.732 22.284L162.554 22.284L172.88 41.2097L183.179 22.284Z" fill="#E1E1E1"/>
<path d="M172.852 60.8165L172.852 60.8073L172.862 60.8257L174.446 57.9091L174.437 57.8999L193.828 22.2841L190.65 22.2841L172.852 54.9741L155.064 22.2841L151.886 22.2841L151.877 22.2841L172.852 60.8165Z" fill="#E1E1E1"/>
<path d="M102.984 51.0175L101.39 53.9342L106.622 63.5212L129.081 22.2839L125.894 22.2839L106.622 57.6972L102.984 51.0175Z" fill="#E1E1E1"/>
<path d="M97.6407 60.8256L96.047 63.7514L106.604 83.1372L139.73 22.2841L136.542 22.2841L106.604 77.2948L97.6407 60.8256Z" fill="#E1E1E1"/>
<path d="M104.78 22.284L101.602 22.284L94.472 35.3765L87.3328 22.284L84.1547 22.284L94.4812 41.2097L104.78 22.284Z" fill="#E1E1E1"/>
<path d="M94.4533 60.8165L94.4533 60.8073L94.4625 60.8257L96.0469 57.9091L96.0377 57.8999L115.429 22.2841L112.251 22.2841L94.4533 54.9741L76.6652 22.2841L73.4871 22.2841L73.4779 22.2841L94.4533 60.8165Z" fill="#E1E1E1"/>
<path d="M259.782 51.0175L258.189 53.9342L263.421 63.5212L285.879 22.2839L282.692 22.2839L263.421 57.6972L259.782 51.0175Z" fill="#E1E1E1"/>
<path d="M254.439 60.8256L252.846 63.7514L263.402 83.1372L296.528 22.2841L293.341 22.2841L263.402 77.2948L254.439 60.8256Z" fill="#E1E1E1"/>
<path d="M261.579 22.284L258.401 22.284L251.271 35.3765L244.131 22.284L240.953 22.284L251.28 41.2097L261.579 22.284Z" fill="#E1E1E1"/>
<path d="M251.252 60.8165L251.252 60.8073L251.261 60.8257L252.846 57.9091L252.836 57.8999L272.227 22.2841L269.049 22.2841L251.252 54.9741L233.464 22.2841L230.286 22.2841L230.276 22.2841L251.252 60.8165Z" fill="#E1E1E1"/>
</g>
<g style="mix-blend-mode:multiply">
<path d="M501.134 54.4036L502.728 51.487L497.495 41.8999L475.037 83.1372H478.224L497.495 47.7239L501.134 54.4036Z" fill="#E1E1E1"/>
<path d="M506.477 44.5958L508.07 41.67L497.514 22.2842L464.388 83.1373H467.575L497.514 28.1266L506.477 44.5958Z" fill="#E1E1E1"/>
<path d="M499.337 83.1374H502.515L509.645 70.0449L516.785 83.1374H519.963L509.636 64.2117L499.337 83.1374Z" fill="#E1E1E1"/>
<path d="M509.664 44.6049V44.6141L509.655 44.5957L508.07 47.5123L508.079 47.5215L488.688 83.1373H491.867L509.664 50.4473L527.452 83.1373H530.63H530.639L509.664 44.6049Z" fill="#E1E1E1"/>
<path d="M422.734 54.4036L424.328 51.487L419.096 41.8999L396.637 83.1372H399.825L419.096 47.7239L422.734 54.4036Z" fill="#E1E1E1"/>
<path d="M428.077 44.5958L429.671 41.67L419.114 22.2842L385.988 83.1373H389.176L419.114 28.1266L428.077 44.5958Z" fill="#E1E1E1"/>
<path d="M420.938 83.1374H424.116L431.246 70.0449L438.385 83.1374H441.563L431.237 64.2117L420.938 83.1374Z" fill="#E1E1E1"/>
<path d="M431.264 44.6049V44.6141L431.255 44.5957L429.671 47.5123L429.68 47.5215L410.289 83.1373H413.467L431.264 50.4473L449.053 83.1373H452.231H452.24L431.264 44.6049Z" fill="#E1E1E1"/>
<path d="M579.533 54.4036L581.126 51.487L575.894 41.8999L553.436 83.1372H556.623L575.894 47.7239L579.533 54.4036Z" fill="#E1E1E1"/>
<path d="M584.876 44.5958L586.469 41.67L575.913 22.2842L542.787 83.1373H545.974L575.913 28.1266L584.876 44.5958Z" fill="#E1E1E1"/>
<path d="M577.736 83.1374H580.914L588.044 70.0449L595.184 83.1374H598.362L588.035 64.2117L577.736 83.1374Z" fill="#E1E1E1"/>
<path d="M588.063 44.6049V44.6141L588.054 44.5957L586.469 47.5123L586.478 47.5215L567.087 83.1373H570.265L588.063 50.4473L605.851 83.1373H609.029H609.038L588.063 44.6049Z" fill="#E1E1E1"/>
<path d="M376.173 51.0175L374.58 53.9342L379.812 63.5212L402.271 22.2839L399.083 22.2839L379.812 57.6972L376.173 51.0175Z" fill="#E1E1E1"/>
<path d="M370.83 60.8256L369.237 63.7514L379.794 83.1372L412.919 22.2841L409.732 22.2841L379.794 77.2948L370.83 60.8256Z" fill="#E1E1E1"/>
<path d="M377.97 22.284L374.792 22.284L367.662 35.3765L360.522 22.284L357.344 22.284L367.671 41.2097L377.97 22.284Z" fill="#E1E1E1"/>
<path d="M367.643 60.8165L367.643 60.8073L367.652 60.8257L369.237 57.9091L369.227 57.8999L388.618 22.2841L385.44 22.2841L367.643 54.9741L349.855 22.2841L346.677 22.2841L346.668 22.2841L367.643 60.8165Z" fill="#E1E1E1"/>
<path d="M532.972 51.0175L531.378 53.9342L536.61 63.5212L559.069 22.2839L555.882 22.2839L536.61 57.6972L532.972 51.0175Z" fill="#E1E1E1"/>
<path d="M527.629 60.8256L526.035 63.7514L536.592 83.1372L569.718 22.2841L566.53 22.2841L536.592 77.2948L527.629 60.8256Z" fill="#E1E1E1"/>
<path d="M534.768 22.284L531.59 22.284L524.46 35.3765L517.321 22.284L514.143 22.284L524.469 41.2097L534.768 22.284Z" fill="#E1E1E1"/>
<path d="M524.442 60.8165L524.442 60.8073L524.451 60.8257L526.035 57.9091L526.026 57.8999L545.417 22.2841L542.239 22.2841L524.442 54.9741L506.653 22.2841L503.475 22.2841L503.466 22.2841L524.442 60.8165Z" fill="#E1E1E1"/>
<path d="M454.572 51.0175L452.979 53.9342L458.211 63.5212L480.669 22.2839L477.482 22.2839L458.211 57.6972L454.572 51.0175Z" fill="#E1E1E1"/>
<path d="M449.229 60.8256L447.636 63.7514L458.192 83.1372L491.318 22.2841L488.131 22.2841L458.192 77.2948L449.229 60.8256Z" fill="#E1E1E1"/>
<path d="M456.369 22.284L453.191 22.284L446.061 35.3765L438.921 22.284L435.743 22.284L446.07 41.2097L456.369 22.284Z" fill="#E1E1E1"/>
<path d="M446.042 60.8165L446.042 60.8073L446.051 60.8257L447.636 57.9091L447.627 57.8999L467.018 22.2841L463.839 22.2841L446.042 54.9741L428.254 22.2841L425.076 22.2841L425.067 22.2841L446.042 60.8165Z" fill="#E1E1E1"/>
<path d="M611.371 51.0175L609.777 53.9342L615.01 63.5212L637.468 22.2839L634.281 22.2839L615.01 57.6972L611.371 51.0175Z" fill="#E1E1E1"/>
<path d="M606.028 60.8256L604.434 63.7514L614.991 83.1372L648.117 22.2841L644.93 22.2841L614.991 77.2948L606.028 60.8256Z" fill="#E1E1E1"/>
<path d="M613.167 22.284L609.989 22.284L602.859 35.3765L595.72 22.284L592.542 22.284L602.869 41.2097L613.167 22.284Z" fill="#E1E1E1"/>
<path d="M602.841 60.8165L602.841 60.8073L602.85 60.8257L604.435 57.9091L604.425 57.8999L623.816 22.2841L620.638 22.2841L602.841 54.9741L585.053 22.2841L581.875 22.2841L581.866 22.2841L602.841 60.8165Z" fill="#E1E1E1"/>
</g>
<g clip-path="url(#clip0_789_2)">
<path d="M372.123 111.916H269.793V112.267H372.123V111.916Z" fill="#373737"/>
<path d="M246.735 95.364V95.1636H254.889V97.5317H254.714C254.602 97.2176 254.459 96.9153 254.287 96.6295C254.146 96.3789 253.969 96.1509 253.76 95.953C253.554 95.7595 253.311 95.6103 253.045 95.5144C252.739 95.4077 252.416 95.3567 252.092 95.364H250.009V99.7996H250.8C251.096 99.8097 251.39 99.7585 251.665 99.6492C251.891 99.5651 252.094 99.4276 252.255 99.2483C252.417 99.0521 252.548 98.8323 252.644 98.5967C252.748 98.319 252.831 98.0343 252.895 97.7447H253.07V101.98H252.895C252.819 101.717 252.744 101.454 252.656 101.215C252.578 100.976 252.459 100.751 252.305 100.551C252.165 100.363 251.979 100.212 251.766 100.113C251.516 99.9908 251.241 99.9307 250.963 99.9374H250.034V104.736H251.289V104.937H246.735V104.736H247.99V95.3139L246.735 95.364Z" fill="#373737"/>
<path d="M256.156 95.364V95.1636H259.393H260.535C260.918 95.1657 261.3 95.2035 261.676 95.2764C262.057 95.3449 262.425 95.4716 262.768 95.6523C263.094 95.8302 263.377 96.0785 263.596 96.379C263.821 96.7158 263.935 97.1144 263.922 97.5192C263.93 97.8539 263.843 98.1842 263.671 98.4714C263.511 98.7317 263.292 98.9507 263.031 99.1105C262.758 99.2781 262.463 99.4048 262.153 99.4863C261.841 99.5739 261.522 99.6326 261.2 99.6618C261.651 99.7495 262.053 99.8246 262.454 99.9123C262.778 99.9869 263.087 100.114 263.37 100.288C263.637 100.455 263.85 100.694 263.985 100.977C264.157 101.347 264.255 101.748 264.273 102.155C264.273 102.732 264.348 103.208 264.386 103.546C264.4 103.82 264.437 104.093 264.499 104.36C264.525 104.507 264.595 104.643 264.7 104.749C264.817 104.819 264.952 104.853 265.089 104.849C265.171 104.853 265.253 104.84 265.331 104.812C265.408 104.785 265.479 104.742 265.54 104.686C265.648 104.625 265.753 104.558 265.854 104.486L265.992 104.598C265.91 104.692 265.822 104.78 265.728 104.862C265.635 104.938 265.534 105.006 265.427 105.062C265.291 105.122 265.148 105.164 265.001 105.187C264.796 105.209 264.59 105.209 264.386 105.187C263.954 105.222 263.521 105.139 263.131 104.949C262.868 104.81 262.647 104.602 262.492 104.348C262.358 104.108 262.273 103.844 262.241 103.571C262.241 103.283 262.241 103.02 262.178 102.769C262.115 102.519 262.178 102.03 262.103 101.679C262.078 101.356 262.002 101.039 261.877 100.739C261.762 100.472 261.576 100.242 261.338 100.075C261.035 99.8936 260.686 99.8064 260.334 99.8247H259.418V104.837H260.673V105.037H256.131V104.837H257.386V95.4142L256.156 95.364ZM259.995 99.6242C260.329 99.6354 260.662 99.5801 260.974 99.4613C261.193 99.3654 261.38 99.2089 261.513 99.0102C261.64 98.8191 261.718 98.5995 261.739 98.3712C261.758 98.1251 261.758 97.878 261.739 97.632C261.743 97.2838 261.718 96.9359 261.664 96.592C261.617 96.3389 261.523 96.0967 261.388 95.8778C261.252 95.69 261.065 95.5462 260.848 95.4643C260.576 95.3607 260.286 95.3138 259.995 95.3265H259.682H259.381V99.5866L259.995 99.6242Z" fill="#373737"/>
<path d="M270.633 95.1635V95.364H269.379V101.554C269.379 101.98 269.379 102.406 269.442 102.807C269.473 103.188 269.571 103.561 269.73 103.909C269.881 104.225 270.115 104.494 270.408 104.686C270.785 104.913 271.223 105.018 271.662 104.987C272.087 104.996 272.51 104.937 272.917 104.811C273.22 104.718 273.502 104.565 273.745 104.36C273.96 104.187 274.136 103.969 274.259 103.721C274.379 103.501 274.468 103.265 274.522 103.02C274.572 102.801 274.606 102.579 274.623 102.356C274.623 102.155 274.623 101.98 274.623 101.842V95.364H273.368V95.1635H276.128V95.364H274.874V101.829C274.874 101.98 274.874 102.155 274.874 102.381C274.869 102.622 274.836 102.862 274.773 103.095C274.702 103.352 274.601 103.6 274.472 103.834C274.335 104.098 274.143 104.329 273.908 104.511C273.625 104.724 273.306 104.885 272.967 104.987C272.515 105.123 272.045 105.186 271.574 105.175C270.847 105.2 270.121 105.098 269.429 104.874C268.953 104.728 268.522 104.465 268.175 104.11C267.89 103.805 267.695 103.428 267.61 103.02C267.511 102.61 267.465 102.189 267.472 101.767V95.3264H266.218V95.126L270.633 95.1635Z" fill="#373737"/>
<path d="M277.458 101.98C277.458 102.093 277.458 102.243 277.546 102.418C277.6 102.615 277.667 102.807 277.747 102.995C277.84 103.218 277.953 103.432 278.085 103.634C278.219 103.857 278.383 104.059 278.575 104.235C278.756 104.422 278.963 104.582 279.189 104.711C279.367 104.816 279.557 104.9 279.754 104.962C279.921 105.011 280.094 105.036 280.268 105.037H280.707C281.139 105.063 281.57 104.981 281.962 104.799C282.248 104.675 282.501 104.486 282.702 104.248C282.87 104.04 282.998 103.802 283.078 103.546C283.148 103.34 283.186 103.125 283.191 102.907C283.204 102.609 283.12 102.315 282.953 102.068C282.779 101.843 282.561 101.655 282.313 101.516C282.019 101.364 281.713 101.238 281.397 101.14L280.343 100.84C279.992 100.727 279.641 100.602 279.302 100.464C278.969 100.33 278.66 100.144 278.386 99.9124C278.116 99.6811 277.898 99.395 277.747 99.073C277.571 98.6795 277.489 98.2505 277.508 97.82C277.505 97.454 277.591 97.0927 277.759 96.7675C277.925 96.4228 278.16 96.1157 278.449 95.8654C278.758 95.5898 279.115 95.3732 279.503 95.2263C279.927 95.0621 280.378 94.9812 280.833 94.9883C281.102 94.9855 281.371 95.0107 281.635 95.0634L282.238 95.2389L282.702 95.4143C282.817 95.4642 282.94 95.4939 283.066 95.502C283.147 95.5307 283.235 95.5307 283.317 95.502C283.376 95.4313 283.423 95.3508 283.455 95.264H283.68V97.8826H283.417C283.304 97.5694 283.191 97.2436 283.066 96.9429C282.95 96.637 282.789 96.3499 282.589 96.0909C282.395 95.8349 282.146 95.6253 281.861 95.4769C281.515 95.3049 281.131 95.2231 280.745 95.2389C280.412 95.2328 280.081 95.2837 279.766 95.3892C279.51 95.4793 279.272 95.6151 279.064 95.7902C278.875 95.9396 278.721 96.1276 278.612 96.3415C278.514 96.5357 278.462 96.7503 278.462 96.968C278.454 97.2577 278.547 97.5411 278.725 97.7699C278.91 97.9907 279.136 98.1736 279.39 98.3087C279.688 98.4725 280.004 98.6028 280.331 98.6971L281.422 99.0479C281.799 99.1607 282.162 99.2985 282.514 99.4363C282.852 99.5747 283.169 99.7603 283.455 99.9876C283.732 100.202 283.962 100.471 284.132 100.777C284.308 101.14 284.394 101.539 284.383 101.942C284.383 102.375 284.289 102.803 284.107 103.195C283.923 103.6 283.659 103.962 283.329 104.26C282.957 104.575 282.533 104.821 282.075 104.987C281.58 105.168 281.058 105.257 280.532 105.25C280.245 105.253 279.959 105.223 279.678 105.162L278.888 105L278.248 104.824C278.11 104.78 277.967 104.751 277.822 104.736C277.726 104.73 277.63 104.752 277.546 104.799C277.472 104.871 277.42 104.962 277.395 105.062H277.169V101.98H277.458ZM280.343 94.5372L278.85 91.8308H279.014L280.845 93.5724L282.689 91.8308H282.852L281.347 94.5372H280.343Z" fill="#373737"/>
<path d="M290.442 95.1636V95.364H289.187V99.7745H289.288L293.516 95.364H292.123V95.1636H294.883V95.364H293.779L290.705 98.5842L295.473 104.849H296.326V105.05H291.722V104.849H292.976L289.3 100.025H289.2V104.849H290.455V105.05H285.926V104.849H287.18V95.4267H285.926V95.2262L290.442 95.1636Z" fill="#373737"/>
<path d="M304.819 95.1636V97.5317H304.643C304.578 97.3258 304.499 97.1248 304.405 96.9302C304.288 96.6698 304.131 96.429 303.941 96.2161C303.721 95.9741 303.462 95.7708 303.175 95.6146C302.821 95.4397 302.429 95.3537 302.034 95.364H299.838V99.6242H300.616C300.908 99.6332 301.198 99.582 301.469 99.4738C301.698 99.388 301.9 99.2457 302.059 99.0603C302.223 98.87 302.354 98.6541 302.448 98.4213C302.55 98.143 302.633 97.8584 302.699 97.5693H302.874V101.854H302.699C302.623 101.591 302.548 101.328 302.46 101.078C302.384 100.841 302.265 100.62 302.109 100.426C301.965 100.237 301.781 100.083 301.57 99.975C301.317 99.8633 301.043 99.8077 300.767 99.8121H299.838V104.824H302.097C302.492 104.835 302.885 104.762 303.251 104.611C303.589 104.473 303.897 104.269 304.154 104.01C304.422 103.749 304.643 103.444 304.806 103.107C304.981 102.756 305.116 102.386 305.208 102.005H305.383V105.024H296.602V104.824H297.856V95.4016H296.602V95.2012L304.819 95.1636Z" fill="#373737"/>
<path d="M310.338 95.364V95.1636H313.525H314.679C315.058 95.1657 315.436 95.2034 315.808 95.2764C316.193 95.3464 316.565 95.4731 316.912 95.6523C317.234 95.8317 317.512 96.0799 317.728 96.379C317.958 96.7132 318.073 97.1137 318.054 97.5192C318.068 97.8546 317.981 98.1865 317.803 98.4714C317.643 98.7317 317.424 98.9507 317.163 99.1105C316.89 99.2781 316.594 99.4048 316.285 99.4863C315.977 99.5738 315.662 99.6326 315.344 99.6618C315.783 99.7495 316.197 99.8246 316.598 99.9123C316.921 99.9892 317.23 100.116 317.514 100.288C317.778 100.458 317.99 100.696 318.129 100.977C318.297 101.348 318.39 101.748 318.405 102.155C318.405 102.732 318.493 103.208 318.518 103.546C318.535 103.821 318.577 104.093 318.643 104.36C318.663 104.509 318.734 104.646 318.844 104.749C318.956 104.821 319.088 104.855 319.22 104.849C319.39 104.857 319.557 104.799 319.685 104.686L319.998 104.398L320.136 104.511C320.051 104.605 319.958 104.693 319.86 104.774C319.767 104.851 319.666 104.918 319.559 104.974C319.427 105.034 319.288 105.077 319.145 105.1C318.937 105.121 318.726 105.121 318.518 105.1C318.111 105.123 317.705 105.041 317.339 104.862C317.075 104.722 316.854 104.515 316.699 104.26C316.56 104.023 316.474 103.757 316.448 103.483C316.41 103.218 316.389 102.95 316.385 102.681C316.385 102.318 316.385 101.942 316.31 101.591C316.256 101.292 316.164 101.002 316.034 100.727C315.919 100.46 315.733 100.23 315.495 100.063C315.189 99.8794 314.835 99.7921 314.478 99.8121H313.575V104.824H314.83V105.024H310.288V104.824H311.543V95.4016L310.338 95.364ZM314.177 99.6242C314.511 99.6354 314.844 99.5801 315.156 99.4613C315.375 99.3654 315.562 99.2089 315.695 99.0102C315.811 98.8138 315.888 98.5967 315.921 98.3712C315.94 98.1251 315.94 97.878 315.921 97.632C315.928 97.2832 315.899 96.9346 315.833 96.592C315.792 96.3373 315.698 96.0941 315.557 95.8778C315.429 95.6882 315.245 95.5435 315.03 95.4643C314.754 95.3597 314.46 95.3128 314.165 95.3265H313.864H313.563V99.5866L314.177 99.6242Z" fill="#373737"/>
<path d="M328.579 95.1636V97.5317H328.403C328.338 97.3258 328.259 97.1248 328.165 96.9302C328.048 96.6698 327.891 96.429 327.701 96.2161C327.484 95.9711 327.225 95.7673 326.936 95.6146C326.581 95.4397 326.189 95.3537 325.794 95.364H323.561V99.6242H324.339C324.631 99.6332 324.921 99.582 325.192 99.4738C325.42 99.388 325.623 99.2457 325.782 99.0603C325.95 98.8732 326.082 98.6565 326.17 98.4213C326.278 98.1449 326.362 97.8599 326.421 97.5693H326.597V101.854H326.421C326.359 101.592 326.284 101.333 326.196 101.078C326.109 100.845 325.991 100.626 325.844 100.426C325.693 100.239 325.505 100.086 325.292 99.975C325.04 99.8633 324.766 99.8077 324.489 99.8121H323.561V104.824H325.819C326.215 104.835 326.608 104.762 326.973 104.611C327.312 104.473 327.619 104.269 327.877 104.01C328.145 103.749 328.366 103.444 328.529 103.107C328.709 102.758 328.844 102.388 328.93 102.005H329.106V105.024H320.324V104.824H321.579V95.4016H320.324V95.2012L328.579 95.1636Z" fill="#373737"/>
<path d="M330.862 101.98C330.862 102.093 330.862 102.243 330.95 102.418C331.004 102.615 331.071 102.807 331.151 102.995C331.244 103.218 331.357 103.432 331.489 103.634C331.623 103.857 331.788 104.059 331.979 104.235C332.161 104.421 332.368 104.582 332.593 104.711C332.771 104.816 332.961 104.9 333.158 104.962C333.325 105.01 333.498 105.036 333.672 105.037H334.111C334.543 105.063 334.974 104.981 335.366 104.799C335.652 104.675 335.906 104.486 336.106 104.248C336.275 104.04 336.402 103.801 336.482 103.546C336.552 103.34 336.59 103.124 336.595 102.907C336.608 102.609 336.525 102.315 336.357 102.068C336.181 101.84 335.959 101.652 335.705 101.516C335.416 101.362 335.114 101.236 334.801 101.14L333.748 100.84C333.396 100.727 333.045 100.602 332.706 100.464C332.374 100.33 332.064 100.144 331.791 99.9124C331.52 99.6811 331.302 99.3949 331.151 99.0729C330.975 98.6795 330.893 98.2504 330.912 97.8199C330.911 97.4556 330.992 97.0956 331.151 96.7675C331.326 96.425 331.564 96.1188 331.853 95.8653C332.162 95.5897 332.52 95.3731 332.907 95.2263C333.331 95.062 333.782 94.9812 334.237 94.9882C334.506 94.9854 334.775 95.0106 335.04 95.0634L335.642 95.2388L336.106 95.4143C336.221 95.4655 336.344 95.4952 336.47 95.502C336.551 95.5306 336.64 95.5306 336.721 95.502C336.78 95.4313 336.827 95.3507 336.859 95.2639H337.072V97.8826H336.896C336.783 97.5693 336.671 97.2436 336.545 96.9429C336.424 96.6394 336.264 96.3529 336.068 96.0908C335.874 95.8349 335.626 95.6252 335.341 95.4769C334.995 95.3049 334.611 95.223 334.224 95.2388C333.892 95.2328 333.561 95.2836 333.246 95.3892C332.989 95.4792 332.751 95.6151 332.543 95.7901C332.355 95.9395 332.201 96.1275 332.092 96.3414C331.993 96.5356 331.941 96.7502 331.941 96.9679C331.933 97.2576 332.027 97.541 332.205 97.7699C332.389 97.9906 332.615 98.1735 332.869 98.3086C333.168 98.4724 333.483 98.6027 333.81 98.697L334.902 99.0478C335.278 99.1606 335.642 99.2984 335.993 99.4363C336.331 99.5747 336.648 99.7603 336.934 99.9876C337.211 100.202 337.442 100.471 337.611 100.777C337.788 101.14 337.874 101.539 337.862 101.942C337.863 102.375 337.769 102.803 337.586 103.195C337.403 103.6 337.138 103.962 336.809 104.26C336.437 104.575 336.012 104.821 335.554 104.987C335.06 105.168 334.537 105.257 334.011 105.25C333.724 105.253 333.438 105.223 333.158 105.162L332.368 104.999L331.715 104.824C331.581 104.781 331.442 104.751 331.301 104.736C331.205 104.73 331.109 104.752 331.025 104.799C330.951 104.871 330.899 104.962 330.875 105.062H330.649V101.98H330.862Z" fill="#373737"/>
<path d="M343.796 95.1636V95.364H342.542V104.786H343.796V104.987H339.267V104.786H340.522V95.364H339.267V95.1636H343.796Z" fill="#373737"/>
<path d="M344.787 95.364V95.1636H347.459H348.864C349.305 95.1632 349.745 95.1926 350.181 95.2513C350.645 95.3051 351.103 95.4016 351.549 95.5395C351.986 95.6868 352.407 95.88 352.803 96.1159C353.213 96.3568 353.578 96.6662 353.882 97.0305C354.199 97.4027 354.449 97.8265 354.622 98.2835C354.819 98.8555 354.913 99.458 354.898 100.063C354.913 100.663 354.82 101.262 354.622 101.829C354.449 102.286 354.199 102.71 353.882 103.082C353.59 103.449 353.233 103.759 352.828 103.997C352.432 104.233 352.012 104.427 351.574 104.573C351.166 104.709 350.746 104.806 350.319 104.862C349.933 104.92 349.543 104.949 349.153 104.949H344.762V104.749H346.016V95.3265L344.787 95.364ZM348.789 104.837C349.307 104.845 349.823 104.773 350.319 104.624C350.708 104.494 351.069 104.294 351.386 104.035C351.665 103.805 351.9 103.524 352.076 103.208C352.244 102.894 352.374 102.562 352.465 102.218C352.55 101.881 352.604 101.537 352.628 101.19C352.645 100.865 352.645 100.539 352.628 100.213C352.63 99.5382 352.584 98.864 352.49 98.1958C352.414 97.6496 352.226 97.125 351.938 96.6546C351.664 96.2189 351.267 95.8744 350.796 95.6648C350.179 95.416 349.516 95.3006 348.852 95.3265H348.362C348.242 95.3114 348.119 95.3114 347.999 95.3265V104.749C348.325 104.812 348.563 104.837 348.789 104.837Z" fill="#373737"/>
<path d="M364.345 95.1636V97.5317H364.169C364.104 97.3258 364.025 97.1248 363.931 96.9302C363.818 96.6675 363.661 96.426 363.467 96.2161C363.25 95.9711 362.991 95.7673 362.701 95.6146C362.347 95.4383 361.955 95.3521 361.56 95.364H359.364V99.6242H360.142C360.438 99.6318 360.732 99.5807 361.008 99.4738C361.231 99.3848 361.429 99.2429 361.585 99.0603C361.753 98.8732 361.885 98.6565 361.974 98.4213C362.081 98.1449 362.165 97.8599 362.225 97.5693H362.45V101.854H362.275C362.213 101.592 362.138 101.333 362.049 101.078C361.962 100.845 361.844 100.626 361.698 100.426C361.547 100.239 361.359 100.086 361.146 99.975C360.894 99.8617 360.619 99.806 360.343 99.8121H359.415V104.824H361.685C362.076 104.833 362.465 104.761 362.827 104.611C363.165 104.473 363.473 104.269 363.73 104.01C363.998 103.749 364.219 103.444 364.382 103.107C364.563 102.758 364.697 102.388 364.784 102.005H364.96V105.024H356.178V104.824H357.432V95.4016H356.178V95.2012L364.345 95.1636Z" fill="#373737"/>
<path d="M369.275 95.1636L373.867 101.729V95.364H372.612V95.1636H375.372V95.364H374.117V104.987H373.741L367.531 96.2161V104.849H368.786V105.05H366.026V104.849H367.28V95.4267H366.026V95.2262L369.275 95.1636Z" fill="#373737"/>
<path d="M384.668 97.9829C384.555 97.6822 384.442 97.3564 384.291 97.0181C384.152 96.6885 383.966 96.3805 383.74 96.1034C383.494 95.7887 383.177 95.537 382.815 95.3692C382.453 95.2014 382.056 95.1223 381.657 95.1386C381.101 95.1091 380.548 95.2396 380.064 95.5146C379.676 95.7635 379.371 96.1208 379.186 96.5419C378.978 97.0453 378.851 97.5781 378.809 98.1207C378.809 98.7347 378.721 99.3737 378.721 100.126C378.711 100.923 378.769 101.719 378.897 102.506C378.969 103.028 379.144 103.531 379.411 103.985C379.624 104.336 379.946 104.609 380.327 104.761C380.752 104.922 381.203 104.998 381.657 104.987C382.044 104.991 382.426 104.905 382.774 104.736C383.107 104.575 383.409 104.354 383.664 104.085C383.928 103.807 384.148 103.49 384.317 103.145C384.493 102.8 384.623 102.434 384.705 102.055H384.919V104.987H384.705C384.671 104.896 384.615 104.814 384.542 104.749C384.448 104.727 384.349 104.727 384.254 104.749C384.105 104.754 383.957 104.78 383.815 104.824L383.225 104.987C382.999 104.987 382.748 105.1 382.485 105.15C382.208 105.2 381.926 105.226 381.644 105.225C380.977 105.23 380.315 105.097 379.7 104.837C379.087 104.581 378.526 104.216 378.044 103.759C377.566 103.301 377.179 102.757 376.902 102.155C376.62 101.525 376.474 100.841 376.476 100.151C376.467 99.4172 376.63 98.692 376.953 98.033C377.261 97.4137 377.687 96.8604 378.207 96.4041C378.688 95.9561 379.25 95.6032 379.863 95.3641C380.438 95.1327 381.05 95.0095 381.67 95.0008C381.943 94.9992 382.216 95.0244 382.485 95.076L383.188 95.2514L383.777 95.4268C383.919 95.4743 384.067 95.5038 384.216 95.5146C384.312 95.5322 384.409 95.5322 384.505 95.5146C384.545 95.4854 384.578 95.4478 384.602 95.4045C384.625 95.3612 384.639 95.3133 384.643 95.264H384.869V98.0832L384.668 97.9829Z" fill="#373737"/>
<path d="M394.503 95.1636V97.5317H394.327C394.263 97.3258 394.183 97.1248 394.089 96.9302C393.972 96.6698 393.815 96.429 393.625 96.2161C393.406 95.9741 393.147 95.7708 392.86 95.6146C392.505 95.4397 392.113 95.3537 391.718 95.364H389.523V99.6242H390.288C390.584 99.6318 390.878 99.5807 391.154 99.4738C391.38 99.3848 391.582 99.243 391.743 99.0603C391.907 98.87 392.038 98.6541 392.132 98.4213C392.235 98.1445 392.315 97.8595 392.37 97.5693H392.559V101.854H392.37C392.309 101.592 392.233 101.333 392.145 101.078C392.063 100.843 391.944 100.623 391.793 100.426C391.65 100.237 391.465 100.083 391.254 99.975C390.997 99.8619 390.719 99.8063 390.439 99.8121H389.523V104.824H391.781C392.172 104.834 392.561 104.762 392.922 104.611C393.264 104.479 393.572 104.273 393.826 104.01C394.098 103.75 394.323 103.444 394.491 103.107C394.665 102.756 394.8 102.386 394.892 102.005H395.068V105.024H386.286V104.824H387.541V95.4016H386.286V95.2012L394.503 95.1636Z" fill="#373737"/>
<path d="M271.461 119.033L269.178 124.283H267.924L265.653 119.033H266.97L268.576 122.792L270.194 119.033H271.461Z" fill="#373737"/>
<path d="M276.003 124.283L274.986 122.817H273.87V124.283H272.615V119.033H274.886C276.304 119.033 277.182 119.76 277.182 120.938C277.197 121.293 277.1 121.644 276.904 121.941C276.708 122.238 276.423 122.465 276.09 122.591L277.27 124.283H276.003ZM274.861 120.023H273.87V121.852H274.861C275.601 121.852 275.978 121.501 275.978 120.938C275.978 120.374 275.601 120.023 274.861 120.023Z" fill="#373737"/>
<path d="M278.938 119.033H281.322C281.693 118.988 282.07 119.023 282.427 119.135C282.784 119.246 283.114 119.432 283.394 119.68C283.674 119.928 283.898 120.233 284.051 120.574C284.205 120.915 284.284 121.284 284.284 121.658C284.284 122.031 284.205 122.401 284.051 122.742C283.898 123.083 283.674 123.387 283.394 123.635C283.114 123.883 282.784 124.069 282.427 124.181C282.07 124.293 281.693 124.327 281.322 124.283H278.938V119.033ZM281.272 123.28C281.704 123.28 282.119 123.109 282.425 122.803C282.731 122.498 282.902 122.083 282.902 121.651C282.902 121.219 282.731 120.805 282.425 120.5C282.119 120.194 281.704 120.023 281.272 120.023H280.155V123.28H281.272Z" fill="#373737"/>
<path d="M290.731 119.033V124.283H289.689L287.067 121.088V124.283H285.813V119.033H286.829L289.438 122.216V119.033H290.731Z" fill="#373737"/>
<path d="M292.738 119.033H293.992V124.283H292.738V119.033Z" fill="#373737"/>
<path d="M297.881 122.216L297.166 122.955V124.283H295.912V119.033H297.166V121.539L299.5 119.033H300.854L298.672 121.376L300.98 124.283H299.562L297.881 122.216Z" fill="#373737"/>
<path d="M304.944 122.178C304.947 121.993 305.004 121.812 305.109 121.659C305.214 121.506 305.361 121.388 305.534 121.319C305.706 121.25 305.895 121.233 306.076 121.27C306.258 121.308 306.424 121.399 306.555 121.53C306.685 121.662 306.773 121.83 306.809 122.012C306.844 122.194 306.825 122.382 306.753 122.553C306.681 122.724 306.561 122.87 306.406 122.973C306.252 123.075 306.071 123.13 305.885 123.13C305.76 123.132 305.636 123.108 305.52 123.061C305.404 123.014 305.299 122.943 305.211 122.854C305.124 122.765 305.055 122.66 305.009 122.543C304.963 122.427 304.941 122.303 304.944 122.178Z" fill="#373737"/>
<path d="M312.71 119.998V121.389H315.156V122.366H312.71V124.283H311.455V119.033H315.432V119.998H312.71Z" fill="#373737"/>
<path d="M320.412 124.283L319.396 122.817H318.279V124.283H317.025V119.033H319.296C320.701 119.033 321.591 119.76 321.591 120.938C321.606 121.293 321.509 121.644 321.313 121.941C321.117 122.238 320.833 122.465 320.5 122.591L321.679 124.283H320.412ZM319.27 120.023H318.279V121.852H319.27C320.011 121.852 320.387 121.501 320.387 120.938C320.387 120.374 320.011 120.023 319.27 120.023Z" fill="#373737"/>
<path d="M323.298 122.027V119.083H324.552V121.977C324.552 122.98 324.991 123.393 325.731 123.393C326.472 123.393 326.898 122.98 326.898 121.977V119.083H328.153V122.027C328.153 122.659 327.901 123.264 327.454 123.711C327.007 124.157 326.401 124.408 325.769 124.408C325.137 124.408 324.531 124.157 324.084 123.711C323.637 123.264 323.385 122.659 323.385 122.027H323.298Z" fill="#373737"/>
<path d="M333.986 122.741C333.986 123.631 333.258 124.383 331.753 124.383C330.992 124.4 330.244 124.186 329.608 123.769L330.022 122.854C330.536 123.203 331.143 123.391 331.765 123.393C332.493 123.393 332.782 123.155 332.782 122.842C332.782 121.852 329.721 122.529 329.721 120.574C329.721 119.684 330.436 118.932 331.941 118.932C332.58 118.92 333.21 119.085 333.76 119.409L333.384 120.323C332.942 120.063 332.441 119.921 331.929 119.91C331.213 119.91 330.925 120.185 330.925 120.511C330.925 121.488 333.986 120.774 333.986 122.741ZM331.326 118.594L330.335 117.517H331.188L331.853 118.08L332.506 117.517H333.359L332.368 118.594H331.326Z" fill="#373737"/>
<path d="M337.499 122.216L336.796 122.955V124.283H335.542V119.033H336.796V121.539L339.129 119.033H340.484L338.301 121.376L340.61 124.283H339.18L337.499 122.216Z" fill="#373737"/>
<path d="M345.138 123.155H342.692L342.228 124.283H340.973L343.319 119.033H344.574L346.932 124.283H345.678L345.138 123.155ZM344.749 122.241L343.921 120.223L343.081 122.241H344.749Z" fill="#373737"/>
<path d="M354.635 121.576H355.739V123.706C355.122 124.151 354.38 124.388 353.619 124.383C353.245 124.408 352.87 124.357 352.517 124.231C352.164 124.106 351.84 123.909 351.567 123.653C351.293 123.398 351.074 123.089 350.925 122.746C350.776 122.402 350.699 122.032 350.699 121.658C350.699 121.283 350.776 120.913 350.925 120.57C351.074 120.227 351.293 119.917 351.567 119.662C351.84 119.406 352.164 119.21 352.517 119.084C352.87 118.959 353.245 118.907 353.619 118.933C354.031 118.915 354.443 118.988 354.824 119.146C355.205 119.304 355.548 119.543 355.827 119.847L355.049 120.561C354.876 120.372 354.665 120.221 354.429 120.12C354.193 120.018 353.938 119.968 353.682 119.972C353.448 119.952 353.212 119.981 352.99 120.056C352.768 120.132 352.564 120.253 352.391 120.411C352.218 120.57 352.08 120.762 351.986 120.977C351.891 121.192 351.842 121.423 351.842 121.658C351.842 121.892 351.891 122.124 351.986 122.339C352.08 122.553 352.218 122.746 352.391 122.904C352.564 123.063 352.768 123.183 352.99 123.259C353.212 123.335 353.448 123.363 353.682 123.343C354.013 123.348 354.341 123.27 354.635 123.117V121.576Z" fill="#373737"/>
<path d="M357.294 121.652C357.264 121.076 357.408 120.505 357.706 120.012C358.004 119.518 358.443 119.126 358.967 118.884C359.491 118.643 360.075 118.564 360.645 118.658C361.214 118.751 361.742 119.013 362.161 119.41C362.579 119.806 362.87 120.319 362.994 120.881C363.118 121.444 363.07 122.031 362.857 122.567C362.644 123.102 362.275 123.561 361.797 123.885C361.32 124.209 360.757 124.382 360.18 124.383C359.808 124.404 359.436 124.348 359.087 124.22C358.738 124.092 358.418 123.894 358.148 123.638C357.878 123.383 357.663 123.074 357.516 122.733C357.369 122.391 357.294 122.023 357.294 121.652ZM361.823 121.652C361.813 121.329 361.709 121.017 361.522 120.754C361.336 120.49 361.076 120.288 360.775 120.171C360.474 120.055 360.145 120.029 359.83 120.098C359.514 120.167 359.226 120.327 359.001 120.559C358.776 120.79 358.625 121.083 358.565 121.399C358.506 121.716 358.541 122.044 358.667 122.341C358.793 122.638 359.003 122.891 359.272 123.07C359.541 123.248 359.857 123.343 360.18 123.343C360.401 123.349 360.622 123.308 360.827 123.225C361.032 123.141 361.218 123.016 361.372 122.857C361.527 122.698 361.646 122.509 361.724 122.301C361.802 122.094 361.835 121.873 361.823 121.652Z" fill="#373737"/>
<path d="M368.083 124.283L367.067 122.817H365.951V124.283H364.696V119.033H366.979C368.384 119.033 369.262 119.76 369.262 120.938C369.277 121.291 369.181 121.64 368.987 121.936C368.794 122.233 368.513 122.462 368.184 122.591L369.363 124.283H368.083ZM366.942 120.023H365.951V121.852H366.942C367.694 121.852 368.071 121.501 368.071 120.938C368.071 120.374 367.694 120.023 366.942 120.023Z" fill="#373737"/>
<path d="M374.481 123.155H372.035L371.571 124.283H370.316L372.662 119.033H373.917L376.25 124.283H374.996L374.481 123.155ZM374.105 122.241L373.265 120.223L372.437 122.241H374.105Z" fill="#373737"/>
<path d="M325.894 43.7413L328.065 39.7694L320.939 26.7134L290.354 82.8718H294.695L320.939 34.6447L325.894 43.7413Z" fill="#373737"/>
<path d="M333.17 30.3847L335.341 26.4002L320.964 0L275.852 82.8719H280.193L320.964 7.9564L333.17 30.3847Z" fill="#373737"/>
<path d="M323.448 82.8719H327.776L337.486 65.042L347.208 82.8719H351.536L337.473 57.0981L323.448 82.8719Z" fill="#373737"/>
<path d="M337.511 30.3973V30.4098L337.499 30.3848L335.341 34.3567L335.353 34.3692L308.946 82.872H313.274L337.511 38.3537L361.736 82.872H366.064H366.076L337.511 30.3973Z" fill="#373737"/>
</g>
<defs>
<clipPath id="clip0_789_2">
<rect width="148.333" height="124.383" fill="white" transform="translate(246.735)"/>
</clipPath>
</defs>
</svg>
