<svg width="174" height="160" viewBox="0 0 174 160" fill="none" xmlns="http://www.w3.org/2000/svg">
<path d="M91.7891 159.819H100.136L118.861 125.434L137.611 159.819H145.958L118.837 110.114L91.7891 159.819Z" fill="black" fill-opacity="0.07"/>
<path d="M96.5066 84.3558L100.692 76.6959L86.9503 51.5173L27.9673 159.819H36.3381L86.9503 66.813L96.5066 84.3558Z" fill="black" fill-opacity="0.07"/>
<path d="M110.539 58.5971L114.724 50.913L86.9987 0L0 159.819H8.37084L86.9987 15.344L110.539 58.5971Z" fill="black" fill-opacity="0.07"/>
<path d="M118.91 58.6213V58.6455L118.885 58.5972L114.724 66.2571L114.748 66.2812L63.8218 159.819H72.1684L118.91 73.9653L165.627 159.819H173.973H173.997L118.91 58.6213Z" fill="black" fill-opacity="0.07"/>
</svg>
