<svg width="360" height="76" viewBox="0 0 360 76" fill="none" xmlns="http://www.w3.org/2000/svg">
<g style="mix-blend-mode:multiply">
<path d="M58.551 29.8272L59.6836 27.7544L55.965 20.9409L40.0039 50.248H42.2691L55.965 25.08L58.551 29.8272Z" fill="#F4F4F4"/>
<path d="M62.348 22.8567L63.4805 20.7774L55.9779 7L32.4355 50.2479H34.7007L55.9779 11.1522L62.348 22.8567Z" fill="#F4F4F4"/>
<path d="M57.2734 50.2479H59.5321L64.5993 40.9431L69.6731 50.2479H71.9318L64.5928 36.7975L57.2734 50.2479Z" fill="#F4F4F4"/>
<path d="M64.6141 22.8632V22.8698L64.6076 22.8567L63.4815 24.9295L63.4881 24.936L49.707 50.2479H51.9657L64.6141 27.0154L77.256 50.2479H79.5147H79.5212L64.6141 22.8632Z" fill="#F4F4F4"/>
<path d="M2.83228 29.8272L3.96488 27.7544L0.246292 20.9409L-15.7148 50.248H-13.4496L0.246292 25.08L2.83228 29.8272Z" fill="#F4F4F4"/>
<path d="M6.6292 22.8567L7.7618 20.7774L0.259148 7L-23.2832 50.2479H-21.018L0.259148 11.1522L6.6292 22.8567Z" fill="#F4F4F4"/>
<path d="M1.55469 50.2479H3.81334L8.88057 40.9431L13.9543 50.2479H16.213L8.87403 36.7975L1.55469 50.2479Z" fill="#F4F4F4"/>
<path d="M8.89538 22.8632V22.8698L8.88883 22.8567L7.76278 24.9295L7.76933 24.936L-6.01172 50.2479H-3.75307L8.89538 27.0154L21.5373 50.2479H23.7959H23.8025L8.89538 22.8632Z" fill="#F4F4F4"/>
<path d="M114.27 29.8272L115.402 27.7544L111.684 20.9409L95.7227 50.248H97.9879L111.684 25.08L114.27 29.8272Z" fill="#F4F4F4"/>
<path d="M118.067 22.8567L119.199 20.7774L111.697 7L88.1543 50.2479H90.4195L111.697 11.1522L118.067 22.8567Z" fill="#F4F4F4"/>
<path d="M112.992 50.2479H115.251L120.318 40.9431L125.392 50.2479H127.651L120.312 36.7975L112.992 50.2479Z" fill="#F4F4F4"/>
<path d="M120.333 22.8632V22.8698L120.326 22.8567L119.2 24.9295L119.207 24.936L105.426 50.2479H107.684L120.333 27.0154L132.975 50.2479H135.233H135.24L120.333 22.8632Z" fill="#F4F4F4"/>
<path d="M81.1775 27.421L80.0449 29.4938L83.7635 36.3072L99.7246 7.00015L97.4594 7.00015L83.7635 32.1682L81.1775 27.421Z" fill="#F4F4F4"/>
<path d="M77.3806 34.3913L76.248 36.4707L83.7506 50.248L107.293 7.00011L105.028 7.00011L83.7506 46.0959L77.3806 34.3913Z" fill="#F4F4F4"/>
<path d="M82.4551 7.00016L80.1964 7.00016L75.1292 16.3049L70.0554 7.00016L67.7968 7.00016L75.1357 20.4506L82.4551 7.00016Z" fill="#F4F4F4"/>
<path d="M75.1144 34.3848L75.1144 34.3783L75.1209 34.3914L76.247 32.3185L76.2404 32.312L90.0215 7.00013L87.7628 7.00013L75.1144 30.2326L62.4725 7.00013L60.2138 7.00013L60.2073 7.00013L75.1144 34.3848Z" fill="#F4F4F4"/>
<path d="M25.4607 27.421L24.3281 29.4938L28.0467 36.3072L44.0078 7.00015L41.7426 7.00015L28.0467 32.1682L25.4607 27.421Z" fill="#F4F4F4"/>
<path d="M21.6638 34.3913L20.5312 36.4707L28.0338 50.248L51.5762 7.00011L49.311 7.00011L28.0338 46.0959L21.6638 34.3913Z" fill="#F4F4F4"/>
<path d="M26.7383 7.00016L24.4796 7.00016L19.4124 16.3049L14.3386 7.00016L12.08 7.00016L19.4189 20.4506L26.7383 7.00016Z" fill="#F4F4F4"/>
<path d="M19.3976 34.3848L19.3976 34.3783L19.4041 34.3914L20.5302 32.3185L20.5236 32.312L34.3047 7.00013L32.046 7.00013L19.3976 30.2326L6.7557 7.00013L4.49704 7.00013L4.4905 7.00013L19.3976 34.3848Z" fill="#F4F4F4"/>
<path d="M136.894 27.421L135.762 29.4938L139.48 36.3072L155.441 7.00015L153.176 7.00015L139.48 32.1682L136.894 27.421Z" fill="#F4F4F4"/>
<path d="M133.097 34.3913L131.965 36.4707L139.467 50.248L163.01 7.00011L160.745 7.00011L139.467 46.0959L133.097 34.3913Z" fill="#F4F4F4"/>
<path d="M138.172 7.00016L135.913 7.00016L130.846 16.3049L125.772 7.00016L123.514 7.00016L130.853 20.4506L138.172 7.00016Z" fill="#F4F4F4"/>
<path d="M130.831 34.3848L130.831 34.3783L130.838 34.3914L131.964 32.3185L131.957 32.312L145.738 7.00013L143.48 7.00013L130.831 30.2326L118.189 7.00013L115.931 7.00013L115.924 7.00013L130.831 34.3848Z" fill="#F4F4F4"/>
</g>
<g style="mix-blend-mode:multiply">
<path d="M308.422 29.8272L309.555 27.7544L305.836 20.9409L289.875 50.248H292.14L305.836 25.08L308.422 29.8272Z" fill="#F4F4F4"/>
<path d="M312.219 22.8567L313.352 20.7774L305.849 7L282.307 50.2479H284.572L305.849 11.1522L312.219 22.8567Z" fill="#F4F4F4"/>
<path d="M307.145 50.2479H309.403L314.47 40.9431L319.544 50.2479H321.803L314.464 36.7975L307.145 50.2479Z" fill="#F4F4F4"/>
<path d="M314.485 22.8632V22.8698L314.479 22.8567L313.353 24.9295L313.359 24.936L299.578 50.2479H301.837L314.485 27.0154L327.127 50.2479H329.386H329.392L314.485 22.8632Z" fill="#F4F4F4"/>
<path d="M252.705 29.8271L253.838 27.7543L250.119 20.9408L234.158 50.2479H236.423L250.119 25.0799L252.705 29.8271Z" fill="#F4F4F4"/>
<path d="M256.502 22.8567L257.635 20.7774L250.132 7L226.59 50.2479H228.855L250.132 11.1522L256.502 22.8567Z" fill="#F4F4F4"/>
<path d="M251.428 50.2479H253.686L258.754 40.9431L263.827 50.2479H266.086L258.747 36.7975L251.428 50.2479Z" fill="#F4F4F4"/>
<path d="M258.768 22.8632V22.8698L258.762 22.8567L257.636 24.9295L257.642 24.936L243.861 50.2479H246.12L258.768 27.0154L271.41 50.2479H273.669H273.676L258.768 22.8632Z" fill="#F4F4F4"/>
<path d="M364.141 29.8272L365.273 27.7544L361.555 20.9409L345.594 50.248H347.859L361.555 25.08L364.141 29.8272Z" fill="#F4F4F4"/>
<path d="M367.938 22.8567L369.07 20.7774L361.568 7L338.025 50.2479H340.291L361.568 11.1522L367.938 22.8567Z" fill="#F4F4F4"/>
<path d="M370.204 22.8632V22.8698L370.197 22.8567L369.071 24.9295L369.078 24.936L355.297 50.2479H357.556L370.204 27.0154L382.846 50.2479H385.105H385.111L370.204 22.8632Z" fill="#F4F4F4"/>
<path d="M219.613 27.421L218.48 29.4938L222.199 36.3072L238.16 7.00015L235.895 7.00015L222.199 32.1682L219.613 27.421Z" fill="#F4F4F4"/>
<path d="M215.816 34.3913L214.684 36.4707L222.186 50.248L245.729 7.00011L243.463 7.00011L222.186 46.0959L215.816 34.3913Z" fill="#F4F4F4"/>
<path d="M220.891 7.00016L218.632 7.00016L213.565 16.3049L208.491 7.00016L206.232 7.00016L213.571 20.4506L220.891 7.00016Z" fill="#F4F4F4"/>
<path d="M213.55 34.3848L213.55 34.3783L213.556 34.3914L214.683 32.3185L214.676 32.312L228.457 7.00013L226.198 7.00013L213.55 30.2326L200.908 7.00013L198.649 7.00013L198.643 7.00013L213.55 34.3848Z" fill="#F4F4F4"/>
<path d="M331.051 27.421L329.918 29.4938L333.637 36.3072L349.598 7.00015L347.332 7.00015L333.637 32.1682L331.051 27.421Z" fill="#F4F4F4"/>
<path d="M327.254 34.3913L326.121 36.4707L333.624 50.248L357.166 7.00011L354.901 7.00011L333.624 46.0959L327.254 34.3913Z" fill="#F4F4F4"/>
<path d="M332.328 7.00016L330.069 7.00016L325.002 16.3049L319.928 7.00016L317.67 7.00016L325.009 20.4506L332.328 7.00016Z" fill="#F4F4F4"/>
<path d="M324.987 34.3848L324.987 34.3783L324.994 34.3914L326.12 32.3185L326.113 32.312L339.895 7.00013L337.636 7.00013L324.987 30.2326L312.346 7.00013L310.087 7.00013L310.08 7.00013L324.987 34.3848Z" fill="#F4F4F4"/>
<path d="M275.332 27.421L274.199 29.4938L277.918 36.3072L293.879 7.00015L291.614 7.00015L277.918 32.1682L275.332 27.421Z" fill="#F4F4F4"/>
<path d="M271.535 34.3913L270.402 36.4707L277.905 50.248L301.447 7.00011L299.182 7.00011L277.905 46.0959L271.535 34.3913Z" fill="#F4F4F4"/>
<path d="M276.609 7.00016L274.351 7.00016L269.283 16.3049L264.21 7.00016L261.951 7.00016L269.29 20.4506L276.609 7.00016Z" fill="#F4F4F4"/>
<path d="M269.269 34.3848L269.269 34.3783L269.275 34.3914L270.401 32.3185L270.395 32.312L284.176 7.00013L281.917 7.00013L269.269 30.2326L256.627 7.00013L254.368 7.00013L254.362 7.00013L269.269 34.3848Z" fill="#F4F4F4"/>
</g>
<g clip-path="url(#clip0_640_2)">
<path d="M211.141 67.96H149.002V68.173H211.141V67.96Z" fill="#373737"/>
<path d="M135 57.9089V57.7872H139.952V59.2253H139.845C139.777 59.0345 139.69 58.851 139.586 58.6774C139.5 58.5252 139.393 58.3868 139.266 58.2666C139.141 58.1491 138.993 58.0585 138.832 58.0003C138.646 57.9355 138.45 57.9045 138.253 57.9089H136.988V60.6024H137.468C137.648 60.6085 137.827 60.5774 137.994 60.5111C138.131 60.46 138.254 60.3765 138.352 60.2676C138.45 60.1485 138.53 60.0151 138.588 59.872C138.651 59.7033 138.702 59.5304 138.74 59.3546H138.847V61.9263H138.74C138.695 61.7665 138.649 61.6068 138.596 61.4622C138.548 61.3167 138.476 61.1803 138.382 61.0589C138.297 60.9444 138.184 60.8529 138.055 60.7926C137.903 60.7186 137.736 60.682 137.567 60.6861H137.004V63.6002H137.765V63.7219H135V63.6002H135.762V57.8785L135 57.9089Z" fill="#373737"/>
<path d="M140.72 57.9089V57.7872H142.686H143.379C143.612 57.7885 143.844 57.8115 144.072 57.8557C144.304 57.8973 144.527 57.9743 144.735 58.084C144.933 58.192 145.105 58.3428 145.238 58.5253C145.374 58.7298 145.444 58.9719 145.436 59.2176C145.441 59.4209 145.388 59.6215 145.283 59.7959C145.186 59.954 145.053 60.0869 144.895 60.184C144.729 60.2858 144.55 60.3627 144.362 60.4122C144.172 60.4654 143.979 60.501 143.783 60.5187C144.057 60.572 144.301 60.6176 144.544 60.6709C144.741 60.7162 144.929 60.7933 145.101 60.8992C145.263 61.0001 145.392 61.1453 145.474 61.3176C145.579 61.5423 145.638 61.7853 145.649 62.0328C145.649 62.3828 145.695 62.6719 145.718 62.8774C145.726 63.0439 145.749 63.2094 145.786 63.3719C145.802 63.461 145.845 63.5433 145.908 63.6078C145.979 63.6502 146.061 63.6713 146.144 63.6686C146.194 63.671 146.244 63.6634 146.291 63.6464C146.338 63.6295 146.382 63.6034 146.418 63.5697C146.484 63.5323 146.547 63.4917 146.609 63.448L146.693 63.5165C146.643 63.5735 146.59 63.6269 146.533 63.6763C146.476 63.7229 146.415 63.7637 146.35 63.798C146.267 63.8345 146.18 63.86 146.091 63.8741C145.967 63.8873 145.842 63.8873 145.718 63.8741C145.455 63.8949 145.192 63.8449 144.956 63.7295C144.796 63.6449 144.662 63.5188 144.567 63.3643C144.486 63.2186 144.434 63.0583 144.415 62.8926C144.415 62.7176 144.415 62.5578 144.377 62.4056C144.339 62.2535 144.377 61.9567 144.331 61.7437C144.316 61.5474 144.27 61.3548 144.194 61.1731C144.124 61.0109 144.011 60.8712 143.866 60.7698C143.683 60.6595 143.471 60.6066 143.257 60.6176H142.701V63.6611H143.463V63.7828H140.705V63.6611H141.467V57.9394L140.72 57.9089ZM143.051 60.4959C143.254 60.5027 143.456 60.4691 143.646 60.397C143.779 60.3387 143.892 60.2437 143.973 60.1231C144.05 60.007 144.097 59.8737 144.11 59.735C144.122 59.5856 144.122 59.4356 144.11 59.2861C144.113 59.0747 144.097 58.8635 144.065 58.6546C144.036 58.5009 143.979 58.3539 143.897 58.2209C143.815 58.1069 143.701 58.0196 143.569 57.9698C143.404 57.9069 143.228 57.8784 143.051 57.8861H142.861H142.678V60.4731L143.051 60.4959Z" fill="#373737"/>
<path d="M149.512 57.7873V57.909H148.75V61.6677C148.75 61.9264 148.75 62.1851 148.788 62.4286C148.807 62.6602 148.866 62.8867 148.963 63.0981C149.055 63.2899 149.197 63.453 149.374 63.5698C149.604 63.7073 149.87 63.7711 150.136 63.7525C150.394 63.7579 150.651 63.7219 150.898 63.646C151.082 63.5892 151.253 63.4961 151.401 63.3721C151.532 63.2669 151.638 63.1345 151.713 62.984C151.786 62.8502 151.84 62.7068 151.873 62.5579C151.903 62.4252 151.924 62.2904 151.934 62.1547C151.934 62.0329 151.934 61.9264 151.934 61.8427V57.909H151.172V57.7873H152.848V57.909H152.086V61.8351C152.086 61.9264 152.086 62.0329 152.086 62.1699C152.084 62.3164 152.063 62.462 152.025 62.6036C151.982 62.7599 151.921 62.9105 151.843 63.0525C151.76 63.2127 151.643 63.3529 151.5 63.4634C151.328 63.5927 151.135 63.6906 150.928 63.7525C150.654 63.835 150.369 63.8735 150.083 63.8666C149.641 63.8816 149.201 63.8199 148.78 63.684C148.491 63.5954 148.23 63.4358 148.018 63.2199C147.846 63.0347 147.727 62.8057 147.676 62.5579C147.616 62.3088 147.588 62.0532 147.592 61.7971V57.8862H146.83V57.7645L149.512 57.7873Z" fill="#373737"/>
<path d="M153.656 61.9264C153.656 61.9948 153.656 62.0861 153.709 62.1926C153.742 62.3119 153.782 62.4289 153.831 62.5427C153.887 62.678 153.956 62.8079 154.037 62.9307C154.118 63.066 154.218 63.189 154.334 63.2959C154.444 63.409 154.57 63.5063 154.707 63.585C154.815 63.6487 154.93 63.6998 155.05 63.7372C155.151 63.7667 155.256 63.7821 155.362 63.7829H155.629C155.891 63.7984 156.152 63.7488 156.391 63.6383C156.564 63.5631 156.718 63.4485 156.84 63.3035C156.942 63.1771 157.02 63.0325 157.069 62.8774C157.111 62.7523 157.134 62.6215 157.137 62.4894C157.145 62.3084 157.094 62.1296 156.992 61.9796C156.887 61.8431 156.754 61.7293 156.604 61.6449C156.426 61.5524 156.239 61.4761 156.048 61.4166L155.408 61.234C155.194 61.1655 154.981 61.0894 154.776 61.0057C154.573 60.9245 154.386 60.8114 154.219 60.6709C154.055 60.5305 153.923 60.3567 153.831 60.1612C153.724 59.9223 153.674 59.6617 153.686 59.4003C153.684 59.178 153.736 58.9586 153.839 58.7612C153.939 58.5519 154.082 58.3654 154.258 58.2134C154.445 58.046 154.662 57.9145 154.897 57.8253C155.155 57.7256 155.429 57.6765 155.705 57.6808C155.869 57.6791 156.032 57.6944 156.192 57.7264L156.558 57.8329L156.84 57.9395C156.91 57.9698 156.985 57.9878 157.061 57.9927C157.11 58.0101 157.164 58.0101 157.213 57.9927C157.249 57.9498 157.278 57.9009 157.297 57.8482H157.434V59.4383H157.274C157.206 59.2481 157.137 59.0503 157.061 58.8677C156.99 58.6819 156.893 58.5076 156.771 58.3503C156.654 58.1949 156.503 58.0676 156.33 57.9775C156.119 57.8731 155.886 57.8233 155.652 57.8329C155.45 57.8293 155.249 57.8601 155.057 57.9242C154.902 57.9789 154.757 58.0614 154.631 58.1677C154.516 58.2584 154.423 58.3726 154.357 58.5025C154.297 58.6204 154.265 58.7507 154.265 58.8829C154.26 59.0588 154.317 59.2309 154.425 59.3699C154.537 59.5039 154.674 59.615 154.829 59.6971C155.01 59.7965 155.202 59.8756 155.4 59.9329L156.063 60.1459C156.291 60.2144 156.512 60.2981 156.726 60.3818C156.931 60.4658 157.123 60.5786 157.297 60.7166C157.465 60.8468 157.605 61.0099 157.708 61.1959C157.815 61.4161 157.868 61.6588 157.861 61.9035C157.861 62.1663 157.804 62.426 157.693 62.6644C157.582 62.91 157.421 63.1301 157.221 63.3111C156.995 63.5021 156.737 63.6516 156.459 63.7524C156.159 63.8621 155.842 63.9163 155.522 63.9122C155.348 63.9137 155.174 63.8958 155.004 63.8589L154.524 63.76L154.136 63.6535C154.051 63.6269 153.965 63.6091 153.877 63.6003C153.818 63.5966 153.76 63.6098 153.709 63.6383C153.664 63.682 153.633 63.7374 153.618 63.7981H153.48V61.9264H153.656ZM155.408 57.4069L154.501 55.7634H154.6L155.713 56.821L156.832 55.7634H156.931L156.017 57.4069H155.408Z" fill="#373737"/>
<path d="M161.541 57.7872V57.9089H160.779V60.5872H160.84L163.408 57.9089H162.562V57.7872H164.238V57.9089H163.568L161.701 59.8644L164.596 63.6686H165.114V63.7904H162.318V63.6686H163.08L160.848 60.7394H160.787V63.6686H161.549V63.7904H158.799V63.6686H159.561V57.947H158.799V57.8253L161.541 57.7872Z" fill="#373737"/>
<path d="M170.271 57.7872V59.2253H170.164C170.125 59.1002 170.076 58.9781 170.02 58.86C169.948 58.7019 169.853 58.5556 169.738 58.4264C169.604 58.2794 169.447 58.1559 169.273 58.0611C169.058 57.9549 168.82 57.9027 168.58 57.9089H167.247V60.4959H167.719C167.896 60.5014 168.072 60.4703 168.237 60.4046C168.376 60.3525 168.499 60.2661 168.595 60.1535C168.694 60.0379 168.774 59.9068 168.831 59.7654C168.893 59.5964 168.944 59.4236 168.984 59.2481H169.09V61.8502H168.984C168.938 61.6905 168.892 61.5307 168.839 61.3785C168.792 61.2348 168.72 61.1007 168.625 60.9828C168.538 60.8681 168.426 60.7745 168.298 60.709C168.144 60.6411 167.978 60.6073 167.81 60.61H167.247V63.6535H168.618C168.858 63.6599 169.097 63.6158 169.319 63.5241C169.524 63.4406 169.711 63.3163 169.867 63.1589C170.03 63.0007 170.164 62.8154 170.263 62.6111C170.369 62.3977 170.451 62.1731 170.507 61.9415H170.614V63.7752H165.281V63.6535H166.043V57.9318H165.281V57.8101L170.271 57.7872Z" fill="#373737"/>
<path d="M173.622 57.9089V57.7872H175.557H176.258C176.488 57.7885 176.718 57.8114 176.944 57.8557C177.177 57.8983 177.403 57.9752 177.614 58.084C177.81 58.193 177.979 58.3436 178.109 58.5253C178.249 58.7282 178.319 58.9714 178.307 59.2176C178.316 59.4213 178.263 59.6229 178.155 59.7959C178.058 59.954 177.925 60.0869 177.766 60.184C177.601 60.2858 177.421 60.3627 177.233 60.4122C177.046 60.4653 176.855 60.501 176.662 60.5187C176.928 60.572 177.18 60.6176 177.424 60.6709C177.62 60.7175 177.807 60.7946 177.98 60.8992C178.14 61.0023 178.269 61.1469 178.353 61.3176C178.455 61.5429 178.512 61.7858 178.521 62.0328C178.521 62.3828 178.574 62.6719 178.589 62.8774C178.599 63.0442 178.625 63.2098 178.665 63.3719C178.677 63.4622 178.721 63.5456 178.787 63.6078C178.855 63.6513 178.935 63.6726 179.016 63.6686C179.119 63.6737 179.22 63.6382 179.298 63.5697L179.488 63.3947L179.572 63.4632C179.52 63.5204 179.464 63.5738 179.404 63.623C179.348 63.6696 179.286 63.7104 179.221 63.7448C179.141 63.7812 179.057 63.8068 178.97 63.8208C178.843 63.834 178.716 63.834 178.589 63.8208C178.342 63.8349 178.095 63.7851 177.873 63.6763C177.713 63.5917 177.579 63.4655 177.485 63.3111C177.4 63.1668 177.348 63.0058 177.332 62.8393C177.309 62.678 177.296 62.5153 177.294 62.3524C177.294 62.1317 177.294 61.9035 177.248 61.6904C177.216 61.5088 177.16 61.3323 177.081 61.1654C177.011 61.0033 176.898 60.8636 176.753 60.7622C176.567 60.6509 176.352 60.5979 176.136 60.61H175.588V63.6535H176.349V63.7752H173.592V63.6535H174.354V57.9318L173.622 57.9089ZM175.953 60.4959C176.156 60.5027 176.358 60.4691 176.548 60.397C176.681 60.3387 176.794 60.2437 176.875 60.1231C176.945 60.0038 176.992 59.872 177.012 59.735C177.024 59.5856 177.024 59.4356 177.012 59.2861C177.016 59.0744 176.999 58.8627 176.959 58.6546C176.934 58.5 176.877 58.3523 176.791 58.2209C176.714 58.1058 176.602 58.0179 176.471 57.9698C176.304 57.9063 176.125 57.8778 175.946 57.8861H175.763H175.58V60.4731L175.953 60.4959Z" fill="#373737"/>
<path d="M184.698 57.7872V59.2253H184.591C184.552 59.1002 184.504 58.9781 184.447 58.86C184.376 58.7019 184.281 58.5556 184.165 58.4264C184.033 58.2776 183.876 58.1538 183.7 58.0611C183.485 57.9549 183.247 57.9027 183.007 57.9089H181.651V60.4959H182.123C182.3 60.5014 182.477 60.4703 182.641 60.4046C182.78 60.3525 182.903 60.2661 182.999 60.1535C183.101 60.0399 183.181 59.9083 183.235 59.7654C183.301 59.5976 183.352 59.4245 183.388 59.2481H183.494V61.8502H183.388C183.35 61.6908 183.304 61.5333 183.251 61.3785C183.198 61.2375 183.126 61.1044 183.037 60.9828C182.946 60.8695 182.832 60.7762 182.702 60.709C182.549 60.6411 182.382 60.6073 182.215 60.61H181.651V63.6535H183.022C183.262 63.6599 183.501 63.6158 183.723 63.5241C183.929 63.4406 184.115 63.3163 184.271 63.1589C184.434 63.0007 184.569 62.8154 184.668 62.6111C184.777 62.3992 184.859 62.1742 184.911 61.9415H185.018V63.7752H179.686V63.6535H180.447V57.9318H179.686V57.8101L184.698 57.7872Z" fill="#373737"/>
<path d="M186.085 61.9264C186.085 61.9949 186.085 62.0862 186.138 62.1927C186.171 62.3119 186.211 62.4289 186.26 62.5427C186.316 62.6781 186.385 62.808 186.465 62.9307C186.546 63.0661 186.647 63.1891 186.763 63.2959C186.873 63.4091 186.999 63.5064 187.136 63.5851C187.244 63.6487 187.359 63.6998 187.479 63.7372C187.58 63.7667 187.685 63.7821 187.791 63.7829H188.058C188.32 63.7985 188.581 63.7488 188.819 63.6383C188.993 63.5631 189.147 63.4485 189.269 63.3036C189.371 63.1771 189.449 63.0326 189.497 62.8775C189.54 62.7523 189.563 62.6215 189.566 62.4894C189.574 62.3084 189.523 62.1297 189.421 61.9797C189.314 61.8413 189.179 61.7272 189.025 61.6449C188.85 61.5511 188.666 61.4747 188.477 61.4166L187.837 61.234C187.623 61.1656 187.41 61.0894 187.204 61.0057C187.002 60.9245 186.815 60.8115 186.648 60.671C186.484 60.5305 186.352 60.3567 186.26 60.1612C186.153 59.9223 186.103 59.6618 186.115 59.4003C186.114 59.1791 186.163 58.9605 186.26 58.7613C186.366 58.5533 186.511 58.3674 186.686 58.2134C186.874 58.0461 187.091 57.9145 187.326 57.8254C187.584 57.7256 187.858 57.6765 188.134 57.6808C188.297 57.6791 188.461 57.6944 188.621 57.7264L188.987 57.833L189.269 57.9395C189.339 57.9706 189.413 57.9887 189.49 57.9928C189.539 58.0102 189.593 58.0102 189.642 57.9928C189.678 57.9499 189.707 57.9009 189.726 57.8482H189.855V59.4384H189.749C189.68 59.2482 189.612 59.0503 189.535 58.8677C189.462 58.6834 189.365 58.5095 189.246 58.3504C189.128 58.1949 188.977 58.0676 188.804 57.9775C188.594 57.8731 188.361 57.8234 188.126 57.833C187.924 57.8293 187.723 57.8602 187.532 57.9243C187.376 57.979 187.232 58.0615 187.105 58.1678C186.991 58.2585 186.898 58.3726 186.831 58.5025C186.771 58.6205 186.74 58.7508 186.74 58.883C186.735 59.0589 186.792 59.231 186.9 59.3699C187.012 59.504 187.149 59.6151 187.303 59.6971C187.485 59.7966 187.676 59.8757 187.875 59.933L188.538 60.146C188.766 60.2144 188.987 60.2981 189.2 60.3818C189.406 60.4659 189.598 60.5786 189.772 60.7166C189.94 60.8469 190.08 61.01 190.183 61.196C190.29 61.4162 190.342 61.6589 190.335 61.9036C190.336 62.1663 190.278 62.426 190.168 62.6644C190.056 62.91 189.896 63.1301 189.695 63.3112C189.47 63.5022 189.212 63.6516 188.934 63.7525C188.634 63.8622 188.316 63.9163 187.997 63.9122C187.823 63.9137 187.649 63.8959 187.479 63.859L186.999 63.7601L186.603 63.6536C186.521 63.6272 186.437 63.6093 186.351 63.6003C186.293 63.5967 186.235 63.6099 186.184 63.6383C186.139 63.682 186.107 63.7374 186.092 63.7981H185.955V61.9264H186.085Z" fill="#373737"/>
<path d="M193.94 57.7872V57.9089H193.178V63.6306H193.94V63.7524H191.189V63.6306H191.951V57.9089H191.189V57.7872H193.94Z" fill="#373737"/>
<path d="M194.541 57.909V57.7872H196.163H197.016C197.284 57.787 197.551 57.8048 197.816 57.8405C198.098 57.8732 198.376 57.9318 198.647 58.0155C198.912 58.105 199.168 58.2223 199.408 58.3655C199.657 58.5118 199.879 58.6997 200.064 58.9209C200.256 59.1469 200.408 59.4043 200.513 59.6818C200.633 60.0291 200.689 60.395 200.681 60.7622C200.69 61.1269 200.633 61.4903 200.513 61.835C200.408 62.1125 200.256 62.3699 200.064 62.5959C199.886 62.8184 199.669 63.0066 199.424 63.1513C199.183 63.2948 198.928 63.4121 198.662 63.5013C198.414 63.5839 198.159 63.6425 197.9 63.6763C197.666 63.7118 197.429 63.7296 197.192 63.7295H194.525V63.6078H195.287V57.8861L194.541 57.909ZM196.971 63.6611C197.285 63.6662 197.599 63.6225 197.9 63.5317C198.136 63.4531 198.355 63.3319 198.548 63.1741C198.718 63.0344 198.86 62.864 198.967 62.6719C199.069 62.4815 199.148 62.2798 199.203 62.0709C199.254 61.8663 199.287 61.6575 199.302 61.447C199.312 61.2493 199.312 61.0512 199.302 60.8535C199.303 60.4437 199.275 60.0343 199.218 59.6285C199.172 59.2968 199.058 58.9783 198.883 58.6927C198.717 58.4281 198.475 58.2189 198.19 58.0916C197.815 57.9405 197.413 57.8705 197.009 57.8861H196.712C196.638 57.877 196.564 57.877 196.491 57.8861V63.6078C196.689 63.6459 196.834 63.6611 196.971 63.6611Z" fill="#373737"/>
<path d="M206.418 57.7872V59.2253H206.312C206.272 59.1002 206.224 58.9781 206.167 58.86C206.098 58.7005 206.003 58.5538 205.885 58.4264C205.753 58.2776 205.596 58.1538 205.42 58.0611C205.205 57.954 204.967 57.9017 204.727 57.9089H203.394V60.4959H203.866C204.046 60.5005 204.224 60.4695 204.392 60.4046C204.527 60.3505 204.648 60.2643 204.742 60.1535C204.844 60.0399 204.924 59.9083 204.978 59.7654C205.044 59.5976 205.095 59.4245 205.131 59.2481H205.268V61.8502H205.161C205.124 61.6908 205.078 61.5333 205.024 61.3785C204.972 61.2375 204.9 61.1044 204.811 60.9828C204.719 60.8695 204.605 60.7762 204.476 60.709C204.323 60.6401 204.156 60.6063 203.988 60.61H203.424V63.6535H204.803C205.041 63.659 205.277 63.6149 205.496 63.5241C205.702 63.4406 205.889 63.3163 206.045 63.1589C206.208 63.0007 206.342 62.8154 206.441 62.6111C206.55 62.3992 206.632 62.1742 206.685 61.9415H206.791V63.7752H201.459V63.6535H202.221V57.9318H201.459V57.8101L206.418 57.7872Z" fill="#373737"/>
<path d="M209.411 57.7872L212.199 61.7741V57.9089H211.437V57.7872H213.113V57.9089H212.351V63.7524H212.122L208.352 58.4264V63.6686H209.113V63.7904H207.438V63.6686H208.199V57.947H207.438V57.8253L209.411 57.7872Z" fill="#373737"/>
<path d="M218.758 59.4992C218.689 59.3166 218.621 59.1188 218.529 58.9134C218.445 58.7132 218.332 58.5262 218.194 58.358C218.045 58.1669 217.853 58.014 217.633 57.9121C217.413 57.8102 217.172 57.7622 216.93 57.7721C216.592 57.7541 216.256 57.8334 215.962 58.0004C215.727 58.1515 215.541 58.3685 215.429 58.6242C215.303 58.9299 215.226 59.2534 215.2 59.5829C215.2 59.9557 215.147 60.3438 215.147 60.8003C215.14 61.2844 215.176 61.7681 215.254 62.2459C215.297 62.5629 215.403 62.868 215.566 63.1437C215.695 63.3571 215.89 63.5227 216.122 63.6155C216.38 63.7128 216.654 63.7593 216.93 63.7525C217.164 63.7546 217.396 63.7025 217.608 63.6003C217.81 63.5019 217.993 63.3679 218.148 63.2046C218.309 63.0357 218.442 62.8433 218.545 62.634C218.651 62.4244 218.731 62.2019 218.781 61.972H218.91V63.7525H218.781C218.76 63.697 218.726 63.6473 218.682 63.6079C218.624 63.5943 218.564 63.5943 218.506 63.6079C218.416 63.6112 218.326 63.6266 218.24 63.6535L217.882 63.7525C217.745 63.7525 217.592 63.8209 217.432 63.8514C217.264 63.882 217.093 63.8973 216.922 63.897C216.516 63.8997 216.115 63.8195 215.741 63.6612C215.369 63.5058 215.028 63.2841 214.736 63.0068C214.445 62.7286 214.21 62.3982 214.042 62.0329C213.871 61.65 213.782 61.2351 213.783 60.8155C213.778 60.3702 213.877 59.9298 214.073 59.5297C214.26 59.1536 214.519 58.8176 214.835 58.5406C215.127 58.2685 215.468 58.0542 215.84 57.909C216.189 57.7685 216.561 57.6937 216.937 57.6884C217.103 57.6874 217.269 57.7027 217.432 57.734L217.859 57.8406L218.217 57.9471C218.303 57.9759 218.393 57.9938 218.484 58.0004C218.542 58.0111 218.601 58.0111 218.659 58.0004C218.683 57.9827 218.703 57.9598 218.718 57.9335C218.732 57.9073 218.741 57.8781 218.743 57.8482H218.88V59.5601L218.758 59.4992Z" fill="#373737"/>
<path d="M224.73 57.7872V59.2253H224.623C224.584 59.1002 224.535 58.9781 224.479 58.86C224.407 58.7019 224.312 58.5556 224.197 58.4264C224.063 58.2794 223.906 58.1559 223.732 58.0611C223.517 57.9549 223.279 57.9027 223.039 57.9089H221.706V60.4959H222.17C222.35 60.5005 222.529 60.4695 222.696 60.4046C222.834 60.3505 222.956 60.2644 223.054 60.1535C223.153 60.0379 223.233 59.9068 223.29 59.7654C223.353 59.5974 223.401 59.4243 223.435 59.2481H223.549V61.8502H223.435C223.397 61.6908 223.352 61.5333 223.298 61.3785C223.248 61.2361 223.176 61.1025 223.084 60.9828C222.997 60.8681 222.885 60.7745 222.757 60.709C222.601 60.6402 222.432 60.6065 222.262 60.61H221.706V63.6535H223.077C223.314 63.6597 223.551 63.6156 223.77 63.5241C223.977 63.4438 224.165 63.3192 224.319 63.1589C224.484 63.001 224.621 62.8157 224.722 62.6111C224.828 62.3977 224.91 62.1731 224.966 61.9415H225.073V63.7752H219.74V63.6535H220.502V57.9318H219.74V57.8101L224.73 57.7872Z" fill="#373737"/>
<path d="M150.015 72.2817L148.629 75.4697H147.867L146.488 72.2817H147.288L148.263 74.5643L149.246 72.2817H150.015Z" fill="#373737"/>
<path d="M152.772 75.4697L152.155 74.5795H151.477V75.4697H150.715V72.2817H152.094C152.954 72.2817 153.488 72.7231 153.488 73.4383C153.497 73.654 153.438 73.8672 153.319 74.0474C153.2 74.2277 153.027 74.366 152.825 74.4426L153.541 75.4697H152.772ZM152.078 72.8828H151.477V73.9937H152.078C152.528 73.9937 152.756 73.7806 152.756 73.4383C152.756 73.0959 152.528 72.8828 152.078 72.8828Z" fill="#373737"/>
<path d="M154.555 72.2817H156.002C156.228 72.2547 156.456 72.2758 156.673 72.3435C156.89 72.4113 157.09 72.5242 157.26 72.6748C157.43 72.8255 157.566 73.0104 157.659 73.2174C157.753 73.4244 157.801 73.6487 157.801 73.8757C157.801 74.1027 157.753 74.327 157.659 74.534C157.566 74.741 157.43 74.9259 157.26 75.0765C157.09 75.2272 156.89 75.3401 156.673 75.4079C156.456 75.4757 156.228 75.4967 156.002 75.4697H154.555V72.2817ZM155.972 74.861C156.234 74.861 156.486 74.7568 156.672 74.5713C156.858 74.3858 156.962 74.1342 156.962 73.8719C156.962 73.6096 156.858 73.358 156.672 73.1725C156.486 72.987 156.234 72.8828 155.972 72.8828H155.294V74.861H155.972Z" fill="#373737"/>
<path d="M161.717 72.2817V75.4697H161.084L159.492 73.5296V75.4697H158.73V72.2817H159.348L160.932 74.2144V72.2817H161.717Z" fill="#373737"/>
<path d="M162.936 72.2817H163.697V75.4697H162.936V72.2817Z" fill="#373737"/>
<path d="M166.057 74.2144L165.623 74.6632V75.4697H164.861V72.2817H165.623V73.8035L167.04 72.2817H167.863L166.537 73.7045L167.939 75.4697H167.078L166.057 74.2144Z" fill="#373737"/>
<path d="M170.348 74.1915C170.349 74.0789 170.384 73.9693 170.448 73.8765C170.512 73.7837 170.601 73.7117 170.706 73.6697C170.81 73.6277 170.925 73.6175 171.035 73.6403C171.146 73.6632 171.247 73.7182 171.326 73.7983C171.405 73.8784 171.459 73.98 171.48 74.0905C171.501 74.201 171.49 74.3153 171.446 74.4191C171.403 74.523 171.33 74.6117 171.236 74.674C171.142 74.7364 171.032 74.7697 170.919 74.7697C170.843 74.7708 170.768 74.7565 170.698 74.7277C170.627 74.6989 170.563 74.6562 170.51 74.6022C170.457 74.5482 170.415 74.484 170.387 74.4134C170.359 74.3428 170.346 74.2673 170.348 74.1915Z" fill="#373737"/>
<path d="M175.063 72.8676V73.7122H176.548V74.3057H175.063V75.4697H174.301V72.2817H176.716V72.8676H175.063Z" fill="#373737"/>
<path d="M179.74 75.4697L179.123 74.5795H178.445V75.4697H177.684V72.2817H179.062C179.916 72.2817 180.456 72.7231 180.456 73.4383C180.466 73.654 180.407 73.8672 180.288 74.0474C180.169 74.2277 179.996 74.366 179.794 74.4426L180.51 75.4697H179.74ZM179.047 72.8828H178.445V73.9937H179.047C179.497 73.9937 179.725 73.7806 179.725 73.4383C179.725 73.0959 179.497 72.8828 179.047 72.8828Z" fill="#373737"/>
<path d="M181.492 74.1001V72.3121H182.254V74.0697C182.254 74.6784 182.521 74.9295 182.97 74.9295C183.42 74.9295 183.679 74.6784 183.679 74.0697V72.3121H184.44V74.1001C184.44 74.4835 184.288 74.8512 184.016 75.1224C183.745 75.3935 183.377 75.5458 182.993 75.5458C182.609 75.5458 182.241 75.3935 181.969 75.1224C181.698 74.8512 181.545 74.4835 181.545 74.1001H181.492Z" fill="#373737"/>
<path d="M187.983 74.5339C187.983 75.0741 187.541 75.5306 186.627 75.5306C186.165 75.5407 185.711 75.4107 185.324 75.1578L185.576 74.6023C185.888 74.8142 186.257 74.9282 186.634 74.9295C187.076 74.9295 187.252 74.785 187.252 74.5947C187.252 73.9937 185.393 74.4045 185.393 73.2176C185.393 72.6774 185.827 72.2209 186.741 72.2209C187.129 72.2132 187.511 72.3133 187.846 72.5099L187.617 73.0654C187.349 72.9076 187.045 72.8212 186.734 72.8143C186.299 72.8143 186.124 72.9817 186.124 73.1795C186.124 73.773 187.983 73.3393 187.983 74.5339ZM186.368 72.0154L185.766 71.3611H186.284L186.688 71.7034L187.084 71.3611H187.602L187 72.0154H186.368Z" fill="#373737"/>
<path d="M190.116 74.2144L189.69 74.6632V75.4697H188.928V72.2817H189.69V73.8035L191.106 72.2817H191.929L190.604 73.7045L192.005 75.4697H191.137L190.116 74.2144Z" fill="#373737"/>
<path d="M194.754 74.785H193.268L192.986 75.4697H192.225L193.649 72.2817H194.411L195.843 75.4697H195.081L194.754 74.785ZM194.518 74.2295L194.015 73.0046L193.504 74.2295H194.518Z" fill="#373737"/>
<path d="M200.521 73.8262H201.191V75.1197C200.817 75.3895 200.366 75.5334 199.904 75.5306C199.677 75.5459 199.449 75.5146 199.235 75.4384C199.02 75.3622 198.824 75.2428 198.658 75.0876C198.491 74.9324 198.359 74.7448 198.268 74.5363C198.178 74.3278 198.131 74.103 198.131 73.8757C198.131 73.6484 198.178 73.4236 198.268 73.2151C198.359 73.0066 198.491 72.819 198.658 72.6638C198.824 72.5086 199.02 72.3892 199.235 72.313C199.449 72.2368 199.677 72.2055 199.904 72.2208C200.154 72.2103 200.404 72.2546 200.636 72.3505C200.867 72.4464 201.075 72.5918 201.245 72.7763L200.772 73.21C200.667 73.0948 200.539 73.0034 200.396 72.9417C200.253 72.8801 200.098 72.8496 199.942 72.8523C199.8 72.8401 199.657 72.8574 199.522 72.9033C199.387 72.9492 199.263 73.0226 199.158 73.1188C199.053 73.215 198.97 73.332 198.912 73.4623C198.855 73.5926 198.825 73.7334 198.825 73.8757C198.825 74.018 198.855 74.1588 198.912 74.2891C198.97 74.4194 199.053 74.5363 199.158 74.6326C199.263 74.7288 199.387 74.8022 199.522 74.848C199.657 74.8939 199.8 74.9113 199.942 74.899C200.143 74.9018 200.342 74.8548 200.521 74.7621V73.8262Z" fill="#373737"/>
<path d="M202.137 73.8718C202.119 73.5224 202.206 73.1755 202.387 72.876C202.568 72.5764 202.835 72.338 203.153 72.1914C203.471 72.0449 203.826 71.9969 204.172 72.0538C204.517 72.1106 204.838 72.2697 205.092 72.5104C205.346 72.7511 205.523 73.0624 205.598 73.4041C205.673 73.7458 205.644 74.1023 205.515 74.4274C205.385 74.7525 205.161 75.0314 204.871 75.228C204.582 75.4247 204.24 75.53 203.889 75.5305C203.664 75.5429 203.438 75.5092 203.226 75.4314C203.013 75.3537 202.819 75.2335 202.655 75.0782C202.491 74.9229 202.361 74.7358 202.272 74.5284C202.183 74.3209 202.137 74.0975 202.137 73.8718ZM204.887 73.8718C204.881 73.6761 204.818 73.4864 204.704 73.3266C204.591 73.1667 204.433 73.0437 204.251 72.9729C204.068 72.9022 203.868 72.8867 203.677 72.9285C203.485 72.9703 203.31 73.0676 203.174 73.2081C203.037 73.3486 202.945 73.5262 202.909 73.7187C202.873 73.9112 202.894 74.11 202.971 74.2904C203.047 74.4707 203.175 74.6247 203.338 74.7329C203.501 74.8411 203.693 74.8989 203.889 74.899C204.024 74.9023 204.158 74.8778 204.282 74.827C204.407 74.7761 204.52 74.7001 204.613 74.6036C204.707 74.5071 204.78 74.3923 204.827 74.2663C204.874 74.1404 204.895 74.0061 204.887 73.8718Z" fill="#373737"/>
<path d="M208.688 75.4697L208.071 74.5795H207.393V75.4697H206.631V72.2817H208.017C208.871 72.2817 209.404 72.7231 209.404 73.4383C209.412 73.6529 209.354 73.8648 209.237 74.0448C209.119 74.2248 208.949 74.3638 208.749 74.4426L209.465 75.4697H208.688ZM207.994 72.8828H207.393V73.9937H207.994C208.452 73.9937 208.68 73.7806 208.68 73.4383C208.68 73.0959 208.452 72.8828 207.994 72.8828Z" fill="#373737"/>
<path d="M212.572 74.785H211.087L210.805 75.4697H210.043L211.468 72.2817H212.229L213.646 75.4697H212.884L212.572 74.785ZM212.344 74.2295L211.833 73.0046L211.33 74.2295H212.344Z" fill="#373737"/>
<path d="M183.07 26.5616L184.388 24.1497L180.061 16.2216L161.488 50.3233H164.124L180.061 21.0378L183.07 26.5616Z" fill="#373737"/>
<path d="M187.488 18.4508L188.806 16.0313L180.076 0L152.682 50.3233H155.317L180.076 4.83146L187.488 18.4508Z" fill="#373737"/>
<path d="M181.584 50.3232H184.212L190.108 39.4962L196.012 50.3232H198.64L190.101 34.6724L181.584 50.3232Z" fill="#373737"/>
<path d="M190.123 18.4584V18.466L190.116 18.4508L188.805 20.8627L188.813 20.8703L172.777 50.3232H175.406L190.123 23.2899L204.833 50.3232H207.462H207.469L190.123 18.4584Z" fill="#373737"/>
</g>
<defs>
<clipPath id="clip0_640_2">
<rect width="90.0737" height="75.5305" fill="white" transform="translate(135)"/>
</clipPath>
</defs>
</svg>
