<svg width="104" height="88" viewBox="0 0 104 88" fill="none" xmlns="http://www.w3.org/2000/svg">
<g clip-path="url(#clip0_444_8687)">
<path d="M87.9123 78.4673H16.166V78.7133H87.9123V78.4673Z" fill="#373737"/>
<path d="M0 66.8623V66.7218H5.71719V68.3821H5.59403C5.51566 68.1619 5.41548 67.95 5.29498 67.7496C5.19632 67.5739 5.07178 67.414 4.92555 67.2752C4.78121 67.1396 4.6106 67.035 4.42422 66.9678C4.20951 66.893 3.98309 66.8572 3.75574 66.8623H2.29566V69.9722H2.84979C3.0572 69.9793 3.26384 69.9434 3.45669 69.8668C3.61521 69.8078 3.75706 69.7114 3.87009 69.5857C3.98366 69.4481 4.0756 69.2941 4.14275 69.1288C4.21547 68.9341 4.27426 68.7345 4.31868 68.5315H4.4418V71.5008H4.31868C4.2659 71.3163 4.21313 71.1318 4.15156 70.9649C4.09641 70.7969 4.01313 70.6395 3.90528 70.4993C3.80673 70.367 3.67673 70.2614 3.52705 70.1918C3.35201 70.1063 3.15894 70.0641 2.96414 70.0688H2.31327V73.4335H3.19283V73.574H0V73.4335H0.879567V66.8272L0 66.8623Z" fill="#373737"/>
<path d="M6.60547 66.8623V66.7218H8.87477H9.67518C9.94386 66.7233 10.2118 66.7497 10.4756 66.8009C10.7427 66.8489 11.0008 66.9378 11.2408 67.0644C11.4697 67.1892 11.668 67.3632 11.8213 67.5739C11.9791 67.8101 12.0591 68.0896 12.05 68.3733C12.0559 68.6081 11.9949 68.8396 11.8741 69.041C11.7619 69.2235 11.6082 69.377 11.4255 69.4891C11.2343 69.6066 11.0269 69.6954 10.8098 69.7526C10.5912 69.814 10.3675 69.8552 10.1413 69.8756C10.458 69.9371 10.7395 69.9898 11.0209 70.0512C11.2479 70.1036 11.4648 70.1926 11.663 70.3148C11.85 70.4314 11.9996 70.5991 12.094 70.798C12.2148 71.0574 12.2836 71.338 12.2963 71.6238C12.2963 72.0279 12.349 72.3617 12.3754 72.5989C12.385 72.7912 12.4115 72.9823 12.4546 73.1699C12.473 73.2728 12.522 73.3677 12.5953 73.4423C12.6776 73.4912 12.7723 73.5156 12.868 73.5125C12.9257 73.5152 12.9834 73.5065 13.0377 73.4869C13.092 73.4673 13.142 73.4372 13.1846 73.3983C13.2602 73.3551 13.3336 73.3082 13.4045 73.2578L13.5013 73.3369C13.4442 73.4027 13.3825 73.4643 13.3166 73.5213C13.2511 73.5752 13.1804 73.6223 13.1055 73.6619C13.01 73.704 12.9095 73.7335 12.8064 73.7497C12.6632 73.765 12.5187 73.765 12.3754 73.7497C12.0726 73.7737 11.7688 73.7161 11.4959 73.5828C11.311 73.4852 11.1561 73.3395 11.0473 73.1612C10.9534 72.9929 10.8936 72.8078 10.8714 72.6165C10.8714 72.4144 10.8714 72.2299 10.8274 72.0542C10.7834 71.8785 10.8274 71.5359 10.7746 71.29C10.7573 71.0633 10.7039 70.8409 10.6163 70.6311C10.5359 70.4438 10.405 70.2826 10.2381 70.1655C10.0263 70.0382 9.78129 69.977 9.53445 69.9898H8.89235V73.5038H9.77192V73.6443H6.58789V73.5038H7.46746V66.8975L6.60547 66.8623ZM9.29694 69.8492C9.53096 69.8571 9.76421 69.8183 9.98301 69.735C10.1367 69.6678 10.268 69.558 10.3612 69.4188C10.4502 69.2847 10.5046 69.1308 10.5196 68.9707C10.533 68.7982 10.533 68.6249 10.5196 68.4524C10.5223 68.2083 10.5046 67.9644 10.4668 67.7233C10.4339 67.5458 10.3682 67.376 10.2733 67.2225C10.1784 67.0909 10.0469 66.99 9.89507 66.9326C9.70439 66.86 9.50083 66.8271 9.29694 66.836H9.07705H8.86597V69.8229L9.29694 69.8492Z" fill="#373737"/>
<path d="M16.7562 66.7218V66.8623H15.8767V71.2021C15.8767 71.5008 15.8766 71.7994 15.9206 72.0806C15.9429 72.348 16.0114 72.6095 16.1229 72.8536C16.2285 73.0751 16.3928 73.2634 16.5979 73.3983C16.8625 73.5571 17.1696 73.6307 17.4775 73.6092C17.7754 73.6154 18.0723 73.5739 18.357 73.4862C18.5698 73.4207 18.7672 73.3131 18.9376 73.1699C19.0889 73.0485 19.212 72.8956 19.2982 72.7219C19.3826 72.5674 19.4448 72.4018 19.4829 72.2299C19.5179 72.0767 19.5414 71.9211 19.5532 71.7643C19.5532 71.6238 19.5532 71.5008 19.5532 71.4042V66.8623H18.6737V66.7218H20.6087V66.8623H19.7292V71.3954C19.7292 71.5008 19.7292 71.6238 19.7292 71.7819C19.7262 71.9511 19.7025 72.1192 19.6588 72.2827C19.6091 72.4631 19.5382 72.6371 19.4477 72.8009C19.3519 72.9859 19.2168 73.1479 19.0519 73.2754C18.8535 73.4247 18.6301 73.5377 18.3922 73.6092C18.0758 73.7044 17.7463 73.7489 17.4159 73.7409C16.9061 73.7583 16.3972 73.687 15.9118 73.5301C15.5784 73.4278 15.276 73.2436 15.0323 72.9942C14.8329 72.7804 14.696 72.5161 14.6365 72.2299C14.5673 71.9424 14.5348 71.6472 14.5397 71.3515V66.836H13.6602V66.6954L16.7562 66.7218Z" fill="#373737"/>
<path d="M21.5402 71.5008C21.5402 71.5798 21.5402 71.6852 21.6018 71.8082C21.6396 71.9459 21.6866 72.081 21.7425 72.2124C21.8077 72.3687 21.8872 72.5187 21.98 72.6604C22.0735 72.8167 22.189 72.9587 22.323 73.0821C22.4506 73.2127 22.5956 73.325 22.754 73.4159C22.8788 73.4894 23.0116 73.5484 23.1498 73.5916C23.267 73.6256 23.3884 73.6434 23.5104 73.6443H23.8183C24.1208 73.6623 24.423 73.6049 24.6978 73.4774C24.8986 73.3906 25.0762 73.2582 25.2168 73.0909C25.3349 72.9449 25.4245 72.778 25.4807 72.5989C25.5296 72.4544 25.5562 72.3033 25.5598 72.1509C25.5688 71.9418 25.5102 71.7355 25.3927 71.5623C25.2707 71.4047 25.1181 71.2732 24.9441 71.1757C24.7384 71.069 24.5235 70.9808 24.3021 70.9122L23.5632 70.7014C23.3169 70.6223 23.0707 70.5344 22.8332 70.4378C22.5999 70.344 22.3831 70.2135 22.1911 70.0512C22.0014 69.8891 21.8485 69.6884 21.7425 69.4627C21.6191 69.1868 21.5619 68.886 21.5754 68.5842C21.5729 68.3275 21.6332 68.0742 21.7513 67.8463C21.8675 67.6046 22.0322 67.3893 22.2351 67.2137C22.4518 67.0205 22.7023 66.8686 22.9739 66.7657C23.271 66.6505 23.5876 66.5938 23.9062 66.5988C24.0952 66.5968 24.2838 66.6145 24.4692 66.6515L24.8914 66.7745L25.2168 66.8975C25.2976 66.9325 25.3839 66.9533 25.4719 66.959C25.5288 66.9791 25.5909 66.9791 25.6478 66.959C25.6896 66.9094 25.7223 66.8529 25.7445 66.7921H25.9029V68.6281H25.7181C25.639 68.4085 25.5598 68.18 25.4719 67.9692C25.3905 67.7547 25.2779 67.5534 25.1376 67.3718C25.0016 67.1924 24.8274 67.0454 24.6275 66.9414C24.3848 66.8208 24.1155 66.7634 23.8447 66.7745C23.6116 66.7702 23.3796 66.8059 23.1586 66.8799C22.9787 66.943 22.8118 67.0383 22.666 67.161C22.534 67.2657 22.4261 67.3976 22.3494 67.5475C22.2803 67.6837 22.2441 67.8341 22.2438 67.9868C22.2385 68.1899 22.3038 68.3886 22.4286 68.549C22.5581 68.7038 22.7164 68.8321 22.8947 68.9268C23.1039 69.0416 23.3251 69.133 23.5544 69.1991L24.3196 69.4451C24.5835 69.5241 24.8386 69.6208 25.0849 69.7174C25.3219 69.8144 25.5441 69.9446 25.7445 70.1039C25.9388 70.2543 26.1004 70.4426 26.2195 70.6574C26.3431 70.9116 26.4034 71.1919 26.3954 71.4744C26.3958 71.7778 26.3297 72.0776 26.2019 72.3529C26.0732 72.6364 25.8876 72.8906 25.6566 73.0996C25.3959 73.3202 25.0981 73.4927 24.777 73.6092C24.4306 73.7358 24.064 73.7983 23.6952 73.7936C23.4941 73.7954 23.2935 73.7747 23.097 73.7321L22.5429 73.6179L22.0943 73.495C21.997 73.4643 21.8968 73.4437 21.7953 73.4335C21.7279 73.4293 21.6607 73.4445 21.6018 73.4774C21.55 73.5278 21.5135 73.5918 21.4962 73.6619H21.3379V71.5008H21.5402ZM23.5632 66.2825L22.5165 64.385H22.6309L23.915 65.606L25.208 64.385H25.3223L24.2669 66.2825H23.5632Z" fill="#373737"/>
<path d="M30.645 66.7218V66.8623H29.7654V69.9546H29.8357L32.7999 66.8623H31.8236V66.7218H33.7586V66.8623H32.9846L30.8297 69.12L34.172 73.5125H34.7701V73.6531H31.5421V73.5125H32.4217L29.8446 70.1303H29.7742V73.5125H30.6537V73.6531H27.4785V73.5125H28.3581V66.9063H27.4785V66.7657L30.645 66.7218Z" fill="#373737"/>
<path d="M40.724 66.7218V68.3821H40.6009C40.5554 68.2378 40.4995 68.0968 40.4338 67.9604C40.3517 67.7778 40.2419 67.609 40.1083 67.4597C39.9545 67.2901 39.7731 67.1475 39.5718 67.038C39.3233 66.9154 39.0485 66.8551 38.7714 66.8623H37.2322V69.8492H37.7775C37.982 69.8556 38.1856 69.8197 38.3756 69.7438C38.5357 69.6836 38.6779 69.5839 38.789 69.4539C38.9038 69.3204 38.9959 69.1691 39.0617 69.0058C39.1331 68.8107 39.1919 68.6112 39.2376 68.4085H39.3607V71.413H39.2376C39.1848 71.2285 39.132 71.044 39.0704 70.8683C39.0169 70.7023 38.9334 70.5475 38.8242 70.4115C38.7235 70.279 38.5942 70.1709 38.446 70.0952C38.2688 70.0169 38.0767 69.9779 37.883 69.981H37.2322V73.495H38.8154C39.0926 73.5024 39.3683 73.4515 39.6246 73.3456C39.862 73.2491 40.0774 73.1057 40.2579 72.9239C40.4461 72.7413 40.6008 72.5273 40.7152 72.2915C40.8377 72.0451 40.9322 71.7858 40.9967 71.5184H41.1199V73.6355H34.9629V73.495H35.8425V66.8887H34.9629V66.7482L40.724 66.7218Z" fill="#373737"/>
<path d="M44.5938 66.8623V66.7218H46.8279H47.6371C47.9028 66.7232 48.1679 66.7497 48.4287 66.8009C48.6983 66.85 48.9592 66.9388 49.2027 67.0644C49.4284 67.1902 49.6236 67.3642 49.7744 67.5739C49.9362 67.8082 50.0165 68.089 50.0031 68.3733C50.0131 68.6085 49.9518 68.8412 49.8272 69.041C49.715 69.2235 49.5613 69.377 49.3786 69.489C49.1874 69.6066 48.98 69.6954 48.7629 69.7526C48.5473 69.8139 48.3265 69.8551 48.1032 69.8756C48.4111 69.9371 48.7014 69.9897 48.9828 70.0512C49.2093 70.1051 49.4259 70.1941 49.6249 70.3148C49.8097 70.4339 49.9587 70.6009 50.0559 70.798C50.1735 71.0581 50.2392 71.3386 50.2494 71.6238C50.2494 72.0279 50.311 72.3617 50.3285 72.5989C50.3403 72.7915 50.3697 72.9827 50.4165 73.1699C50.4306 73.2742 50.4803 73.3704 50.5572 73.4423C50.6357 73.4925 50.728 73.517 50.8211 73.5125C50.9403 73.5183 51.0571 73.4773 51.1465 73.3983L51.3664 73.1963L51.4632 73.2754C51.4032 73.3414 51.3385 73.403 51.2697 73.4598C51.2042 73.5136 51.1335 73.5608 51.0586 73.6004C50.9662 73.6425 50.8686 73.672 50.7683 73.6882C50.6221 73.7034 50.4747 73.7034 50.3285 73.6882C50.0432 73.7045 49.7584 73.647 49.5018 73.5213C49.3169 73.4236 49.1619 73.278 49.0532 73.0996C48.9555 72.933 48.8955 72.7472 48.8772 72.555C48.8505 72.3687 48.8359 72.1809 48.8333 71.9927C48.8333 71.738 48.8333 71.4744 48.7805 71.2284C48.743 71.0188 48.678 70.8149 48.587 70.6223C48.5066 70.435 48.3757 70.2738 48.2088 70.1567C47.9943 70.0282 47.7461 69.967 47.4963 69.981H46.8631V73.495H47.7426V73.6355H44.5586V73.495H45.4382V66.8887L44.5938 66.8623ZM47.2852 69.8492C47.5192 69.8571 47.7525 69.8183 47.9713 69.735C48.125 69.6678 48.2562 69.558 48.3495 69.4188C48.4307 69.281 48.4845 69.1289 48.5078 68.9707C48.5213 68.7982 48.5213 68.6249 48.5078 68.4524C48.5128 68.2079 48.4921 67.9635 48.4463 67.7233C48.4173 67.5447 48.3514 67.3742 48.2528 67.2225C48.1631 67.0896 48.0339 66.9882 47.8834 66.9326C47.6898 66.8593 47.4832 66.8264 47.2765 66.836H47.0653H46.8542V69.8229L47.2852 69.8492Z" fill="#373737"/>
<path d="M57.3832 66.7218V68.3821H57.2601C57.2146 68.2378 57.1587 68.0968 57.093 67.9604C57.0109 67.7778 56.9011 67.609 56.7675 67.4597C56.6156 67.288 56.4339 67.1451 56.231 67.038C55.9825 66.9154 55.7077 66.8551 55.4306 66.8623H53.865V69.8492H54.4103C54.6148 69.8556 54.8184 69.8197 55.0084 69.7438C55.1685 69.6836 55.3108 69.5839 55.4218 69.4539C55.5397 69.3227 55.6321 69.1708 55.6945 69.0058C55.7699 68.812 55.8288 68.6122 55.8704 68.4085H55.9935V71.413H55.8704C55.8269 71.2288 55.7741 71.047 55.7121 70.8683C55.6513 70.7055 55.5684 70.5518 55.4658 70.4115C55.36 70.2805 55.2282 70.1729 55.0788 70.0952C54.9016 70.0169 54.7096 69.9779 54.5158 69.981H53.865V73.495H55.4482C55.7254 73.5024 56.0011 73.4515 56.2574 73.3456C56.4948 73.2491 56.7102 73.1057 56.8907 72.9239C57.0789 72.7413 57.2337 72.5273 57.348 72.2915C57.4744 72.0467 57.5689 71.787 57.6295 71.5184H57.7527V73.6355H51.5957V73.495H52.4753V66.8887H51.5957V66.7482L57.3832 66.7218Z" fill="#373737"/>
<path d="M58.9835 71.5009C58.9835 71.5799 58.9835 71.6853 59.0451 71.8083C59.0829 71.946 59.1299 72.081 59.1858 72.2124C59.251 72.3687 59.3305 72.5187 59.4233 72.6605C59.5168 72.8167 59.6323 72.9587 59.7663 73.0821C59.8939 73.2127 60.0389 73.3251 60.1973 73.416C60.3221 73.4895 60.4549 73.5484 60.5931 73.5917C60.7103 73.6257 60.8317 73.6435 60.9537 73.6444H61.2616C61.5641 73.6624 61.8663 73.605 62.1412 73.4775C62.3419 73.3907 62.5196 73.2583 62.6601 73.0909C62.7782 72.945 62.8677 72.7781 62.924 72.599C62.9728 72.4545 62.9996 72.3034 63.0032 72.1509C63.0121 71.9419 62.9535 71.7356 62.836 71.5624C62.7127 71.4026 62.5568 71.2708 62.3786 71.1758C62.1766 71.0676 61.9645 70.9793 61.7454 70.9123L61.0065 70.7014C60.7602 70.6224 60.514 70.5345 60.2765 70.4379C60.0432 70.344 59.8264 70.2135 59.6344 70.0513C59.4447 69.8891 59.2918 69.6885 59.1858 69.4627C59.0624 69.1869 59.0052 68.8861 59.0187 68.5842C59.0174 68.3288 59.0746 68.0764 59.1858 67.8463C59.3084 67.6062 59.4755 67.3915 59.6784 67.2138C59.8951 67.0206 60.1456 66.8687 60.4172 66.7658C60.7143 66.6506 61.0309 66.5939 61.3496 66.5988C61.5385 66.5969 61.7272 66.6145 61.9125 66.6515L62.3347 66.7745L62.6601 66.8975C62.7407 66.9335 62.8271 66.9543 62.9152 66.959C62.9721 66.9791 63.0342 66.9791 63.0911 66.959C63.1329 66.9095 63.1656 66.853 63.1879 66.7921H63.3374V68.6282H63.2142C63.1351 68.4085 63.0559 68.1801 62.968 67.9693C62.883 67.7565 62.7707 67.5557 62.6337 67.3719C62.4977 67.1925 62.3235 67.0454 62.1236 66.9415C61.8809 66.8209 61.6116 66.7635 61.3408 66.7745C61.1077 66.7703 60.8757 66.8059 60.6547 66.88C60.4748 66.9431 60.3079 67.0384 60.1621 67.1611C60.0301 67.2658 59.9221 67.3976 59.8455 67.5476C59.7764 67.6838 59.7402 67.8342 59.7399 67.9869C59.7346 68.19 59.7999 68.3887 59.9247 68.5491C60.0542 68.7039 60.2125 68.8322 60.3908 68.9269C60.6 69.0417 60.8212 69.1331 61.0505 69.1992L61.8157 69.4452C62.0796 69.5242 62.3347 69.6208 62.581 69.7175C62.818 69.8145 63.0401 69.9447 63.2406 70.104C63.4349 70.2544 63.5965 70.4427 63.7156 70.6575C63.8392 70.9117 63.8995 71.192 63.8915 71.4745C63.8919 71.7779 63.8258 72.0777 63.698 72.353C63.5693 72.6365 63.3837 72.8907 63.1527 73.0997C62.892 73.3202 62.5942 73.4928 62.2731 73.6093C61.9267 73.7359 61.5601 73.7984 61.1912 73.7937C60.9902 73.7954 60.7896 73.7748 60.5931 73.7322L60.039 73.618L59.5816 73.4951C59.4873 73.4646 59.39 73.444 59.2914 73.4336C59.224 73.4293 59.1568 73.4446 59.0979 73.4775C59.0461 73.5279 59.0095 73.5918 58.9923 73.662H58.834V71.5009H58.9835Z" fill="#373737"/>
<path d="M68.0522 66.7218V66.8623H67.1726V73.4686H68.0522V73.6092H64.877V73.4686H65.7565V66.8623H64.877V66.7218H68.0522Z" fill="#373737"/>
<path d="M68.7461 66.8623V66.7218H70.6196H71.6047C71.9136 66.7215 72.2221 66.7421 72.5283 66.7833C72.8534 66.821 73.1743 66.8887 73.487 66.9853C73.7936 67.0886 74.0885 67.2241 74.3666 67.3894C74.6536 67.5584 74.9094 67.7753 75.123 68.0307C75.3451 68.2917 75.5207 68.5888 75.6419 68.9092C75.78 69.3103 75.8455 69.7327 75.8354 70.1567C75.8458 70.5778 75.7803 70.9974 75.6419 71.3954C75.5207 71.7158 75.3451 72.0129 75.123 72.2739C74.9179 72.5308 74.6675 72.7481 74.3841 72.9152C74.1062 73.0809 73.8114 73.2164 73.5046 73.3193C73.2185 73.4146 72.924 73.4823 72.625 73.5213C72.3543 73.5623 72.0808 73.5829 71.807 73.5828H68.7285V73.4423H69.6081V66.836L68.7461 66.8623ZM71.5519 73.5038C71.9152 73.5097 72.2772 73.4592 72.625 73.3544C72.8974 73.2636 73.1508 73.1237 73.3726 72.9415C73.5688 72.7802 73.7329 72.5835 73.8564 72.3617C73.9743 72.1419 74.0658 71.909 74.1291 71.6677C74.1886 71.4315 74.2268 71.1904 74.2434 70.9473C74.2557 70.7191 74.2557 70.4904 74.2434 70.2621C74.2452 69.789 74.2129 69.3162 74.1467 68.8477C74.0934 68.4648 73.9617 68.097 73.7596 67.7672C73.5677 67.4617 73.289 67.2201 72.9592 67.0732C72.5267 66.8987 72.062 66.8179 71.5959 66.836H71.2529C71.1682 66.8254 71.0825 66.8254 70.9978 66.836V73.4423C71.2265 73.4862 71.3936 73.5038 71.5519 73.5038Z" fill="#373737"/>
<path d="M82.4604 66.7218V68.3821H82.3372C82.2917 68.2378 82.2358 68.0968 82.1701 67.9604C82.091 67.7762 81.9809 67.6069 81.8446 67.4597C81.6928 67.288 81.511 67.1451 81.3081 67.038C81.0599 66.9144 80.785 66.854 80.5077 66.8623H78.9685V69.8492H79.5138C79.7211 69.8546 79.9274 69.8187 80.1207 69.7438C80.2771 69.6814 80.416 69.5819 80.5253 69.4539C80.6432 69.3227 80.7356 69.1708 80.798 69.0058C80.8734 68.812 80.9323 68.6122 80.9739 68.4085H81.1322V71.413H81.0091C80.9656 71.2288 80.9128 71.047 80.8507 70.8683C80.79 70.7055 80.7071 70.5518 80.6045 70.4115C80.4986 70.2805 80.3669 70.1729 80.2174 70.0952C80.0407 70.0158 79.8484 69.9767 79.6545 69.981H79.0036V73.495H80.5957C80.87 73.5014 81.1426 73.4505 81.3961 73.3456C81.6335 73.2491 81.8489 73.1057 82.0294 72.9239C82.2175 72.7413 82.3723 72.5273 82.4867 72.2915C82.6131 72.0467 82.7076 71.787 82.7682 71.5184H82.8913V73.6355H76.7344V73.495H77.6139V66.8887H76.7344V66.7482L82.4604 66.7218Z" fill="#373737"/>
<path d="M85.9168 66.7218L89.136 71.3251V66.8623H88.2564V66.7218H90.1914V66.8623H89.3119V73.6092H89.048L84.6941 67.4597V73.5125H85.5737V73.6531H83.6387V73.5125H84.5182V66.9063H83.6387V66.7657L85.9168 66.7218Z" fill="#373737"/>
<path d="M96.7086 68.6984C96.6295 68.4875 96.5503 68.2591 96.4448 68.0219C96.347 67.7909 96.2167 67.5749 96.0578 67.3806C95.8858 67.16 95.6637 66.9835 95.4097 66.8658C95.1558 66.7482 94.8774 66.6928 94.5977 66.7042C94.2078 66.6835 93.8201 66.775 93.4807 66.9678C93.2091 67.1423 92.9949 67.3928 92.8649 67.6881C92.7197 68.041 92.6306 68.4145 92.6011 68.795C92.6011 69.2255 92.5395 69.6735 92.5395 70.2006C92.5319 70.7595 92.5731 71.318 92.6626 71.8697C92.713 72.2357 92.8356 72.588 93.0233 72.9064C93.1724 73.1527 93.3978 73.3439 93.6654 73.451C93.963 73.5634 94.2796 73.6171 94.5977 73.6092C94.8687 73.6116 95.1366 73.5515 95.3805 73.4335C95.6145 73.3199 95.826 73.1652 96.005 72.9767C96.1902 72.7816 96.3444 72.5594 96.4624 72.3178C96.5857 72.0758 96.6774 71.8189 96.735 71.5535H96.8846V73.6092H96.735C96.711 73.5451 96.6718 73.4878 96.6207 73.4423C96.5542 73.4266 96.4849 73.4266 96.4184 73.4423C96.3139 73.4461 96.2104 73.4639 96.1105 73.495L95.6971 73.6092C95.5388 73.6092 95.3629 73.6883 95.1782 73.7234C94.9838 73.7588 94.7865 73.7764 94.5889 73.7761C94.1206 73.7792 93.6566 73.6866 93.2256 73.5038C92.7958 73.3245 92.4024 73.0684 92.0645 72.7482C91.7293 72.427 91.4578 72.0455 91.2641 71.6238C91.0658 71.1817 90.9639 70.7026 90.9651 70.2182C90.959 69.704 91.0734 69.1956 91.2993 68.7335C91.5153 68.2993 91.8141 67.9114 92.1789 67.5915C92.5163 67.2773 92.9103 67.0299 93.3399 66.8623C93.7427 66.7 94.1722 66.6137 94.6065 66.6076C94.7983 66.6064 94.9898 66.6241 95.1782 66.6603L95.6708 66.7833L96.0842 66.9063C96.1838 66.9395 96.2872 66.9602 96.392 66.9678C96.4589 66.9802 96.5274 66.9802 96.5943 66.9678C96.6223 66.9473 96.6455 66.921 96.6622 66.8906C96.6789 66.8603 96.6888 66.8266 96.6911 66.7921H96.8494V68.7687L96.7086 68.6984Z" fill="#373737"/>
<path d="M103.605 66.7218V68.3821H103.482C103.436 68.2378 103.38 68.0968 103.315 67.9604C103.233 67.7778 103.123 67.609 102.989 67.4597C102.835 67.2901 102.654 67.1475 102.453 67.038C102.204 66.9154 101.929 66.8551 101.652 66.8623H100.113V69.8492H100.65C100.857 69.8546 101.063 69.8187 101.256 69.7438C101.415 69.6814 101.557 69.582 101.67 69.4539C101.785 69.3204 101.877 69.1691 101.943 69.0058C102.015 68.8118 102.071 68.6119 102.11 68.4085H102.242V71.413H102.11C102.066 71.2288 102.013 71.047 101.951 70.8683C101.894 70.7039 101.811 70.5497 101.705 70.4115C101.604 70.279 101.475 70.1709 101.327 70.0952C101.147 70.0159 100.952 69.9769 100.755 69.981H100.113V73.495H101.696C101.971 73.5022 102.243 73.4513 102.497 73.3456C102.736 73.2529 102.952 73.109 103.13 72.9239C103.321 72.7417 103.479 72.5277 103.596 72.2915C103.719 72.0451 103.813 71.7858 103.878 71.5184H104.001V73.6355H97.8438V73.495H98.7233V66.8887H97.8438V66.7482L103.605 66.7218Z" fill="#373737"/>
<path d="M17.3361 83.4572L15.7353 87.1381H14.8557L13.2637 83.4572H14.1872L15.3131 86.0926L16.4477 83.4572H17.3361Z" fill="#373737"/>
<path d="M20.5193 87.1381L19.8069 86.1102H19.0241V87.1381H18.1445V83.4572H19.7365C20.7305 83.4572 21.3461 83.9667 21.3461 84.7925C21.3568 85.0416 21.2886 85.2877 21.1513 85.4959C21.0139 85.704 20.8143 85.8637 20.5809 85.9521L21.4077 87.1381H20.5193ZM19.7189 84.1512H19.0241V85.4338H19.7189C20.2379 85.4338 20.5018 85.1878 20.5018 84.7925C20.5018 84.3972 20.2379 84.1512 19.7189 84.1512Z" fill="#373737"/>
<path d="M22.5781 83.4571H24.2493C24.5098 83.4259 24.774 83.4503 25.0244 83.5285C25.2748 83.6067 25.5057 83.7371 25.7019 83.911C25.8982 84.0849 26.0553 84.2985 26.1629 84.5375C26.2705 84.7765 26.3261 85.0355 26.3261 85.2976C26.3261 85.5596 26.2705 85.8187 26.1629 86.0577C26.0553 86.2967 25.8982 86.5101 25.7019 86.6841C25.5057 86.858 25.2748 86.9884 25.0244 87.0666C24.774 87.1449 24.5098 87.1692 24.2493 87.138H22.5781V83.4571ZM24.2141 86.4352C24.5174 86.4352 24.8082 86.3149 25.0226 86.1007C25.2371 85.8866 25.3576 85.5961 25.3576 85.2932C25.3576 84.9903 25.2371 84.6998 25.0226 84.4856C24.8082 84.2714 24.5174 84.1511 24.2141 84.1511H23.4313V86.4352H24.2141Z" fill="#373737"/>
<path d="M30.8463 83.4572V87.1381H30.1163L28.278 84.8979V87.1381H27.3984V83.4572H28.1109L29.9404 85.6886V83.4572H30.8463Z" fill="#373737"/>
<path d="M32.2539 83.4572H33.1335V87.1381H32.2539V83.4572Z" fill="#373737"/>
<path d="M35.8594 85.6886L35.3581 86.2069V87.1381H34.4785V83.4572H35.3581V85.2141L36.9941 83.4572H37.944L36.4136 85.0999L38.032 87.1381H37.0381L35.8594 85.6886Z" fill="#373737"/>
<path d="M40.8127 85.6622C40.8145 85.5323 40.8546 85.4057 40.9282 85.2985C41.0017 85.1913 41.1053 85.1083 41.226 85.0598C41.3467 85.0112 41.479 84.9994 41.6064 85.0258C41.7338 85.0522 41.8505 85.1157 41.9419 85.2082C42.0333 85.3007 42.0952 85.418 42.12 85.5456C42.1447 85.6732 42.1312 85.8052 42.081 85.9251C42.0308 86.045 41.9463 86.1474 41.838 86.2194C41.7297 86.2914 41.6025 86.3298 41.4724 86.3298C41.3847 86.3311 41.2976 86.3145 41.2165 86.2813C41.1353 86.2481 41.0617 86.1988 41.0001 86.1364C40.9385 86.0741 40.8901 85.9999 40.8579 85.9184C40.8257 85.8369 40.8104 85.7498 40.8127 85.6622Z" fill="#373737"/>
<path d="M46.2565 84.1336V85.1087H47.9717V85.794H46.2565V87.1381H45.377V83.4572H48.1652V84.1336H46.2565Z" fill="#373737"/>
<path d="M51.6561 87.1381L50.9436 86.1102H50.1608V87.1381H49.2812V83.4572H50.8733C51.8584 83.4572 52.4829 83.9667 52.4829 84.7925C52.4935 85.0416 52.4254 85.2877 52.288 85.4959C52.1506 85.704 51.951 85.8637 51.7176 85.9521L52.5444 87.1381H51.6561ZM50.8557 84.1512H50.1608V85.4338H50.8557C51.3746 85.4338 51.6385 85.1878 51.6385 84.7925C51.6385 84.3972 51.3746 84.1512 50.8557 84.1512Z" fill="#373737"/>
<path d="M53.6797 85.5568V83.4923H54.5593V85.5216C54.5593 86.2244 54.8671 86.5143 55.3861 86.5143C55.905 86.5143 56.204 86.2244 56.204 85.5216V83.4923H57.0836V85.5568C57.0836 85.9994 56.9076 86.424 56.5941 86.737C56.2807 87.05 55.8557 87.2259 55.4124 87.2259C54.9692 87.2259 54.5441 87.05 54.2307 86.737C53.9173 86.424 53.7412 85.9994 53.7412 85.5568H53.6797Z" fill="#373737"/>
<path d="M61.1732 86.0575C61.1732 86.6812 60.663 87.2083 59.6076 87.2083C59.0742 87.22 58.5498 87.0699 58.1035 86.7779L58.3938 86.1365C58.7545 86.3812 59.1803 86.5128 59.6164 86.5143C60.1265 86.5143 60.3288 86.3474 60.3288 86.1278C60.3288 85.4338 58.1827 85.9082 58.1827 84.5377C58.1827 83.914 58.684 83.3869 59.7395 83.3869C60.1874 83.3781 60.6289 83.4936 61.0149 83.7207L60.751 84.362C60.4413 84.1799 60.09 84.08 59.7307 84.0721C59.2294 84.0721 59.027 84.2654 59.027 84.4938C59.027 85.179 61.1732 84.6783 61.1732 86.0575ZM59.3085 83.1497L58.6137 82.3942H59.2118L59.6779 82.7895L60.1353 82.3942H60.7334L60.0385 83.1497H59.3085Z" fill="#373737"/>
<path d="M63.6358 85.6886L63.1432 86.2069V87.1381H62.2637V83.4572H63.1432V85.2141L64.7792 83.4572H65.7292L64.1987 85.0999L65.8171 87.1381H64.8144L63.6358 85.6886Z" fill="#373737"/>
<path d="M68.9924 86.3474H67.2773L66.9518 87.1381H66.0723L67.7171 83.4572H68.5966L70.2502 87.1381H69.3707L68.9924 86.3474ZM68.7198 85.7061L68.1393 84.2917L67.5499 85.7061H68.7198Z" fill="#373737"/>
<path d="M75.6523 85.2404H76.4263V86.7339C75.9937 87.0454 75.4731 87.2115 74.9398 87.2082C74.6777 87.226 74.4147 87.1898 74.1672 87.1018C73.9196 87.0138 73.6928 86.8759 73.5009 86.6968C73.3089 86.5176 73.1559 86.301 73.0512 86.0603C72.9466 85.8195 72.8926 85.5599 72.8926 85.2975C72.8926 85.0351 72.9466 84.7755 73.0512 84.5348C73.1559 84.2941 73.3089 84.0774 73.5009 83.8982C73.6928 83.7191 73.9196 83.5812 74.1672 83.4932C74.4147 83.4053 74.6777 83.369 74.9398 83.3868C75.229 83.3747 75.5174 83.4257 75.7848 83.5365C76.0522 83.6473 76.2921 83.8151 76.4879 84.0281L75.9425 84.5288C75.8213 84.3959 75.6731 84.2903 75.5077 84.2191C75.3424 84.1479 75.1638 84.1127 74.9838 84.1159C74.8199 84.1018 74.6548 84.1218 74.499 84.1748C74.3433 84.2278 74.2002 84.3125 74.079 84.4236C73.9577 84.5347 73.8609 84.6698 73.7947 84.8202C73.7285 84.9706 73.6943 85.1332 73.6943 85.2975C73.6943 85.4619 73.7285 85.6244 73.7947 85.7748C73.8609 85.9253 73.9577 86.0603 74.079 86.1714C74.2002 86.2825 74.3433 86.3672 74.499 86.4202C74.6548 86.4732 74.8199 86.4932 74.9838 86.4791C75.2163 86.4823 75.4459 86.428 75.6523 86.3209V85.2404Z" fill="#373737"/>
<path d="M77.5164 85.2932C77.4953 84.8897 77.5958 84.4892 77.8048 84.1434C78.0139 83.7975 78.322 83.5222 78.6893 83.353C79.0566 83.1837 79.4663 83.1284 79.8654 83.194C80.2645 83.2597 80.6347 83.4433 80.9283 83.7213C81.2219 83.9992 81.4253 84.3586 81.5123 84.7532C81.5993 85.1477 81.5659 85.5592 81.4164 85.9346C81.2669 86.31 81.0081 86.632 80.6735 86.8591C80.339 87.0861 79.9439 87.2077 79.5394 87.2083C79.2789 87.2226 79.0181 87.1837 78.7732 87.0939C78.5282 87.0041 78.3042 86.8653 78.1148 86.686C77.9254 86.5067 77.7747 86.2907 77.6718 86.0512C77.5689 85.8117 77.516 85.5538 77.5164 85.2932ZM80.6916 85.2932C80.6847 85.0672 80.6113 84.8482 80.4806 84.6636C80.3499 84.4791 80.1676 84.3371 79.9565 84.2553C79.7455 84.1736 79.515 84.1557 79.2938 84.204C79.0727 84.2523 78.8707 84.3646 78.7131 84.5268C78.5554 84.6891 78.4491 84.8942 78.4074 85.1164C78.3657 85.3386 78.3905 85.5682 78.4787 85.7764C78.5668 85.9847 78.7144 86.1624 78.9031 86.2874C79.0917 86.4123 79.3131 86.479 79.5394 86.4791C79.6948 86.483 79.8493 86.4547 79.9932 86.396C80.1371 86.3373 80.2672 86.2495 80.3755 86.1381C80.4837 86.0267 80.5677 85.8941 80.6221 85.7487C80.6765 85.6032 80.7002 85.4482 80.6916 85.2932Z" fill="#373737"/>
<path d="M85.0799 87.1381L84.3674 86.1102H83.5846V87.1381H82.7051V83.4572H84.3059C85.291 83.4572 85.9067 83.9667 85.9067 84.7925C85.9167 85.0403 85.8493 85.285 85.7137 85.4928C85.5782 85.7006 85.3813 85.8611 85.1503 85.9521L85.9771 87.1381H85.0799ZM84.2795 84.1512H83.5846V85.4338H84.2795C84.8072 85.4338 85.0711 85.1878 85.0711 84.7925C85.0711 84.3972 84.8072 84.1512 84.2795 84.1512Z" fill="#373737"/>
<path d="M89.5667 86.3474H87.8515L87.5261 87.1381H86.6465L88.2913 83.4572H89.1709L90.8069 87.1381H89.9273L89.5667 86.3474ZM89.3028 85.7061L88.7135 84.2917L88.133 85.7061H89.3028Z" fill="#373737"/>
<path d="M55.5002 30.6683L57.0218 27.8835L52.0259 18.7296L30.582 58.1038H33.6253L52.0259 24.2904L55.5002 30.6683Z" fill="#373737"/>
<path d="M60.6015 21.3035L62.1231 18.5099L52.0433 0L20.4141 58.1037H23.4574L52.0433 5.57845L60.6015 21.3035Z" fill="#373737"/>
<path d="M53.7852 58.1038H56.8197L63.6275 45.6028L70.4442 58.1038H73.4787L63.6187 40.0331L53.7852 58.1038Z" fill="#373737"/>
<path d="M63.6449 21.3123V21.3211L63.6361 21.3036L62.1233 24.0884L62.1321 24.0972L43.6172 58.1038H46.6517L63.6449 26.8908L80.6294 58.1038H83.6639H83.6727L63.6449 21.3123Z" fill="#373737"/>
</g>
<defs>
<clipPath id="clip0_444_8687">
<rect width="104" height="87.2083" fill="white"/>
</clipPath>
</defs>
</svg>
