<svg width="91" height="76" viewBox="0 0 91 76" fill="none" xmlns="http://www.w3.org/2000/svg">
<g clip-path="url(#clip0_444_7359)">
<path d="M76.1409 67.96H14.002V68.173H76.1409V67.96Z" fill="white"/>
<path d="M0 57.9089V57.7872H4.95161V59.2253H4.84495C4.77707 59.0345 4.69031 58.851 4.58595 58.6774C4.5005 58.5252 4.39263 58.3868 4.26599 58.2666C4.14097 58.1491 3.99321 58.0585 3.83179 58.0003C3.64583 57.9355 3.44972 57.9045 3.25282 57.9089H1.98825V60.6024H2.46818C2.64782 60.6085 2.82679 60.5774 2.99382 60.5111C3.13111 60.46 3.25396 60.3765 3.35186 60.2676C3.45022 60.1485 3.52985 60.0151 3.58801 59.872C3.65099 59.7033 3.70191 59.5304 3.74038 59.3546H3.84701V61.9263H3.74038C3.69467 61.7665 3.64896 61.6068 3.59563 61.4622C3.54787 61.3167 3.47575 61.1803 3.38234 61.0589C3.29698 60.9444 3.18439 60.8529 3.05475 60.7926C2.90315 60.7186 2.73594 60.682 2.56722 60.6861H2.0035V63.6002H2.76529V63.7219H0V63.6002H0.761787V57.8785L0 57.9089Z" fill="white"/>
<path d="M5.72031 57.9089V57.7872H7.68573H8.37896C8.61166 57.7885 8.84374 57.8115 9.07219 57.8557C9.30354 57.8973 9.52709 57.9743 9.73494 58.084C9.93321 58.192 10.1049 58.3428 10.2377 58.5253C10.3744 58.7298 10.4436 58.9719 10.4358 59.2176C10.4409 59.4209 10.3881 59.6215 10.2834 59.7959C10.1863 59.954 10.0532 60.0869 9.89491 60.184C9.72934 60.2858 9.54965 60.3627 9.36165 60.4122C9.17234 60.4654 8.97855 60.501 8.7827 60.5187C9.05695 60.572 9.30072 60.6176 9.54449 60.6709C9.74107 60.7162 9.92891 60.7933 10.1006 60.8992C10.2625 61.0001 10.3921 61.1453 10.4739 61.3176C10.5785 61.5423 10.6381 61.7853 10.6491 62.0328C10.6491 62.3828 10.6948 62.6719 10.7176 62.8774C10.7259 63.0439 10.7489 63.2094 10.7862 63.3719C10.8021 63.461 10.8446 63.5433 10.9081 63.6078C10.9794 63.6502 11.0613 63.6713 11.1442 63.6686C11.1942 63.671 11.2442 63.6634 11.2912 63.6464C11.3383 63.6295 11.3815 63.6034 11.4185 63.5697C11.4839 63.5323 11.5475 63.4917 11.6089 63.448L11.6927 63.5165C11.6433 63.5735 11.5898 63.6269 11.5327 63.6763C11.4761 63.7229 11.4148 63.7637 11.3499 63.798C11.2672 63.8345 11.1802 63.86 11.0909 63.8741C10.9668 63.8873 10.8417 63.8873 10.7176 63.8741C10.4553 63.8949 10.1922 63.8449 9.95584 63.7295C9.79577 63.6449 9.66156 63.5188 9.56734 63.3643C9.48605 63.2186 9.43427 63.0583 9.41498 62.8926C9.41498 62.7176 9.41499 62.5578 9.3769 62.4056C9.33881 62.2535 9.3769 61.9567 9.33119 61.7437C9.31619 61.5474 9.26989 61.3548 9.19405 61.1731C9.12443 61.0109 9.01102 60.8712 8.86649 60.7698C8.68307 60.6595 8.47086 60.6066 8.25707 60.6176H7.70096V63.6611H8.46274V63.7828H5.70508V63.6611H6.46687V57.9394L5.72031 57.9089ZM8.05137 60.4959C8.25405 60.5027 8.45607 60.4691 8.64557 60.397C8.77868 60.3387 8.89235 60.2437 8.97315 60.1231C9.05019 60.007 9.09729 59.8737 9.11027 59.735C9.12188 59.5856 9.12188 59.4356 9.11027 59.2861C9.11263 59.0747 9.09734 58.8635 9.06456 58.6546C9.03604 58.5009 8.97922 58.3539 8.89697 58.2209C8.81483 58.1069 8.70091 58.0196 8.5694 57.9698C8.40426 57.9069 8.22795 57.8784 8.05137 57.8861H7.86093H7.6781V60.4731L8.05137 60.4959Z" fill="white"/>
<path d="M14.5116 57.7873V57.909H13.7498V61.6677C13.7498 61.9264 13.7498 62.1851 13.7879 62.4286C13.8072 62.6602 13.8665 62.8867 13.9631 63.0981C14.0545 63.2899 14.1968 63.453 14.3744 63.5698C14.6036 63.7073 14.8696 63.7711 15.1362 63.7525C15.3942 63.7579 15.6514 63.7219 15.898 63.646C16.0823 63.5892 16.2533 63.4961 16.4008 63.3721C16.5319 63.2669 16.6385 63.1345 16.7131 62.984C16.7863 62.8502 16.8401 62.7068 16.8731 62.5579C16.9035 62.4252 16.9238 62.2904 16.934 62.1547C16.934 62.0329 16.934 61.9264 16.934 61.8427V57.909H16.1723V57.7873H17.8482V57.909H17.0864V61.8351C17.0864 61.9264 17.0864 62.0329 17.0864 62.1699C17.0838 62.3164 17.0633 62.462 17.0255 62.6036C16.9824 62.7599 16.921 62.9105 16.8426 63.0525C16.7596 63.2127 16.6427 63.3529 16.4998 63.4634C16.328 63.5927 16.1346 63.6906 15.9285 63.7525C15.6545 63.835 15.369 63.8735 15.0829 63.8666C14.6414 63.8816 14.2006 63.8199 13.7803 63.684C13.4914 63.5954 13.2295 63.4358 13.0185 63.2199C12.8458 63.0347 12.7272 62.8057 12.6757 62.5579C12.6158 62.3088 12.5876 62.0532 12.5919 61.7971V57.8862H11.8301V57.7645L14.5116 57.7873Z" fill="white"/>
<path d="M18.6557 61.9264C18.6557 61.9948 18.6557 62.0861 18.709 62.1926C18.7418 62.3119 18.7825 62.4289 18.8309 62.5427C18.8874 62.678 18.9562 62.8079 19.0366 62.9307C19.1176 63.066 19.2176 63.189 19.3337 63.2959C19.4442 63.409 19.5698 63.5063 19.707 63.585C19.815 63.6487 19.93 63.6998 20.0497 63.7372C20.1513 63.7667 20.2564 63.7821 20.3621 63.7829H20.6287C20.8907 63.7984 21.1525 63.7488 21.3905 63.6383C21.5643 63.5631 21.7182 63.4485 21.84 63.3035C21.9423 63.1771 22.0198 63.0325 22.0685 62.8774C22.1108 62.7523 22.1339 62.6215 22.1371 62.4894C22.1448 62.3084 22.0941 62.1296 21.9923 61.9796C21.8866 61.8431 21.7545 61.7293 21.6038 61.6449C21.4256 61.5524 21.2395 61.4761 21.0477 61.4166L20.4078 61.234C20.1945 61.1655 19.9812 61.0894 19.7755 61.0057C19.5735 60.9245 19.3857 60.8114 19.2194 60.6709C19.0551 60.5305 18.9227 60.3567 18.8309 60.1612C18.724 59.9223 18.6745 59.6617 18.6862 59.4003C18.684 59.178 18.7363 58.9586 18.8385 58.7612C18.9392 58.5519 19.0818 58.3654 19.2575 58.2134C19.4452 58.046 19.6621 57.9145 19.8974 57.8253C20.1547 57.7256 20.4289 57.6765 20.7049 57.6808C20.8686 57.6791 21.0319 57.6944 21.1924 57.7264L21.5581 57.8329L21.84 57.9395C21.91 57.9698 21.9847 57.9878 22.0609 57.9927C22.1102 58.0101 22.164 58.0101 22.2132 57.9927C22.2494 57.9498 22.2778 57.9009 22.297 57.8482H22.4341V59.4383H22.2742C22.2056 59.2481 22.1371 59.0503 22.0609 58.8677C21.9904 58.6819 21.8929 58.5076 21.7714 58.3503C21.6536 58.1949 21.5027 58.0676 21.3296 57.9775C21.1194 57.8731 20.8861 57.8233 20.6516 57.8329C20.4497 57.8293 20.2488 57.8601 20.0574 57.9242C19.9016 57.9789 19.757 58.0614 19.6308 58.1677C19.5164 58.2584 19.4229 58.3726 19.3565 58.5025C19.2967 58.6204 19.2653 58.7507 19.2651 58.8829C19.2605 59.0588 19.317 59.2309 19.4251 59.3699C19.5373 59.5039 19.6744 59.615 19.8288 59.6971C20.01 59.7965 20.2016 59.8756 20.4002 59.9329L21.0629 60.1459C21.2915 60.2144 21.5124 60.2981 21.7257 60.3818C21.931 60.4658 22.1234 60.5786 22.297 60.7166C22.4653 60.8468 22.6053 61.0099 22.7084 61.1959C22.8154 61.4161 22.8677 61.6588 22.8607 61.9035C22.8611 62.1663 22.8039 62.426 22.6932 62.6644C22.5817 62.91 22.4209 63.1301 22.2208 63.3111C21.9951 63.5021 21.7371 63.6516 21.4591 63.7524C21.159 63.8621 20.8415 63.9163 20.5221 63.9122C20.348 63.9137 20.1742 63.8958 20.004 63.8589L19.5241 63.76L19.1356 63.6535C19.0513 63.6269 18.9646 63.6091 18.8766 63.6003C18.8183 63.5966 18.7601 63.6098 18.709 63.6383C18.6642 63.682 18.6325 63.7374 18.6176 63.7981H18.4805V61.9264H18.6557ZM20.4078 57.4069L19.5013 55.7634H19.6003L20.7125 56.821L21.8324 55.7634H21.9314L21.0172 57.4069H20.4078Z" fill="white"/>
<path d="M26.5413 57.7872V57.9089H25.7795V60.5872H25.8404L28.4076 57.9089H27.5621V57.7872H29.238V57.9089H28.5676L26.7012 59.8644L29.596 63.6686H30.114V63.7904H27.3183V63.6686H28.0801L25.848 60.7394H25.7871V63.6686H26.5489V63.7904H23.7988V63.6686H24.5606V57.947H23.7988V57.8253L26.5413 57.7872Z" fill="white"/>
<path d="M35.2709 57.7872V59.2253H35.1643C35.1249 59.1002 35.0765 58.9781 35.0196 58.86C34.9484 58.7019 34.8534 58.5556 34.7377 58.4264C34.6044 58.2794 34.4473 58.1559 34.273 58.0611C34.0577 57.9549 33.8198 57.9027 33.5798 57.9089H32.2466V60.4959H32.719C32.8961 60.5014 33.0724 60.4703 33.237 60.4046C33.3757 60.3525 33.4988 60.2661 33.595 60.1535C33.6944 60.0379 33.7742 59.9068 33.8312 59.7654C33.8931 59.5964 33.9439 59.4236 33.9835 59.2481H34.0902V61.8502H33.9835C33.9378 61.6905 33.8921 61.5307 33.8388 61.3785C33.7924 61.2348 33.7201 61.1007 33.6255 60.9828C33.5383 60.8681 33.4263 60.7745 33.2979 60.709C33.1445 60.6411 32.9781 60.6073 32.8104 60.61H32.2466V63.6535H33.6179C33.858 63.6599 34.0967 63.6158 34.3187 63.5241C34.5243 63.4406 34.7109 63.3163 34.8672 63.1589C35.0302 63.0007 35.1642 62.8154 35.2633 62.6111C35.3694 62.3977 35.4512 62.1731 35.5071 61.9415H35.6138V63.7752H30.2812V63.6535H31.043V57.9318H30.2812V57.8101L35.2709 57.7872Z" fill="white"/>
<path d="M38.6223 57.9089V57.7872H40.5572H41.2581C41.4882 57.7885 41.7178 57.8114 41.9437 57.8557C42.1772 57.8983 42.4031 57.9752 42.614 58.084C42.8095 58.193 42.9786 58.3436 43.1092 58.5253C43.2493 58.7282 43.3189 58.9714 43.3072 59.2176C43.3159 59.4213 43.2628 59.6229 43.1549 59.7959C43.0577 59.954 42.9246 60.0869 42.7664 60.184C42.6008 60.2858 42.4211 60.3627 42.2331 60.4122C42.0464 60.4653 41.8551 60.501 41.6618 60.5187C41.9284 60.572 42.1798 60.6176 42.4236 60.6709C42.6197 60.7175 42.8073 60.7946 42.9797 60.8992C43.1398 61.0023 43.2688 61.1469 43.353 61.3176C43.4548 61.5429 43.5117 61.7858 43.5206 62.0328C43.5206 62.3828 43.5739 62.6719 43.5891 62.8774C43.5993 63.0442 43.6247 63.2098 43.6653 63.3719C43.6775 63.4622 43.7206 63.5456 43.7872 63.6078C43.8552 63.6513 43.9351 63.6726 44.0157 63.6686C44.119 63.6737 44.2201 63.6382 44.2976 63.5697L44.488 63.3947L44.5718 63.4632C44.5198 63.5204 44.4638 63.5738 44.4042 63.623C44.3475 63.6696 44.2863 63.7104 44.2214 63.7448C44.1414 63.7812 44.0568 63.8068 43.97 63.8208C43.8434 63.834 43.7157 63.834 43.5891 63.8208C43.3419 63.8349 43.0953 63.7851 42.873 63.6763C42.713 63.5917 42.5787 63.4655 42.4845 63.3111C42.4 63.1668 42.348 63.0058 42.3321 62.8393C42.309 62.678 42.2963 62.5153 42.2941 62.3524C42.2941 62.1317 42.2941 61.9035 42.2484 61.6904C42.2159 61.5088 42.1596 61.3323 42.0808 61.1654C42.0111 61.0033 41.8977 60.8636 41.7532 60.7622C41.5674 60.6509 41.3525 60.5979 41.1362 60.61H40.5877V63.6535H41.3495V63.7752H38.5918V63.6535H39.3536V57.9318L38.6223 57.9089ZM40.9533 60.4959C41.156 60.5027 41.358 60.4691 41.5475 60.397C41.6806 60.3387 41.7943 60.2437 41.8751 60.1231C41.9454 60.0038 41.992 59.872 42.0122 59.735C42.0238 59.5856 42.0238 59.4356 42.0122 59.2861C42.0165 59.0744 41.9986 58.8627 41.9589 58.6546C41.9338 58.5 41.8767 58.3523 41.7913 58.2209C41.7136 58.1058 41.6017 58.0179 41.4713 57.9698C41.3037 57.9063 41.1248 57.8778 40.9457 57.8861H40.7629H40.58V60.4731L40.9533 60.4959Z" fill="white"/>
<path d="M49.6981 57.7872V59.2253H49.5914C49.552 59.1002 49.5036 58.9781 49.4467 58.86C49.3756 58.7019 49.2805 58.5556 49.1648 58.4264C49.0333 58.2776 48.8759 58.1538 48.7002 58.0611C48.4849 57.9549 48.2469 57.9027 48.0069 57.9089H46.6509V60.4959H47.1232C47.3004 60.5014 47.4767 60.4703 47.6413 60.4046C47.7799 60.3525 47.9031 60.2661 47.9993 60.1535C48.1014 60.0399 48.1815 59.9083 48.2355 59.7654C48.3008 59.5976 48.3518 59.4245 48.3878 59.2481H48.4945V61.8502H48.3878C48.3502 61.6908 48.3044 61.5333 48.2507 61.3785C48.1981 61.2375 48.1263 61.1044 48.0374 60.9828C47.9458 60.8695 47.8316 60.7762 47.7022 60.709C47.5488 60.6411 47.3824 60.6073 47.2147 60.61H46.6509V63.6535H48.0222C48.2623 63.6599 48.501 63.6158 48.723 63.5241C48.9286 63.4406 49.1152 63.3163 49.2715 63.1589C49.4345 63.0007 49.5685 62.8154 49.6676 62.6111C49.777 62.3992 49.8589 62.1742 49.9114 61.9415H50.0181V63.7752H44.6855V63.6535H45.4473V57.9318H44.6855V57.8101L49.6981 57.7872Z" fill="white"/>
<path d="M51.0846 61.9264C51.0846 61.9949 51.0846 62.0862 51.1379 62.1927C51.1707 62.3119 51.2114 62.4289 51.2598 62.5427C51.3163 62.6781 51.3851 62.808 51.4655 62.9307C51.5465 63.0661 51.6465 63.1891 51.7626 63.2959C51.873 63.4091 51.9987 63.5064 52.1359 63.5851C52.2439 63.6487 52.3589 63.6998 52.4787 63.7372C52.5802 63.7667 52.6853 63.7821 52.791 63.7829H53.0576C53.3196 63.7985 53.5814 63.7488 53.8194 63.6383C53.9932 63.5631 54.1471 63.4485 54.2689 63.3036C54.3712 63.1771 54.4487 63.0326 54.4974 62.8775C54.5397 62.7523 54.5628 62.6215 54.566 62.4894C54.5737 62.3084 54.523 62.1297 54.4212 61.9797C54.3144 61.8413 54.1794 61.7272 54.0251 61.6449C53.8501 61.5511 53.6664 61.4747 53.4766 61.4166L52.8367 61.234C52.6234 61.1656 52.4101 61.0894 52.2044 61.0057C52.0024 60.9245 51.8146 60.8115 51.6483 60.671C51.4841 60.5305 51.3516 60.3567 51.2598 60.1612C51.1529 59.9223 51.1034 59.6618 51.115 59.4003C51.1139 59.1791 51.1635 58.9605 51.2598 58.7613C51.3659 58.5533 51.5107 58.3674 51.6864 58.2134C51.8741 58.0461 52.091 57.9145 52.3263 57.8254C52.5836 57.7256 52.8578 57.6765 53.1338 57.6808C53.2975 57.6791 53.4608 57.6944 53.6213 57.7264L53.987 57.833L54.2689 57.9395C54.3386 57.9706 54.4135 57.9887 54.4898 57.9928C54.5391 58.0102 54.5928 58.0102 54.6421 57.9928C54.6783 57.9499 54.7067 57.9009 54.7259 57.8482H54.8554V59.4384H54.7488C54.6802 59.2482 54.6117 59.0503 54.5355 58.8677C54.4619 58.6834 54.3646 58.5095 54.246 58.3504C54.1282 58.1949 53.9773 58.0676 53.8042 57.9775C53.594 57.8731 53.3608 57.8234 53.1262 57.833C52.9243 57.8293 52.7234 57.8602 52.532 57.9243C52.3762 57.979 52.2317 58.0615 52.1054 58.1678C51.991 58.2585 51.8975 58.3726 51.8311 58.5025C51.7713 58.6205 51.74 58.7508 51.7397 58.883C51.7351 59.0589 51.7916 59.231 51.8997 59.3699C52.0119 59.504 52.149 59.6151 52.3035 59.6971C52.4846 59.7966 52.6762 59.8757 52.8748 59.933L53.5375 60.146C53.7661 60.2144 53.987 60.2981 54.2003 60.3818C54.4056 60.4659 54.598 60.5786 54.7716 60.7166C54.9399 60.8469 55.0799 61.01 55.183 61.196C55.29 61.4162 55.3423 61.6589 55.3354 61.9036C55.3357 62.1663 55.2785 62.426 55.1678 62.6644C55.0563 62.91 54.8955 63.1301 54.6955 63.3112C54.4697 63.5022 54.2118 63.6516 53.9337 63.7525C53.6337 63.8622 53.3161 63.9163 52.9967 63.9122C52.8225 63.9137 52.6488 63.8959 52.4787 63.859L51.9987 63.7601L51.6026 63.6536C51.5209 63.6272 51.4366 63.6093 51.3512 63.6003C51.2929 63.5967 51.2347 63.6099 51.1836 63.6383C51.1388 63.682 51.1071 63.7374 51.0922 63.7981H50.9551V61.9264H51.0846Z" fill="white"/>
<path d="M58.9395 57.7872V57.9089H58.1777V63.6306H58.9395V63.7524H56.1895V63.6306H56.9512V57.9089H56.1895V57.7872H58.9395Z" fill="white"/>
<path d="M59.5406 57.909V57.7872H61.1632H62.0165C62.284 57.787 62.5512 57.8048 62.8163 57.8405C63.0979 57.8732 63.3759 57.9318 63.6467 58.0155C63.9123 58.105 64.1676 58.2223 64.4085 58.3655C64.657 58.5118 64.8787 58.6997 65.0636 58.9209C65.256 59.1469 65.408 59.4043 65.5131 59.6818C65.6326 60.0291 65.6894 60.395 65.6807 60.7622C65.6896 61.1269 65.6329 61.4903 65.5131 61.835C65.408 62.1125 65.256 62.3699 65.0636 62.5959C64.886 62.8184 64.6691 63.0066 64.4237 63.1513C64.183 63.2948 63.9276 63.4121 63.6619 63.5013C63.4142 63.5839 63.1591 63.6425 62.9001 63.6763C62.6656 63.7118 62.4288 63.7296 62.1916 63.7295H59.5254V63.6078H60.2872V57.8861L59.5406 57.909ZM61.9707 63.6611C62.2853 63.6662 62.5989 63.6225 62.9001 63.5317C63.136 63.4531 63.3555 63.3319 63.5476 63.1741C63.7175 63.0344 63.8596 62.864 63.9666 62.6719C64.0687 62.4815 64.148 62.2798 64.2028 62.0709C64.2543 61.8663 64.2875 61.6575 64.3018 61.447C64.3124 61.2493 64.3124 61.0512 64.3018 60.8535C64.3034 60.4437 64.2754 60.0343 64.218 59.6285C64.1719 59.2968 64.0578 58.9783 63.8828 58.6927C63.7165 58.4281 63.4752 58.2189 63.1896 58.0916C62.815 57.9405 62.4125 57.8705 62.0088 57.8861H61.7117C61.6384 57.877 61.5642 57.877 61.4908 57.8861V63.6078C61.6889 63.6459 61.8336 63.6611 61.9707 63.6611Z" fill="white"/>
<path d="M71.4182 57.7872V59.2253H71.3116C71.2721 59.1002 71.2238 58.9781 71.1668 58.86C71.0983 58.7005 71.003 58.5538 70.885 58.4264C70.7534 58.2776 70.596 58.1538 70.4203 58.0611C70.2053 57.954 69.9672 57.9017 69.7271 57.9089H68.3939V60.4959H68.8662C69.0458 60.5005 69.2244 60.4695 69.3919 60.4046C69.5273 60.3505 69.6476 60.2643 69.7423 60.1535C69.8444 60.0399 69.9245 59.9083 69.9784 59.7654C70.0438 59.5976 70.0948 59.4245 70.1308 59.2481H70.2679V61.8502H70.1613C70.1236 61.6908 70.0779 61.5333 70.0241 61.3785C69.9715 61.2375 69.8997 61.1044 69.8108 60.9828C69.7192 60.8695 69.6051 60.7762 69.4757 60.709C69.3225 60.6401 69.156 60.6063 68.9881 60.61H68.4244V63.6535H69.8032C70.0408 63.659 70.2769 63.6149 70.4964 63.5241C70.7021 63.4406 70.8886 63.3163 71.0449 63.1589C71.2079 63.0007 71.342 62.8154 71.4411 62.6111C71.5505 62.3992 71.6324 62.1742 71.6848 61.9415H71.7915V63.7752H66.459V63.6535H67.2208V57.9318H66.459V57.8101L71.4182 57.7872Z" fill="white"/>
<path d="M74.4105 57.7872L77.1987 61.7741V57.9089H76.4369V57.7872H78.1128V57.9089H77.351V63.7524H77.1225L73.3516 58.4264V63.6686H74.1134V63.7904H72.4375V63.6686H73.1993V57.947H72.4375V57.8253L74.4105 57.7872Z" fill="white"/>
<path d="M83.7579 59.4992C83.6893 59.3166 83.6208 59.1188 83.5293 58.9134C83.4447 58.7132 83.3318 58.5262 83.1942 58.358C83.0453 58.1669 82.8528 58.014 82.6329 57.9121C82.4129 57.8102 82.1718 57.7622 81.9296 57.7721C81.5919 57.7541 81.2561 57.8334 80.9621 58.0004C80.7269 58.1515 80.5414 58.3685 80.4289 58.6242C80.303 58.9299 80.2259 59.2534 80.2003 59.5829C80.2003 59.9557 80.147 60.3438 80.147 60.8003C80.1404 61.2844 80.1761 61.7681 80.2536 62.2459C80.2973 62.5629 80.4035 62.868 80.566 63.1437C80.6952 63.3571 80.8904 63.5227 81.1221 63.6155C81.3799 63.7128 81.6541 63.7593 81.9296 63.7525C82.1643 63.7546 82.3963 63.7025 82.6076 63.6003C82.8102 63.5019 82.9934 63.3679 83.1485 63.2046C83.3089 63.0357 83.4424 62.8433 83.5446 62.634C83.6514 62.4244 83.7308 62.2019 83.7807 61.972H83.9102V63.7525H83.7807C83.7599 63.697 83.726 63.6473 83.6817 63.6079C83.6241 63.5943 83.5641 63.5943 83.5065 63.6079C83.416 63.6112 83.3263 63.6266 83.2399 63.6535L82.8818 63.7525C82.7447 63.7525 82.5923 63.8209 82.4324 63.8514C82.264 63.882 82.0931 63.8973 81.922 63.897C81.5164 63.8997 81.1145 63.8195 80.7412 63.6612C80.369 63.5058 80.0283 63.2841 79.7356 63.0068C79.4453 62.7286 79.2101 62.3982 79.0424 62.0329C78.8707 61.65 78.7824 61.2351 78.7834 60.8155C78.7781 60.3702 78.8772 59.9298 79.0729 59.5297C79.2599 59.1536 79.5187 58.8176 79.8347 58.5406C80.1269 58.2685 80.4681 58.0542 80.8402 57.909C81.1891 57.7685 81.5611 57.6937 81.9372 57.6884C82.1034 57.6874 82.2692 57.7027 82.4324 57.734L82.859 57.8406L83.217 57.9471C83.3033 57.9759 83.3929 57.9938 83.4836 58.0004C83.5416 58.0111 83.6009 58.0111 83.6588 58.0004C83.6831 57.9827 83.7032 57.9598 83.7176 57.9335C83.7321 57.9073 83.7407 57.8781 83.7426 57.8482H83.8798V59.5601L83.7579 59.4992Z" fill="white"/>
<path d="M89.7299 57.7872V59.2253H89.6233C89.5838 59.1002 89.5355 58.9781 89.4785 58.86C89.4074 58.7019 89.3124 58.5556 89.1967 58.4264C89.0634 58.2794 88.9063 58.1559 88.732 58.0611C88.5167 57.9549 88.2788 57.9027 88.0387 57.9089H86.7056V60.4959H87.1703C87.3499 60.5005 87.5285 60.4695 87.696 60.4046C87.8336 60.3505 87.9564 60.2644 88.054 60.1535C88.1534 60.0379 88.2332 59.9068 88.2902 59.7654C88.3529 59.5974 88.4013 59.4243 88.4349 59.2481H88.5492V61.8502H88.4349C88.3973 61.6908 88.3515 61.5333 88.2978 61.3785C88.2482 61.2361 88.1762 61.1025 88.0845 60.9828C87.9973 60.8681 87.8853 60.7745 87.7569 60.709C87.6011 60.6402 87.432 60.6065 87.2617 60.61H86.7056V63.6535H88.0769C88.3145 63.6597 88.5507 63.6156 88.7701 63.5241C88.9774 63.4438 89.1646 63.3192 89.3186 63.1589C89.4839 63.001 89.6205 62.8157 89.7223 62.6111C89.8284 62.3977 89.9102 62.1731 89.9661 61.9415H90.0727V63.7752H84.7402V63.6535H85.502V57.9318H84.7402V57.8101L89.7299 57.7872Z" fill="white"/>
<path d="M15.0154 72.2817L13.6289 75.4697H12.8671L11.4883 72.2817H12.2882L13.2633 74.5643L14.2459 72.2817H15.0154Z" fill="white"/>
<path d="M17.7717 75.4697L17.1546 74.5795H16.4766V75.4697H15.7148V72.2817H17.0937C17.9545 72.2817 18.4877 72.7231 18.4877 73.4383C18.497 73.654 18.4379 73.8672 18.319 74.0474C18.2 74.2277 18.0271 74.366 17.825 74.4426L18.5411 75.4697H17.7717ZM17.0784 72.8828H16.4766V73.9937H17.0784C17.5279 73.9937 17.7564 73.7806 17.7564 73.4383C17.7564 73.0959 17.5279 72.8828 17.0784 72.8828Z" fill="white"/>
<path d="M19.5547 72.2817H21.0021C21.2277 72.2547 21.4565 72.2758 21.6734 72.3435C21.8902 72.4113 22.0902 72.5242 22.2602 72.6748C22.4302 72.8255 22.5662 73.0104 22.6594 73.2174C22.7526 73.4244 22.8008 73.6487 22.8008 73.8757C22.8008 74.1027 22.7526 74.327 22.6594 74.534C22.5662 74.741 22.4302 74.9259 22.2602 75.0765C22.0902 75.2272 21.8902 75.3401 21.6734 75.4079C21.4565 75.4757 21.2277 75.4967 21.0021 75.4697H19.5547V72.2817ZM20.9716 74.861C21.2343 74.861 21.4862 74.7568 21.6719 74.5713C21.8576 74.3858 21.9619 74.1342 21.9619 73.8719C21.9619 73.6096 21.8576 73.358 21.6719 73.1725C21.4862 72.987 21.2343 72.8828 20.9716 72.8828H20.2936V74.861H20.9716Z" fill="white"/>
<path d="M26.7167 72.2817V75.4697H26.0844L24.4923 73.5296V75.4697H23.7305V72.2817H24.3475L25.932 74.2144V72.2817H26.7167Z" fill="white"/>
<path d="M27.9355 72.2817H28.6973V75.4697H27.9355V72.2817Z" fill="white"/>
<path d="M31.0573 74.2144L30.6231 74.6632V75.4697H29.8613V72.2817H30.6231V73.8035L32.04 72.2817H32.8628L31.5373 73.7045L32.939 75.4697H32.0781L31.0573 74.2144Z" fill="white"/>
<path d="M35.3479 74.1915C35.3494 74.0789 35.3841 73.9693 35.4478 73.8765C35.5115 73.7837 35.6013 73.7117 35.7058 73.6697C35.8103 73.6277 35.9249 73.6175 36.0353 73.6403C36.1456 73.6632 36.2467 73.7182 36.3258 73.7983C36.4049 73.8784 36.4586 73.98 36.4801 74.0905C36.5015 74.201 36.4897 74.3153 36.4463 74.4191C36.4028 74.523 36.3296 74.6117 36.2358 74.674C36.142 74.7364 36.0319 74.7697 35.9192 74.7697C35.8432 74.7708 35.7678 74.7565 35.6975 74.7277C35.6272 74.6989 35.5635 74.6562 35.5101 74.6022C35.4568 74.5482 35.4149 74.484 35.387 74.4134C35.3591 74.3428 35.3458 74.2673 35.3479 74.1915Z" fill="white"/>
<path d="M40.0626 72.8676V73.7122H41.548V74.3057H40.0626V75.4697H39.3008V72.2817H41.7156V72.8676H40.0626Z" fill="white"/>
<path d="M44.7404 75.4697L44.1234 74.5795H43.4454V75.4697H42.6836V72.2817H44.0624C44.9156 72.2817 45.4565 72.7231 45.4565 73.4383C45.4657 73.654 45.4067 73.8672 45.2877 74.0474C45.1687 74.2277 44.9959 74.366 44.7937 74.4426L45.5098 75.4697H44.7404ZM44.0472 72.8828H43.4454V73.9937H44.0472C44.4966 73.9937 44.7252 73.7806 44.7252 73.4383C44.7252 73.0959 44.4966 72.8828 44.0472 72.8828Z" fill="white"/>
<path d="M46.4922 74.1001V72.3121H47.254V74.0697C47.254 74.6784 47.5206 74.9295 47.9701 74.9295C48.4195 74.9295 48.6785 74.6784 48.6785 74.0697V72.3121H49.4403V74.1001C49.4403 74.4835 49.2878 74.8512 49.0164 75.1224C48.7449 75.3935 48.3768 75.5458 47.9929 75.5458C47.609 75.5458 47.2409 75.3935 46.9694 75.1224C46.698 74.8512 46.5455 74.4835 46.5455 74.1001H46.4922Z" fill="white"/>
<path d="M52.9828 74.5339C52.9828 75.0741 52.541 75.5306 51.6269 75.5306C51.1649 75.5407 50.7107 75.4107 50.3242 75.1578L50.5756 74.6023C50.8881 74.8142 51.2568 74.9282 51.6345 74.9295C52.0763 74.9295 52.2515 74.785 52.2515 74.5947C52.2515 73.9937 50.3928 74.4045 50.3928 73.2176C50.3928 72.6774 50.827 72.2209 51.7411 72.2209C52.129 72.2132 52.5114 72.3133 52.8457 72.5099L52.6172 73.0654C52.349 72.9076 52.0447 72.8212 51.7335 72.8143C51.2993 72.8143 51.1241 72.9817 51.1241 73.1795C51.1241 73.773 52.9828 73.3393 52.9828 74.5339ZM51.3679 72.0154L50.766 71.3611H51.2841L51.6878 71.7034L52.0839 71.3611H52.602L52.0001 72.0154H51.3679Z" fill="white"/>
<path d="M55.1161 74.2144L54.6895 74.6632V75.4697H53.9277V72.2817H54.6895V73.8035L56.1064 72.2817H56.9292L55.6037 73.7045L57.0053 75.4697H56.1369L55.1161 74.2144Z" fill="white"/>
<path d="M59.7537 74.785H58.2683L57.9864 75.4697H57.2246L58.6491 72.2817H59.4109L60.8431 75.4697H60.0813L59.7537 74.785ZM59.5176 74.2295L59.0148 73.0046L58.5044 74.2295H59.5176Z" fill="white"/>
<path d="M65.521 73.8262H66.1914V75.1197C65.8167 75.3895 65.3659 75.5334 64.904 75.5306C64.6769 75.5459 64.4491 75.5146 64.2348 75.4384C64.0204 75.3622 63.824 75.2428 63.6577 75.0876C63.4914 74.9324 63.3589 74.7448 63.2683 74.5363C63.1776 74.3278 63.1309 74.103 63.1309 73.8757C63.1309 73.6484 63.1776 73.4236 63.2683 73.2151C63.3589 73.0066 63.4914 72.819 63.6577 72.6638C63.824 72.5086 64.0204 72.3892 64.2348 72.313C64.4491 72.2368 64.6769 72.2055 64.904 72.2208C65.1544 72.2103 65.4042 72.2546 65.6358 72.3505C65.8674 72.4464 66.0752 72.5918 66.2447 72.7763L65.7724 73.21C65.6674 73.0948 65.539 73.0034 65.3958 72.9417C65.2527 72.8801 65.098 72.8496 64.9421 72.8523C64.8001 72.8401 64.6571 72.8574 64.5222 72.9033C64.3873 72.9492 64.2634 73.0226 64.1584 73.1188C64.0534 73.215 63.9695 73.332 63.9122 73.4623C63.8548 73.5926 63.8252 73.7334 63.8252 73.8757C63.8252 74.018 63.8548 74.1588 63.9122 74.2891C63.9695 74.4194 64.0534 74.5363 64.1584 74.6326C64.2634 74.7288 64.3873 74.8022 64.5222 74.848C64.6571 74.8939 64.8001 74.9113 64.9421 74.899C65.1434 74.9018 65.3423 74.8548 65.521 74.7621V73.8262Z" fill="white"/>
<path d="M67.1372 73.8718C67.1189 73.5224 67.2059 73.1755 67.387 72.876C67.568 72.5764 67.8349 72.338 68.153 72.1914C68.4711 72.0449 68.8259 71.9969 69.1716 72.0538C69.5172 72.1106 69.8379 72.2697 70.0922 72.5104C70.3464 72.7511 70.5226 73.0624 70.598 73.4041C70.6733 73.7458 70.6444 74.1023 70.5149 74.4274C70.3854 74.7525 70.1613 75.0314 69.8715 75.228C69.5817 75.4247 69.2396 75.53 68.8893 75.5305C68.6636 75.5429 68.4378 75.5092 68.2256 75.4314C68.0135 75.3537 67.8194 75.2335 67.6554 75.0782C67.4914 74.9229 67.3608 74.7358 67.2717 74.5284C67.1826 74.3209 67.1368 74.0975 67.1372 73.8718ZM69.8872 73.8718C69.8812 73.6761 69.8176 73.4864 69.7044 73.3266C69.5912 73.1667 69.4333 73.0437 69.2505 72.9729C69.0677 72.9022 68.8681 72.8867 68.6766 72.9285C68.485 72.9703 68.3101 73.0676 68.1735 73.2081C68.037 73.3486 67.9449 73.5262 67.9088 73.7187C67.8727 73.9112 67.8942 74.11 67.9705 74.2904C68.0469 74.4707 68.1747 74.6247 68.3381 74.7329C68.5015 74.8411 68.6932 74.8989 68.8893 74.899C69.0238 74.9023 69.1576 74.8778 69.2823 74.827C69.4069 74.7761 69.5196 74.7001 69.6134 74.6036C69.7071 74.5071 69.7798 74.3923 69.827 74.2663C69.8741 74.1404 69.8946 74.0061 69.8872 73.8718Z" fill="white"/>
<path d="M73.6877 75.4697L73.0706 74.5795H72.3926V75.4697H71.6309V72.2817H73.0173C73.8705 72.2817 74.4038 72.7231 74.4038 73.4383C74.4124 73.6529 74.354 73.8648 74.2366 74.0448C74.1192 74.2248 73.9487 74.3638 73.7486 74.4426L74.4647 75.4697H73.6877ZM72.9944 72.8828H72.3926V73.9937H72.9944C73.4515 73.9937 73.6801 73.7806 73.6801 73.4383C73.6801 73.0959 73.4515 72.8828 72.9944 72.8828Z" fill="white"/>
<path d="M77.5721 74.785H76.0866L75.8048 75.4697H75.043L76.4675 72.2817H77.2293L78.6462 75.4697H77.8844L77.5721 74.785ZM77.3436 74.2295L76.8332 73.0046L76.3304 74.2295H77.3436Z" fill="white"/>
<path d="M48.0697 26.5616L49.3876 24.1497L45.0606 16.2216L26.4883 50.3233H29.1241L45.0606 21.0378L48.0697 26.5616Z" fill="white"/>
<path d="M52.4877 18.4508L53.8056 16.0313L45.0755 0L17.6816 50.3233H20.3174L45.0755 4.83146L52.4877 18.4508Z" fill="white"/>
<path d="M46.584 50.3232H49.2121L55.1084 39.4962L61.0122 50.3232H63.6404L55.1008 34.6724L46.584 50.3232Z" fill="white"/>
<path d="M55.1232 18.4584V18.466L55.1156 18.4508L53.8053 20.8627L53.813 20.8703L37.7773 50.3232H40.4055L55.1232 23.2899L69.8333 50.3232H72.4615H72.4691L55.1232 18.4584Z" fill="white"/>
</g>
<defs>
<clipPath id="clip0_444_7359">
<rect width="90.0737" height="75.5305" fill="white"/>
</clipPath>
</defs>
</svg>
