<svg width="16" height="20" viewBox="0 0 16 20" fill="none" xmlns="http://www.w3.org/2000/svg">
<path d="M3.9393 14.4004H4.58466C4.76358 14.4004 4.90202 14.3375 5 14.2115C5.09798 14.0856 5.14697 13.9025 5.14697 13.6621C5.14697 13.4125 5.09691 13.2145 4.99681 13.068C4.8967 12.9192 4.76251 12.8436 4.59425 12.8413H3.9393V14.4004Z" fill="#99C2A5"/>
<path d="M7.66454 12.8413V16.1621H7.94569C8.25879 16.1621 8.47923 16.0739 8.60703 15.8977C8.73482 15.7191 8.80192 15.4123 8.80831 14.9773V14.1085C8.80831 13.6415 8.7476 13.3164 8.6262 13.1332C8.50479 12.9478 8.29819 12.8505 8.00639 12.8413H7.66454Z" fill="#99C2A5"/>
<path fill-rule="evenodd" clip-rule="evenodd" d="M15.937 6.68L15.9276 6.65196C15.9204 6.62974 15.9132 6.60787 15.904 6.586C15.855 6.48 15.794 6.379 15.708 6.293L9.708 0.293C9.622 0.207 9.521 0.146 9.415 0.0969999C9.39435 0.0873619 9.37273 0.0805616 9.35083 0.0736743C9.34093 0.0705592 9.33096 0.067425 9.321 0.0639999C9.237 0.0359999 9.151 0.018 9.062 0.013C9.05187 0.0120792 9.04238 0.00925 9.03303 0.00646556C9.02208 0.00320239 9.01133 0 9 0H2C0.897 0 0 0.897 0 2V18C0 19.103 0.897 20 2 20H14C15.103 20 16 19.103 16 18V7C16 6.98867 15.9968 6.97792 15.9935 6.96697C15.9907 6.95762 15.9879 6.94813 15.987 6.938C15.982 6.85 15.965 6.764 15.937 6.68ZM9 2V7H14L9 2ZM3.9393 15.2418V17H3V12H4.58466C5.04473 12 5.41108 12.1534 5.68371 12.4602C5.95847 12.7669 6.09585 13.1653 6.09585 13.6552C6.09585 14.1451 5.9606 14.5321 5.6901 14.8159C5.4196 15.0998 5.04473 15.2418 4.5655 15.2418H3.9393ZM6.72524 17V12H7.95527C8.4984 12 8.93078 12.1854 9.2524 12.5563C9.57615 12.9272 9.74121 13.4354 9.7476 14.081V14.8915C9.7476 15.5485 9.58573 16.0648 9.26198 16.4402C8.94036 16.8134 8.49627 17 7.92971 17H6.72524ZM11.3642 14.9602H12.8243V14.1223H11.3642V12.8413H13V12H10.4249V17H11.3642V14.9602Z" fill="#99C2A5"/>
</svg>
