<svg width="18" height="14" viewBox="0 0 18 14" fill="none" xmlns="http://www.w3.org/2000/svg">
<path fill-rule="evenodd" clip-rule="evenodd" d="M-9.73635e-08 1.75C-4.35911e-08 0.783502 0.805887 4.48366e-08 1.8 1.00145e-07L16.2 9.01308e-07C17.1941 9.56616e-07 18 0.783503 18 1.75L18 12.25C18 13.2165 17.1941 14 16.2 14L1.8 14C0.805887 14 -7.35317e-07 13.2165 -6.81544e-07 12.25L-9.73635e-08 1.75ZM16.2 3.38494L16.2 12.25L1.8 12.25L1.8 3.38494L9 8.05161L16.2 3.38494ZM15.4775 1.75L2.52251 1.75L9 5.94837L15.4775 1.75Z" fill="white"/>
</svg>
