<svg width="18" height="17" viewBox="0 0 18 17" fill="none" xmlns="http://www.w3.org/2000/svg">
<path d="M13.9339 9.20672C13.5636 8.857 12.965 8.857 12.5947 9.20672L11.085 10.6325C10.3851 10.4357 9.07907 9.98846 8.2513 9.20672C7.42354 8.42498 6.94999 7.19154 6.74163 6.53055L8.2513 5.10481C8.62162 4.75508 8.62162 4.18979 8.2513 3.84007L4.46292 0.262296C4.09261 -0.0874315 3.49404 -0.0874316 3.12373 0.262295L0.555203 2.68802C0.195307 3.02791 -0.00737187 3.49481 0.000204868 3.97155C0.021988 5.24523 0.379043 9.66915 4.07082 13.1557C7.7626 16.6422 12.4469 16.9785 13.7966 17C13.8013 17 13.8183 17 13.8231 17C14.3231 17 14.7957 16.814 15.1537 16.4759L17.7223 14.0501C18.0926 13.7004 18.0926 13.1351 17.7223 12.7854L13.9339 9.20672ZM13.8136 15.2102C12.6316 15.1914 8.58752 14.8918 5.41002 11.89C2.22209 8.87936 1.91334 5.04667 1.8944 3.95277L3.79332 2.15941L6.24251 4.47244L5.01792 5.62895C4.79156 5.84183 4.69496 6.14952 4.76031 6.44468C4.78304 6.54754 5.33898 8.98669 6.91116 10.4715C8.48334 11.9562 11.0661 12.4813 11.175 12.5027C11.4904 12.5662 11.8133 12.4741 12.0387 12.2603L13.2643 11.1038L15.7135 13.4169L13.8136 15.2102Z" fill="white"/>
</svg>
